G04 #@! TF.GenerationSoftware,KiCad,Pcbnew,5.1.2-1.fc30*
G04 #@! TF.CreationDate,2019-06-09T13:39:02+09:00*
G04 #@! TF.ProjectId,driver,64726976-6572-42e6-9b69-6361645f7063,rev?*
G04 #@! TF.SameCoordinates,Original*
G04 #@! TF.FileFunction,Soldermask,Bot*
G04 #@! TF.FilePolarity,Negative*
%FSLAX46Y46*%
G04 Gerber Fmt 4.6, Leading zero omitted, Abs format (unit mm)*
G04 Created by KiCad (PCBNEW 5.1.2-1.fc30) date 2019-06-09 13:39:02*
%MOMM*%
%LPD*%
G04 APERTURE LIST*
%ADD10C,0.100000*%
G04 APERTURE END LIST*
D10*
G36*
X158375256Y-92391298D02*
G01*
X158481579Y-92412447D01*
X158782042Y-92536903D01*
X159052451Y-92717585D01*
X159282415Y-92947549D01*
X159463097Y-93217958D01*
X159587553Y-93518421D01*
X159651000Y-93837391D01*
X159651000Y-94162609D01*
X159587553Y-94481579D01*
X159463097Y-94782042D01*
X159282415Y-95052451D01*
X159052451Y-95282415D01*
X158782042Y-95463097D01*
X158481579Y-95587553D01*
X158375256Y-95608702D01*
X158162611Y-95651000D01*
X157837389Y-95651000D01*
X157624744Y-95608702D01*
X157518421Y-95587553D01*
X157217958Y-95463097D01*
X156947549Y-95282415D01*
X156717585Y-95052451D01*
X156536903Y-94782042D01*
X156412447Y-94481579D01*
X156349000Y-94162609D01*
X156349000Y-93837391D01*
X156412447Y-93518421D01*
X156536903Y-93217958D01*
X156717585Y-92947549D01*
X156947549Y-92717585D01*
X157217958Y-92536903D01*
X157518421Y-92412447D01*
X157624744Y-92391298D01*
X157837389Y-92349000D01*
X158162611Y-92349000D01*
X158375256Y-92391298D01*
X158375256Y-92391298D01*
G37*
G36*
X133375256Y-92391298D02*
G01*
X133481579Y-92412447D01*
X133782042Y-92536903D01*
X134052451Y-92717585D01*
X134282415Y-92947549D01*
X134463097Y-93217958D01*
X134587553Y-93518421D01*
X134651000Y-93837391D01*
X134651000Y-94162609D01*
X134587553Y-94481579D01*
X134463097Y-94782042D01*
X134282415Y-95052451D01*
X134052451Y-95282415D01*
X133782042Y-95463097D01*
X133481579Y-95587553D01*
X133375256Y-95608702D01*
X133162611Y-95651000D01*
X132837389Y-95651000D01*
X132624744Y-95608702D01*
X132518421Y-95587553D01*
X132217958Y-95463097D01*
X131947549Y-95282415D01*
X131717585Y-95052451D01*
X131536903Y-94782042D01*
X131412447Y-94481579D01*
X131349000Y-94162609D01*
X131349000Y-93837391D01*
X131412447Y-93518421D01*
X131536903Y-93217958D01*
X131717585Y-92947549D01*
X131947549Y-92717585D01*
X132217958Y-92536903D01*
X132518421Y-92412447D01*
X132624744Y-92391298D01*
X132837389Y-92349000D01*
X133162611Y-92349000D01*
X133375256Y-92391298D01*
X133375256Y-92391298D01*
G37*
G36*
X148730442Y-93105518D02*
G01*
X148796627Y-93112037D01*
X148966466Y-93163557D01*
X149122991Y-93247222D01*
X149158729Y-93276552D01*
X149260186Y-93359814D01*
X149343448Y-93461271D01*
X149372778Y-93497009D01*
X149456443Y-93653534D01*
X149507963Y-93823373D01*
X149525359Y-94000000D01*
X149507963Y-94176627D01*
X149456443Y-94346466D01*
X149372778Y-94502991D01*
X149343448Y-94538729D01*
X149260186Y-94640186D01*
X149158729Y-94723448D01*
X149122991Y-94752778D01*
X148966466Y-94836443D01*
X148796627Y-94887963D01*
X148730443Y-94894481D01*
X148664260Y-94901000D01*
X148575740Y-94901000D01*
X148509557Y-94894481D01*
X148443373Y-94887963D01*
X148273534Y-94836443D01*
X148117009Y-94752778D01*
X148081271Y-94723448D01*
X147979814Y-94640186D01*
X147896552Y-94538729D01*
X147867222Y-94502991D01*
X147783557Y-94346466D01*
X147732037Y-94176627D01*
X147714641Y-94000000D01*
X147732037Y-93823373D01*
X147783557Y-93653534D01*
X147867222Y-93497009D01*
X147896552Y-93461271D01*
X147979814Y-93359814D01*
X148081271Y-93276552D01*
X148117009Y-93247222D01*
X148273534Y-93163557D01*
X148443373Y-93112037D01*
X148509557Y-93105519D01*
X148575740Y-93099000D01*
X148664260Y-93099000D01*
X148730442Y-93105518D01*
X148730442Y-93105518D01*
G37*
G36*
X141901000Y-94901000D02*
G01*
X140099000Y-94901000D01*
X140099000Y-93099000D01*
X141901000Y-93099000D01*
X141901000Y-94901000D01*
X141901000Y-94901000D01*
G37*
G36*
X143650442Y-93105518D02*
G01*
X143716627Y-93112037D01*
X143886466Y-93163557D01*
X144042991Y-93247222D01*
X144078729Y-93276552D01*
X144180186Y-93359814D01*
X144263448Y-93461271D01*
X144292778Y-93497009D01*
X144376443Y-93653534D01*
X144427963Y-93823373D01*
X144445359Y-94000000D01*
X144427963Y-94176627D01*
X144376443Y-94346466D01*
X144292778Y-94502991D01*
X144263448Y-94538729D01*
X144180186Y-94640186D01*
X144078729Y-94723448D01*
X144042991Y-94752778D01*
X143886466Y-94836443D01*
X143716627Y-94887963D01*
X143650443Y-94894481D01*
X143584260Y-94901000D01*
X143495740Y-94901000D01*
X143429557Y-94894481D01*
X143363373Y-94887963D01*
X143193534Y-94836443D01*
X143037009Y-94752778D01*
X143001271Y-94723448D01*
X142899814Y-94640186D01*
X142816552Y-94538729D01*
X142787222Y-94502991D01*
X142703557Y-94346466D01*
X142652037Y-94176627D01*
X142634641Y-94000000D01*
X142652037Y-93823373D01*
X142703557Y-93653534D01*
X142787222Y-93497009D01*
X142816552Y-93461271D01*
X142899814Y-93359814D01*
X143001271Y-93276552D01*
X143037009Y-93247222D01*
X143193534Y-93163557D01*
X143363373Y-93112037D01*
X143429557Y-93105519D01*
X143495740Y-93099000D01*
X143584260Y-93099000D01*
X143650442Y-93105518D01*
X143650442Y-93105518D01*
G37*
G36*
X146190442Y-93105518D02*
G01*
X146256627Y-93112037D01*
X146426466Y-93163557D01*
X146582991Y-93247222D01*
X146618729Y-93276552D01*
X146720186Y-93359814D01*
X146803448Y-93461271D01*
X146832778Y-93497009D01*
X146916443Y-93653534D01*
X146967963Y-93823373D01*
X146985359Y-94000000D01*
X146967963Y-94176627D01*
X146916443Y-94346466D01*
X146832778Y-94502991D01*
X146803448Y-94538729D01*
X146720186Y-94640186D01*
X146618729Y-94723448D01*
X146582991Y-94752778D01*
X146426466Y-94836443D01*
X146256627Y-94887963D01*
X146190443Y-94894481D01*
X146124260Y-94901000D01*
X146035740Y-94901000D01*
X145969557Y-94894481D01*
X145903373Y-94887963D01*
X145733534Y-94836443D01*
X145577009Y-94752778D01*
X145541271Y-94723448D01*
X145439814Y-94640186D01*
X145356552Y-94538729D01*
X145327222Y-94502991D01*
X145243557Y-94346466D01*
X145192037Y-94176627D01*
X145174641Y-94000000D01*
X145192037Y-93823373D01*
X145243557Y-93653534D01*
X145327222Y-93497009D01*
X145356552Y-93461271D01*
X145439814Y-93359814D01*
X145541271Y-93276552D01*
X145577009Y-93247222D01*
X145733534Y-93163557D01*
X145903373Y-93112037D01*
X145969557Y-93105519D01*
X146035740Y-93099000D01*
X146124260Y-93099000D01*
X146190442Y-93105518D01*
X146190442Y-93105518D01*
G37*
G36*
X131610442Y-86965518D02*
G01*
X131676627Y-86972037D01*
X131846466Y-87023557D01*
X132002991Y-87107222D01*
X132038729Y-87136552D01*
X132140186Y-87219814D01*
X132223448Y-87321271D01*
X132252778Y-87357009D01*
X132336443Y-87513534D01*
X132387963Y-87683373D01*
X132405359Y-87860000D01*
X132387963Y-88036627D01*
X132336443Y-88206466D01*
X132252778Y-88362991D01*
X132223448Y-88398729D01*
X132140186Y-88500186D01*
X132038729Y-88583448D01*
X132002991Y-88612778D01*
X131846466Y-88696443D01*
X131676627Y-88747963D01*
X131610443Y-88754481D01*
X131544260Y-88761000D01*
X131455740Y-88761000D01*
X131389557Y-88754481D01*
X131323373Y-88747963D01*
X131153534Y-88696443D01*
X130997009Y-88612778D01*
X130961271Y-88583448D01*
X130859814Y-88500186D01*
X130776552Y-88398729D01*
X130747222Y-88362991D01*
X130663557Y-88206466D01*
X130612037Y-88036627D01*
X130594641Y-87860000D01*
X130612037Y-87683373D01*
X130663557Y-87513534D01*
X130747222Y-87357009D01*
X130776552Y-87321271D01*
X130859814Y-87219814D01*
X130961271Y-87136552D01*
X130997009Y-87107222D01*
X131153534Y-87023557D01*
X131323373Y-86972037D01*
X131389558Y-86965518D01*
X131455740Y-86959000D01*
X131544260Y-86959000D01*
X131610442Y-86965518D01*
X131610442Y-86965518D01*
G37*
G36*
X159610442Y-86965518D02*
G01*
X159676627Y-86972037D01*
X159846466Y-87023557D01*
X160002991Y-87107222D01*
X160038729Y-87136552D01*
X160140186Y-87219814D01*
X160223448Y-87321271D01*
X160252778Y-87357009D01*
X160336443Y-87513534D01*
X160387963Y-87683373D01*
X160405359Y-87860000D01*
X160387963Y-88036627D01*
X160336443Y-88206466D01*
X160252778Y-88362991D01*
X160223448Y-88398729D01*
X160140186Y-88500186D01*
X160038729Y-88583448D01*
X160002991Y-88612778D01*
X159846466Y-88696443D01*
X159676627Y-88747963D01*
X159610443Y-88754481D01*
X159544260Y-88761000D01*
X159455740Y-88761000D01*
X159389557Y-88754481D01*
X159323373Y-88747963D01*
X159153534Y-88696443D01*
X158997009Y-88612778D01*
X158961271Y-88583448D01*
X158859814Y-88500186D01*
X158776552Y-88398729D01*
X158747222Y-88362991D01*
X158663557Y-88206466D01*
X158612037Y-88036627D01*
X158594641Y-87860000D01*
X158612037Y-87683373D01*
X158663557Y-87513534D01*
X158747222Y-87357009D01*
X158776552Y-87321271D01*
X158859814Y-87219814D01*
X158961271Y-87136552D01*
X158997009Y-87107222D01*
X159153534Y-87023557D01*
X159323373Y-86972037D01*
X159389558Y-86965518D01*
X159455740Y-86959000D01*
X159544260Y-86959000D01*
X159610442Y-86965518D01*
X159610442Y-86965518D01*
G37*
G36*
X131610443Y-84425519D02*
G01*
X131676627Y-84432037D01*
X131846466Y-84483557D01*
X132002991Y-84567222D01*
X132038729Y-84596552D01*
X132140186Y-84679814D01*
X132223448Y-84781271D01*
X132252778Y-84817009D01*
X132336443Y-84973534D01*
X132387963Y-85143373D01*
X132405359Y-85320000D01*
X132387963Y-85496627D01*
X132336443Y-85666466D01*
X132252778Y-85822991D01*
X132223448Y-85858729D01*
X132140186Y-85960186D01*
X132038729Y-86043448D01*
X132002991Y-86072778D01*
X131846466Y-86156443D01*
X131676627Y-86207963D01*
X131610442Y-86214482D01*
X131544260Y-86221000D01*
X131455740Y-86221000D01*
X131389558Y-86214482D01*
X131323373Y-86207963D01*
X131153534Y-86156443D01*
X130997009Y-86072778D01*
X130961271Y-86043448D01*
X130859814Y-85960186D01*
X130776552Y-85858729D01*
X130747222Y-85822991D01*
X130663557Y-85666466D01*
X130612037Y-85496627D01*
X130594641Y-85320000D01*
X130612037Y-85143373D01*
X130663557Y-84973534D01*
X130747222Y-84817009D01*
X130776552Y-84781271D01*
X130859814Y-84679814D01*
X130961271Y-84596552D01*
X130997009Y-84567222D01*
X131153534Y-84483557D01*
X131323373Y-84432037D01*
X131389557Y-84425519D01*
X131455740Y-84419000D01*
X131544260Y-84419000D01*
X131610443Y-84425519D01*
X131610443Y-84425519D01*
G37*
G36*
X159610443Y-84425519D02*
G01*
X159676627Y-84432037D01*
X159846466Y-84483557D01*
X160002991Y-84567222D01*
X160038729Y-84596552D01*
X160140186Y-84679814D01*
X160223448Y-84781271D01*
X160252778Y-84817009D01*
X160336443Y-84973534D01*
X160387963Y-85143373D01*
X160405359Y-85320000D01*
X160387963Y-85496627D01*
X160336443Y-85666466D01*
X160252778Y-85822991D01*
X160223448Y-85858729D01*
X160140186Y-85960186D01*
X160038729Y-86043448D01*
X160002991Y-86072778D01*
X159846466Y-86156443D01*
X159676627Y-86207963D01*
X159610442Y-86214482D01*
X159544260Y-86221000D01*
X159455740Y-86221000D01*
X159389558Y-86214482D01*
X159323373Y-86207963D01*
X159153534Y-86156443D01*
X158997009Y-86072778D01*
X158961271Y-86043448D01*
X158859814Y-85960186D01*
X158776552Y-85858729D01*
X158747222Y-85822991D01*
X158663557Y-85666466D01*
X158612037Y-85496627D01*
X158594641Y-85320000D01*
X158612037Y-85143373D01*
X158663557Y-84973534D01*
X158747222Y-84817009D01*
X158776552Y-84781271D01*
X158859814Y-84679814D01*
X158961271Y-84596552D01*
X158997009Y-84567222D01*
X159153534Y-84483557D01*
X159323373Y-84432037D01*
X159389557Y-84425519D01*
X159455740Y-84419000D01*
X159544260Y-84419000D01*
X159610443Y-84425519D01*
X159610443Y-84425519D01*
G37*
G36*
X159610442Y-81885518D02*
G01*
X159676627Y-81892037D01*
X159846466Y-81943557D01*
X160002991Y-82027222D01*
X160038729Y-82056552D01*
X160140186Y-82139814D01*
X160223448Y-82241271D01*
X160252778Y-82277009D01*
X160336443Y-82433534D01*
X160387963Y-82603373D01*
X160405359Y-82780000D01*
X160387963Y-82956627D01*
X160336443Y-83126466D01*
X160252778Y-83282991D01*
X160223448Y-83318729D01*
X160140186Y-83420186D01*
X160038729Y-83503448D01*
X160002991Y-83532778D01*
X159846466Y-83616443D01*
X159676627Y-83667963D01*
X159610442Y-83674482D01*
X159544260Y-83681000D01*
X159455740Y-83681000D01*
X159389558Y-83674482D01*
X159323373Y-83667963D01*
X159153534Y-83616443D01*
X158997009Y-83532778D01*
X158961271Y-83503448D01*
X158859814Y-83420186D01*
X158776552Y-83318729D01*
X158747222Y-83282991D01*
X158663557Y-83126466D01*
X158612037Y-82956627D01*
X158594641Y-82780000D01*
X158612037Y-82603373D01*
X158663557Y-82433534D01*
X158747222Y-82277009D01*
X158776552Y-82241271D01*
X158859814Y-82139814D01*
X158961271Y-82056552D01*
X158997009Y-82027222D01*
X159153534Y-81943557D01*
X159323373Y-81892037D01*
X159389558Y-81885518D01*
X159455740Y-81879000D01*
X159544260Y-81879000D01*
X159610442Y-81885518D01*
X159610442Y-81885518D01*
G37*
G36*
X131610442Y-81885518D02*
G01*
X131676627Y-81892037D01*
X131846466Y-81943557D01*
X132002991Y-82027222D01*
X132038729Y-82056552D01*
X132140186Y-82139814D01*
X132223448Y-82241271D01*
X132252778Y-82277009D01*
X132336443Y-82433534D01*
X132387963Y-82603373D01*
X132405359Y-82780000D01*
X132387963Y-82956627D01*
X132336443Y-83126466D01*
X132252778Y-83282991D01*
X132223448Y-83318729D01*
X132140186Y-83420186D01*
X132038729Y-83503448D01*
X132002991Y-83532778D01*
X131846466Y-83616443D01*
X131676627Y-83667963D01*
X131610442Y-83674482D01*
X131544260Y-83681000D01*
X131455740Y-83681000D01*
X131389558Y-83674482D01*
X131323373Y-83667963D01*
X131153534Y-83616443D01*
X130997009Y-83532778D01*
X130961271Y-83503448D01*
X130859814Y-83420186D01*
X130776552Y-83318729D01*
X130747222Y-83282991D01*
X130663557Y-83126466D01*
X130612037Y-82956627D01*
X130594641Y-82780000D01*
X130612037Y-82603373D01*
X130663557Y-82433534D01*
X130747222Y-82277009D01*
X130776552Y-82241271D01*
X130859814Y-82139814D01*
X130961271Y-82056552D01*
X130997009Y-82027222D01*
X131153534Y-81943557D01*
X131323373Y-81892037D01*
X131389558Y-81885518D01*
X131455740Y-81879000D01*
X131544260Y-81879000D01*
X131610442Y-81885518D01*
X131610442Y-81885518D01*
G37*
G36*
X131610442Y-79345518D02*
G01*
X131676627Y-79352037D01*
X131846466Y-79403557D01*
X132002991Y-79487222D01*
X132038729Y-79516552D01*
X132140186Y-79599814D01*
X132223448Y-79701271D01*
X132252778Y-79737009D01*
X132336443Y-79893534D01*
X132387963Y-80063373D01*
X132405359Y-80240000D01*
X132387963Y-80416627D01*
X132336443Y-80586466D01*
X132252778Y-80742991D01*
X132223448Y-80778729D01*
X132140186Y-80880186D01*
X132038729Y-80963448D01*
X132002991Y-80992778D01*
X131846466Y-81076443D01*
X131676627Y-81127963D01*
X131610442Y-81134482D01*
X131544260Y-81141000D01*
X131455740Y-81141000D01*
X131389558Y-81134482D01*
X131323373Y-81127963D01*
X131153534Y-81076443D01*
X130997009Y-80992778D01*
X130961271Y-80963448D01*
X130859814Y-80880186D01*
X130776552Y-80778729D01*
X130747222Y-80742991D01*
X130663557Y-80586466D01*
X130612037Y-80416627D01*
X130594641Y-80240000D01*
X130612037Y-80063373D01*
X130663557Y-79893534D01*
X130747222Y-79737009D01*
X130776552Y-79701271D01*
X130859814Y-79599814D01*
X130961271Y-79516552D01*
X130997009Y-79487222D01*
X131153534Y-79403557D01*
X131323373Y-79352037D01*
X131389558Y-79345518D01*
X131455740Y-79339000D01*
X131544260Y-79339000D01*
X131610442Y-79345518D01*
X131610442Y-79345518D01*
G37*
G36*
X159610442Y-79345518D02*
G01*
X159676627Y-79352037D01*
X159846466Y-79403557D01*
X160002991Y-79487222D01*
X160038729Y-79516552D01*
X160140186Y-79599814D01*
X160223448Y-79701271D01*
X160252778Y-79737009D01*
X160336443Y-79893534D01*
X160387963Y-80063373D01*
X160405359Y-80240000D01*
X160387963Y-80416627D01*
X160336443Y-80586466D01*
X160252778Y-80742991D01*
X160223448Y-80778729D01*
X160140186Y-80880186D01*
X160038729Y-80963448D01*
X160002991Y-80992778D01*
X159846466Y-81076443D01*
X159676627Y-81127963D01*
X159610442Y-81134482D01*
X159544260Y-81141000D01*
X159455740Y-81141000D01*
X159389558Y-81134482D01*
X159323373Y-81127963D01*
X159153534Y-81076443D01*
X158997009Y-80992778D01*
X158961271Y-80963448D01*
X158859814Y-80880186D01*
X158776552Y-80778729D01*
X158747222Y-80742991D01*
X158663557Y-80586466D01*
X158612037Y-80416627D01*
X158594641Y-80240000D01*
X158612037Y-80063373D01*
X158663557Y-79893534D01*
X158747222Y-79737009D01*
X158776552Y-79701271D01*
X158859814Y-79599814D01*
X158961271Y-79516552D01*
X158997009Y-79487222D01*
X159153534Y-79403557D01*
X159323373Y-79352037D01*
X159389558Y-79345518D01*
X159455740Y-79339000D01*
X159544260Y-79339000D01*
X159610442Y-79345518D01*
X159610442Y-79345518D01*
G37*
G36*
X131610442Y-76805518D02*
G01*
X131676627Y-76812037D01*
X131846466Y-76863557D01*
X132002991Y-76947222D01*
X132038729Y-76976552D01*
X132140186Y-77059814D01*
X132223448Y-77161271D01*
X132252778Y-77197009D01*
X132336443Y-77353534D01*
X132387963Y-77523373D01*
X132405359Y-77700000D01*
X132387963Y-77876627D01*
X132336443Y-78046466D01*
X132252778Y-78202991D01*
X132223448Y-78238729D01*
X132140186Y-78340186D01*
X132038729Y-78423448D01*
X132002991Y-78452778D01*
X131846466Y-78536443D01*
X131676627Y-78587963D01*
X131610443Y-78594481D01*
X131544260Y-78601000D01*
X131455740Y-78601000D01*
X131389557Y-78594481D01*
X131323373Y-78587963D01*
X131153534Y-78536443D01*
X130997009Y-78452778D01*
X130961271Y-78423448D01*
X130859814Y-78340186D01*
X130776552Y-78238729D01*
X130747222Y-78202991D01*
X130663557Y-78046466D01*
X130612037Y-77876627D01*
X130594641Y-77700000D01*
X130612037Y-77523373D01*
X130663557Y-77353534D01*
X130747222Y-77197009D01*
X130776552Y-77161271D01*
X130859814Y-77059814D01*
X130961271Y-76976552D01*
X130997009Y-76947222D01*
X131153534Y-76863557D01*
X131323373Y-76812037D01*
X131389558Y-76805518D01*
X131455740Y-76799000D01*
X131544260Y-76799000D01*
X131610442Y-76805518D01*
X131610442Y-76805518D01*
G37*
G36*
X159610442Y-76805518D02*
G01*
X159676627Y-76812037D01*
X159846466Y-76863557D01*
X160002991Y-76947222D01*
X160038729Y-76976552D01*
X160140186Y-77059814D01*
X160223448Y-77161271D01*
X160252778Y-77197009D01*
X160336443Y-77353534D01*
X160387963Y-77523373D01*
X160405359Y-77700000D01*
X160387963Y-77876627D01*
X160336443Y-78046466D01*
X160252778Y-78202991D01*
X160223448Y-78238729D01*
X160140186Y-78340186D01*
X160038729Y-78423448D01*
X160002991Y-78452778D01*
X159846466Y-78536443D01*
X159676627Y-78587963D01*
X159610443Y-78594481D01*
X159544260Y-78601000D01*
X159455740Y-78601000D01*
X159389557Y-78594481D01*
X159323373Y-78587963D01*
X159153534Y-78536443D01*
X158997009Y-78452778D01*
X158961271Y-78423448D01*
X158859814Y-78340186D01*
X158776552Y-78238729D01*
X158747222Y-78202991D01*
X158663557Y-78046466D01*
X158612037Y-77876627D01*
X158594641Y-77700000D01*
X158612037Y-77523373D01*
X158663557Y-77353534D01*
X158747222Y-77197009D01*
X158776552Y-77161271D01*
X158859814Y-77059814D01*
X158961271Y-76976552D01*
X158997009Y-76947222D01*
X159153534Y-76863557D01*
X159323373Y-76812037D01*
X159389558Y-76805518D01*
X159455740Y-76799000D01*
X159544260Y-76799000D01*
X159610442Y-76805518D01*
X159610442Y-76805518D01*
G37*
G36*
X131610443Y-74265519D02*
G01*
X131676627Y-74272037D01*
X131846466Y-74323557D01*
X132002991Y-74407222D01*
X132038729Y-74436552D01*
X132140186Y-74519814D01*
X132223448Y-74621271D01*
X132252778Y-74657009D01*
X132336443Y-74813534D01*
X132387963Y-74983373D01*
X132405359Y-75160000D01*
X132387963Y-75336627D01*
X132336443Y-75506466D01*
X132252778Y-75662991D01*
X132223448Y-75698729D01*
X132140186Y-75800186D01*
X132038729Y-75883448D01*
X132002991Y-75912778D01*
X131846466Y-75996443D01*
X131676627Y-76047963D01*
X131610442Y-76054482D01*
X131544260Y-76061000D01*
X131455740Y-76061000D01*
X131389558Y-76054482D01*
X131323373Y-76047963D01*
X131153534Y-75996443D01*
X130997009Y-75912778D01*
X130961271Y-75883448D01*
X130859814Y-75800186D01*
X130776552Y-75698729D01*
X130747222Y-75662991D01*
X130663557Y-75506466D01*
X130612037Y-75336627D01*
X130594641Y-75160000D01*
X130612037Y-74983373D01*
X130663557Y-74813534D01*
X130747222Y-74657009D01*
X130776552Y-74621271D01*
X130859814Y-74519814D01*
X130961271Y-74436552D01*
X130997009Y-74407222D01*
X131153534Y-74323557D01*
X131323373Y-74272037D01*
X131389557Y-74265519D01*
X131455740Y-74259000D01*
X131544260Y-74259000D01*
X131610443Y-74265519D01*
X131610443Y-74265519D01*
G37*
G36*
X159610443Y-74265519D02*
G01*
X159676627Y-74272037D01*
X159846466Y-74323557D01*
X160002991Y-74407222D01*
X160038729Y-74436552D01*
X160140186Y-74519814D01*
X160223448Y-74621271D01*
X160252778Y-74657009D01*
X160336443Y-74813534D01*
X160387963Y-74983373D01*
X160405359Y-75160000D01*
X160387963Y-75336627D01*
X160336443Y-75506466D01*
X160252778Y-75662991D01*
X160223448Y-75698729D01*
X160140186Y-75800186D01*
X160038729Y-75883448D01*
X160002991Y-75912778D01*
X159846466Y-75996443D01*
X159676627Y-76047963D01*
X159610442Y-76054482D01*
X159544260Y-76061000D01*
X159455740Y-76061000D01*
X159389558Y-76054482D01*
X159323373Y-76047963D01*
X159153534Y-75996443D01*
X158997009Y-75912778D01*
X158961271Y-75883448D01*
X158859814Y-75800186D01*
X158776552Y-75698729D01*
X158747222Y-75662991D01*
X158663557Y-75506466D01*
X158612037Y-75336627D01*
X158594641Y-75160000D01*
X158612037Y-74983373D01*
X158663557Y-74813534D01*
X158747222Y-74657009D01*
X158776552Y-74621271D01*
X158859814Y-74519814D01*
X158961271Y-74436552D01*
X158997009Y-74407222D01*
X159153534Y-74323557D01*
X159323373Y-74272037D01*
X159389557Y-74265519D01*
X159455740Y-74259000D01*
X159544260Y-74259000D01*
X159610443Y-74265519D01*
X159610443Y-74265519D01*
G37*
G36*
X131610442Y-71725518D02*
G01*
X131676627Y-71732037D01*
X131846466Y-71783557D01*
X132002991Y-71867222D01*
X132038729Y-71896552D01*
X132140186Y-71979814D01*
X132223448Y-72081271D01*
X132252778Y-72117009D01*
X132336443Y-72273534D01*
X132387963Y-72443373D01*
X132405359Y-72620000D01*
X132387963Y-72796627D01*
X132336443Y-72966466D01*
X132252778Y-73122991D01*
X132223448Y-73158729D01*
X132140186Y-73260186D01*
X132038729Y-73343448D01*
X132002991Y-73372778D01*
X131846466Y-73456443D01*
X131676627Y-73507963D01*
X131610443Y-73514481D01*
X131544260Y-73521000D01*
X131455740Y-73521000D01*
X131389557Y-73514481D01*
X131323373Y-73507963D01*
X131153534Y-73456443D01*
X130997009Y-73372778D01*
X130961271Y-73343448D01*
X130859814Y-73260186D01*
X130776552Y-73158729D01*
X130747222Y-73122991D01*
X130663557Y-72966466D01*
X130612037Y-72796627D01*
X130594641Y-72620000D01*
X130612037Y-72443373D01*
X130663557Y-72273534D01*
X130747222Y-72117009D01*
X130776552Y-72081271D01*
X130859814Y-71979814D01*
X130961271Y-71896552D01*
X130997009Y-71867222D01*
X131153534Y-71783557D01*
X131323373Y-71732037D01*
X131389558Y-71725518D01*
X131455740Y-71719000D01*
X131544260Y-71719000D01*
X131610442Y-71725518D01*
X131610442Y-71725518D01*
G37*
G36*
X159610442Y-71725518D02*
G01*
X159676627Y-71732037D01*
X159846466Y-71783557D01*
X160002991Y-71867222D01*
X160038729Y-71896552D01*
X160140186Y-71979814D01*
X160223448Y-72081271D01*
X160252778Y-72117009D01*
X160336443Y-72273534D01*
X160387963Y-72443373D01*
X160405359Y-72620000D01*
X160387963Y-72796627D01*
X160336443Y-72966466D01*
X160252778Y-73122991D01*
X160223448Y-73158729D01*
X160140186Y-73260186D01*
X160038729Y-73343448D01*
X160002991Y-73372778D01*
X159846466Y-73456443D01*
X159676627Y-73507963D01*
X159610443Y-73514481D01*
X159544260Y-73521000D01*
X159455740Y-73521000D01*
X159389557Y-73514481D01*
X159323373Y-73507963D01*
X159153534Y-73456443D01*
X158997009Y-73372778D01*
X158961271Y-73343448D01*
X158859814Y-73260186D01*
X158776552Y-73158729D01*
X158747222Y-73122991D01*
X158663557Y-72966466D01*
X158612037Y-72796627D01*
X158594641Y-72620000D01*
X158612037Y-72443373D01*
X158663557Y-72273534D01*
X158747222Y-72117009D01*
X158776552Y-72081271D01*
X158859814Y-71979814D01*
X158961271Y-71896552D01*
X158997009Y-71867222D01*
X159153534Y-71783557D01*
X159323373Y-71732037D01*
X159389558Y-71725518D01*
X159455740Y-71719000D01*
X159544260Y-71719000D01*
X159610442Y-71725518D01*
X159610442Y-71725518D01*
G37*
G36*
X159610442Y-69185518D02*
G01*
X159676627Y-69192037D01*
X159846466Y-69243557D01*
X160002991Y-69327222D01*
X160038729Y-69356552D01*
X160140186Y-69439814D01*
X160223448Y-69541271D01*
X160252778Y-69577009D01*
X160336443Y-69733534D01*
X160387963Y-69903373D01*
X160405359Y-70080000D01*
X160387963Y-70256627D01*
X160336443Y-70426466D01*
X160252778Y-70582991D01*
X160223448Y-70618729D01*
X160140186Y-70720186D01*
X160038729Y-70803448D01*
X160002991Y-70832778D01*
X159846466Y-70916443D01*
X159676627Y-70967963D01*
X159610442Y-70974482D01*
X159544260Y-70981000D01*
X159455740Y-70981000D01*
X159389558Y-70974482D01*
X159323373Y-70967963D01*
X159153534Y-70916443D01*
X158997009Y-70832778D01*
X158961271Y-70803448D01*
X158859814Y-70720186D01*
X158776552Y-70618729D01*
X158747222Y-70582991D01*
X158663557Y-70426466D01*
X158612037Y-70256627D01*
X158594641Y-70080000D01*
X158612037Y-69903373D01*
X158663557Y-69733534D01*
X158747222Y-69577009D01*
X158776552Y-69541271D01*
X158859814Y-69439814D01*
X158961271Y-69356552D01*
X158997009Y-69327222D01*
X159153534Y-69243557D01*
X159323373Y-69192037D01*
X159389558Y-69185518D01*
X159455740Y-69179000D01*
X159544260Y-69179000D01*
X159610442Y-69185518D01*
X159610442Y-69185518D01*
G37*
G36*
X131610442Y-69185518D02*
G01*
X131676627Y-69192037D01*
X131846466Y-69243557D01*
X132002991Y-69327222D01*
X132038729Y-69356552D01*
X132140186Y-69439814D01*
X132223448Y-69541271D01*
X132252778Y-69577009D01*
X132336443Y-69733534D01*
X132387963Y-69903373D01*
X132405359Y-70080000D01*
X132387963Y-70256627D01*
X132336443Y-70426466D01*
X132252778Y-70582991D01*
X132223448Y-70618729D01*
X132140186Y-70720186D01*
X132038729Y-70803448D01*
X132002991Y-70832778D01*
X131846466Y-70916443D01*
X131676627Y-70967963D01*
X131610442Y-70974482D01*
X131544260Y-70981000D01*
X131455740Y-70981000D01*
X131389558Y-70974482D01*
X131323373Y-70967963D01*
X131153534Y-70916443D01*
X130997009Y-70832778D01*
X130961271Y-70803448D01*
X130859814Y-70720186D01*
X130776552Y-70618729D01*
X130747222Y-70582991D01*
X130663557Y-70426466D01*
X130612037Y-70256627D01*
X130594641Y-70080000D01*
X130612037Y-69903373D01*
X130663557Y-69733534D01*
X130747222Y-69577009D01*
X130776552Y-69541271D01*
X130859814Y-69439814D01*
X130961271Y-69356552D01*
X130997009Y-69327222D01*
X131153534Y-69243557D01*
X131323373Y-69192037D01*
X131389558Y-69185518D01*
X131455740Y-69179000D01*
X131544260Y-69179000D01*
X131610442Y-69185518D01*
X131610442Y-69185518D01*
G37*
G36*
X159610443Y-66645519D02*
G01*
X159676627Y-66652037D01*
X159846466Y-66703557D01*
X160002991Y-66787222D01*
X160038729Y-66816552D01*
X160140186Y-66899814D01*
X160223448Y-67001271D01*
X160252778Y-67037009D01*
X160336443Y-67193534D01*
X160387963Y-67363373D01*
X160405359Y-67540000D01*
X160387963Y-67716627D01*
X160336443Y-67886466D01*
X160252778Y-68042991D01*
X160223448Y-68078729D01*
X160140186Y-68180186D01*
X160038729Y-68263448D01*
X160002991Y-68292778D01*
X159846466Y-68376443D01*
X159676627Y-68427963D01*
X159610443Y-68434481D01*
X159544260Y-68441000D01*
X159455740Y-68441000D01*
X159389557Y-68434481D01*
X159323373Y-68427963D01*
X159153534Y-68376443D01*
X158997009Y-68292778D01*
X158961271Y-68263448D01*
X158859814Y-68180186D01*
X158776552Y-68078729D01*
X158747222Y-68042991D01*
X158663557Y-67886466D01*
X158612037Y-67716627D01*
X158594641Y-67540000D01*
X158612037Y-67363373D01*
X158663557Y-67193534D01*
X158747222Y-67037009D01*
X158776552Y-67001271D01*
X158859814Y-66899814D01*
X158961271Y-66816552D01*
X158997009Y-66787222D01*
X159153534Y-66703557D01*
X159323373Y-66652037D01*
X159389557Y-66645519D01*
X159455740Y-66639000D01*
X159544260Y-66639000D01*
X159610443Y-66645519D01*
X159610443Y-66645519D01*
G37*
G36*
X131610443Y-66645519D02*
G01*
X131676627Y-66652037D01*
X131846466Y-66703557D01*
X132002991Y-66787222D01*
X132038729Y-66816552D01*
X132140186Y-66899814D01*
X132223448Y-67001271D01*
X132252778Y-67037009D01*
X132336443Y-67193534D01*
X132387963Y-67363373D01*
X132405359Y-67540000D01*
X132387963Y-67716627D01*
X132336443Y-67886466D01*
X132252778Y-68042991D01*
X132223448Y-68078729D01*
X132140186Y-68180186D01*
X132038729Y-68263448D01*
X132002991Y-68292778D01*
X131846466Y-68376443D01*
X131676627Y-68427963D01*
X131610443Y-68434481D01*
X131544260Y-68441000D01*
X131455740Y-68441000D01*
X131389557Y-68434481D01*
X131323373Y-68427963D01*
X131153534Y-68376443D01*
X130997009Y-68292778D01*
X130961271Y-68263448D01*
X130859814Y-68180186D01*
X130776552Y-68078729D01*
X130747222Y-68042991D01*
X130663557Y-67886466D01*
X130612037Y-67716627D01*
X130594641Y-67540000D01*
X130612037Y-67363373D01*
X130663557Y-67193534D01*
X130747222Y-67037009D01*
X130776552Y-67001271D01*
X130859814Y-66899814D01*
X130961271Y-66816552D01*
X130997009Y-66787222D01*
X131153534Y-66703557D01*
X131323373Y-66652037D01*
X131389557Y-66645519D01*
X131455740Y-66639000D01*
X131544260Y-66639000D01*
X131610443Y-66645519D01*
X131610443Y-66645519D01*
G37*
G36*
X137851000Y-66851000D02*
G01*
X136149000Y-66851000D01*
X136149000Y-65149000D01*
X137851000Y-65149000D01*
X137851000Y-66851000D01*
X137851000Y-66851000D01*
G37*
G36*
X153248228Y-65181703D02*
G01*
X153403100Y-65245853D01*
X153542481Y-65338985D01*
X153661015Y-65457519D01*
X153754147Y-65596900D01*
X153818297Y-65751772D01*
X153851000Y-65916184D01*
X153851000Y-66083816D01*
X153818297Y-66248228D01*
X153754147Y-66403100D01*
X153661015Y-66542481D01*
X153542481Y-66661015D01*
X153403100Y-66754147D01*
X153248228Y-66818297D01*
X153083816Y-66851000D01*
X152916184Y-66851000D01*
X152751772Y-66818297D01*
X152596900Y-66754147D01*
X152457519Y-66661015D01*
X152338985Y-66542481D01*
X152245853Y-66403100D01*
X152181703Y-66248228D01*
X152149000Y-66083816D01*
X152149000Y-65916184D01*
X152181703Y-65751772D01*
X152245853Y-65596900D01*
X152338985Y-65457519D01*
X152457519Y-65338985D01*
X152596900Y-65245853D01*
X152751772Y-65181703D01*
X152916184Y-65149000D01*
X153083816Y-65149000D01*
X153248228Y-65181703D01*
X153248228Y-65181703D01*
G37*
G36*
X160401000Y-65901000D02*
G01*
X158599000Y-65901000D01*
X158599000Y-64099000D01*
X160401000Y-64099000D01*
X160401000Y-65901000D01*
X160401000Y-65901000D01*
G37*
G36*
X132401000Y-65901000D02*
G01*
X130599000Y-65901000D01*
X130599000Y-64099000D01*
X132401000Y-64099000D01*
X132401000Y-65901000D01*
X132401000Y-65901000D01*
G37*
G36*
X153851000Y-64351000D02*
G01*
X152149000Y-64351000D01*
X152149000Y-62649000D01*
X153851000Y-62649000D01*
X153851000Y-64351000D01*
X153851000Y-64351000D01*
G37*
G36*
X137248228Y-62681703D02*
G01*
X137403100Y-62745853D01*
X137542481Y-62838985D01*
X137661015Y-62957519D01*
X137754147Y-63096900D01*
X137818297Y-63251772D01*
X137851000Y-63416184D01*
X137851000Y-63583816D01*
X137818297Y-63748228D01*
X137754147Y-63903100D01*
X137661015Y-64042481D01*
X137542481Y-64161015D01*
X137403100Y-64254147D01*
X137248228Y-64318297D01*
X137083816Y-64351000D01*
X136916184Y-64351000D01*
X136751772Y-64318297D01*
X136596900Y-64254147D01*
X136457519Y-64161015D01*
X136338985Y-64042481D01*
X136245853Y-63903100D01*
X136181703Y-63748228D01*
X136149000Y-63583816D01*
X136149000Y-63416184D01*
X136181703Y-63251772D01*
X136245853Y-63096900D01*
X136338985Y-62957519D01*
X136457519Y-62838985D01*
X136596900Y-62745853D01*
X136751772Y-62681703D01*
X136916184Y-62649000D01*
X137083816Y-62649000D01*
X137248228Y-62681703D01*
X137248228Y-62681703D01*
G37*
G36*
X133375256Y-57391298D02*
G01*
X133481579Y-57412447D01*
X133782042Y-57536903D01*
X134052451Y-57717585D01*
X134282415Y-57947549D01*
X134463097Y-58217958D01*
X134587553Y-58518421D01*
X134651000Y-58837391D01*
X134651000Y-59162609D01*
X134587553Y-59481579D01*
X134463097Y-59782042D01*
X134282415Y-60052451D01*
X134052451Y-60282415D01*
X133782042Y-60463097D01*
X133481579Y-60587553D01*
X133375256Y-60608702D01*
X133162611Y-60651000D01*
X132837389Y-60651000D01*
X132624744Y-60608702D01*
X132518421Y-60587553D01*
X132217958Y-60463097D01*
X131947549Y-60282415D01*
X131717585Y-60052451D01*
X131536903Y-59782042D01*
X131412447Y-59481579D01*
X131349000Y-59162609D01*
X131349000Y-58837391D01*
X131412447Y-58518421D01*
X131536903Y-58217958D01*
X131717585Y-57947549D01*
X131947549Y-57717585D01*
X132217958Y-57536903D01*
X132518421Y-57412447D01*
X132624744Y-57391298D01*
X132837389Y-57349000D01*
X133162611Y-57349000D01*
X133375256Y-57391298D01*
X133375256Y-57391298D01*
G37*
G36*
X158375256Y-57391298D02*
G01*
X158481579Y-57412447D01*
X158782042Y-57536903D01*
X159052451Y-57717585D01*
X159282415Y-57947549D01*
X159463097Y-58217958D01*
X159587553Y-58518421D01*
X159651000Y-58837391D01*
X159651000Y-59162609D01*
X159587553Y-59481579D01*
X159463097Y-59782042D01*
X159282415Y-60052451D01*
X159052451Y-60282415D01*
X158782042Y-60463097D01*
X158481579Y-60587553D01*
X158375256Y-60608702D01*
X158162611Y-60651000D01*
X157837389Y-60651000D01*
X157624744Y-60608702D01*
X157518421Y-60587553D01*
X157217958Y-60463097D01*
X156947549Y-60282415D01*
X156717585Y-60052451D01*
X156536903Y-59782042D01*
X156412447Y-59481579D01*
X156349000Y-59162609D01*
X156349000Y-58837391D01*
X156412447Y-58518421D01*
X156536903Y-58217958D01*
X156717585Y-57947549D01*
X156947549Y-57717585D01*
X157217958Y-57536903D01*
X157518421Y-57412447D01*
X157624744Y-57391298D01*
X157837389Y-57349000D01*
X158162611Y-57349000D01*
X158375256Y-57391298D01*
X158375256Y-57391298D01*
G37*
M02*
