G04 #@! TF.GenerationSoftware,KiCad,Pcbnew,5.1.2-1.fc30*
G04 #@! TF.CreationDate,2019-06-09T13:39:02+09:00*
G04 #@! TF.ProjectId,driver,64726976-6572-42e6-9b69-6361645f7063,rev?*
G04 #@! TF.SameCoordinates,Original*
G04 #@! TF.FileFunction,Copper,L1,Top*
G04 #@! TF.FilePolarity,Positive*
%FSLAX46Y46*%
G04 Gerber Fmt 4.6, Leading zero omitted, Abs format (unit mm)*
G04 Created by KiCad (PCBNEW 5.1.2-1.fc30) date 2019-06-09 13:39:02*
%MOMM*%
%LPD*%
G04 APERTURE LIST*
%ADD10C,1.500000*%
%ADD11C,2.500000*%
%ADD12C,0.100000*%
%ADD13C,0.950000*%
%ADD14R,1.800000X2.100000*%
%ADD15R,1.450000X0.450000*%
%ADD16R,1.500000X2.000000*%
%ADD17R,3.800000X2.000000*%
%ADD18O,1.700000X1.700000*%
%ADD19R,1.700000X1.700000*%
%ADD20C,1.600000*%
%ADD21R,1.600000X1.600000*%
%ADD22C,1.200000*%
%ADD23C,0.800000*%
%ADD24C,1.200000*%
%ADD25C,0.400000*%
%ADD26C,0.800000*%
%ADD27C,0.254000*%
G04 APERTURE END LIST*
D10*
X153500000Y-58500000D03*
D11*
X150500000Y-57500000D03*
X139500000Y-57500000D03*
D12*
G36*
X156760779Y-69351144D02*
G01*
X156783834Y-69354563D01*
X156806443Y-69360227D01*
X156828387Y-69368079D01*
X156849457Y-69378044D01*
X156869448Y-69390026D01*
X156888168Y-69403910D01*
X156905438Y-69419562D01*
X156921090Y-69436832D01*
X156934974Y-69455552D01*
X156946956Y-69475543D01*
X156956921Y-69496613D01*
X156964773Y-69518557D01*
X156970437Y-69541166D01*
X156973856Y-69564221D01*
X156975000Y-69587500D01*
X156975000Y-70162500D01*
X156973856Y-70185779D01*
X156970437Y-70208834D01*
X156964773Y-70231443D01*
X156956921Y-70253387D01*
X156946956Y-70274457D01*
X156934974Y-70294448D01*
X156921090Y-70313168D01*
X156905438Y-70330438D01*
X156888168Y-70346090D01*
X156869448Y-70359974D01*
X156849457Y-70371956D01*
X156828387Y-70381921D01*
X156806443Y-70389773D01*
X156783834Y-70395437D01*
X156760779Y-70398856D01*
X156737500Y-70400000D01*
X156262500Y-70400000D01*
X156239221Y-70398856D01*
X156216166Y-70395437D01*
X156193557Y-70389773D01*
X156171613Y-70381921D01*
X156150543Y-70371956D01*
X156130552Y-70359974D01*
X156111832Y-70346090D01*
X156094562Y-70330438D01*
X156078910Y-70313168D01*
X156065026Y-70294448D01*
X156053044Y-70274457D01*
X156043079Y-70253387D01*
X156035227Y-70231443D01*
X156029563Y-70208834D01*
X156026144Y-70185779D01*
X156025000Y-70162500D01*
X156025000Y-69587500D01*
X156026144Y-69564221D01*
X156029563Y-69541166D01*
X156035227Y-69518557D01*
X156043079Y-69496613D01*
X156053044Y-69475543D01*
X156065026Y-69455552D01*
X156078910Y-69436832D01*
X156094562Y-69419562D01*
X156111832Y-69403910D01*
X156130552Y-69390026D01*
X156150543Y-69378044D01*
X156171613Y-69368079D01*
X156193557Y-69360227D01*
X156216166Y-69354563D01*
X156239221Y-69351144D01*
X156262500Y-69350000D01*
X156737500Y-69350000D01*
X156760779Y-69351144D01*
X156760779Y-69351144D01*
G37*
D13*
X156500000Y-69875000D03*
D12*
G36*
X156760779Y-67601144D02*
G01*
X156783834Y-67604563D01*
X156806443Y-67610227D01*
X156828387Y-67618079D01*
X156849457Y-67628044D01*
X156869448Y-67640026D01*
X156888168Y-67653910D01*
X156905438Y-67669562D01*
X156921090Y-67686832D01*
X156934974Y-67705552D01*
X156946956Y-67725543D01*
X156956921Y-67746613D01*
X156964773Y-67768557D01*
X156970437Y-67791166D01*
X156973856Y-67814221D01*
X156975000Y-67837500D01*
X156975000Y-68412500D01*
X156973856Y-68435779D01*
X156970437Y-68458834D01*
X156964773Y-68481443D01*
X156956921Y-68503387D01*
X156946956Y-68524457D01*
X156934974Y-68544448D01*
X156921090Y-68563168D01*
X156905438Y-68580438D01*
X156888168Y-68596090D01*
X156869448Y-68609974D01*
X156849457Y-68621956D01*
X156828387Y-68631921D01*
X156806443Y-68639773D01*
X156783834Y-68645437D01*
X156760779Y-68648856D01*
X156737500Y-68650000D01*
X156262500Y-68650000D01*
X156239221Y-68648856D01*
X156216166Y-68645437D01*
X156193557Y-68639773D01*
X156171613Y-68631921D01*
X156150543Y-68621956D01*
X156130552Y-68609974D01*
X156111832Y-68596090D01*
X156094562Y-68580438D01*
X156078910Y-68563168D01*
X156065026Y-68544448D01*
X156053044Y-68524457D01*
X156043079Y-68503387D01*
X156035227Y-68481443D01*
X156029563Y-68458834D01*
X156026144Y-68435779D01*
X156025000Y-68412500D01*
X156025000Y-67837500D01*
X156026144Y-67814221D01*
X156029563Y-67791166D01*
X156035227Y-67768557D01*
X156043079Y-67746613D01*
X156053044Y-67725543D01*
X156065026Y-67705552D01*
X156078910Y-67686832D01*
X156094562Y-67669562D01*
X156111832Y-67653910D01*
X156130552Y-67640026D01*
X156150543Y-67628044D01*
X156171613Y-67618079D01*
X156193557Y-67610227D01*
X156216166Y-67604563D01*
X156239221Y-67601144D01*
X156262500Y-67600000D01*
X156737500Y-67600000D01*
X156760779Y-67601144D01*
X156760779Y-67601144D01*
G37*
D13*
X156500000Y-68125000D03*
D12*
G36*
X134460779Y-69151144D02*
G01*
X134483834Y-69154563D01*
X134506443Y-69160227D01*
X134528387Y-69168079D01*
X134549457Y-69178044D01*
X134569448Y-69190026D01*
X134588168Y-69203910D01*
X134605438Y-69219562D01*
X134621090Y-69236832D01*
X134634974Y-69255552D01*
X134646956Y-69275543D01*
X134656921Y-69296613D01*
X134664773Y-69318557D01*
X134670437Y-69341166D01*
X134673856Y-69364221D01*
X134675000Y-69387500D01*
X134675000Y-69962500D01*
X134673856Y-69985779D01*
X134670437Y-70008834D01*
X134664773Y-70031443D01*
X134656921Y-70053387D01*
X134646956Y-70074457D01*
X134634974Y-70094448D01*
X134621090Y-70113168D01*
X134605438Y-70130438D01*
X134588168Y-70146090D01*
X134569448Y-70159974D01*
X134549457Y-70171956D01*
X134528387Y-70181921D01*
X134506443Y-70189773D01*
X134483834Y-70195437D01*
X134460779Y-70198856D01*
X134437500Y-70200000D01*
X133962500Y-70200000D01*
X133939221Y-70198856D01*
X133916166Y-70195437D01*
X133893557Y-70189773D01*
X133871613Y-70181921D01*
X133850543Y-70171956D01*
X133830552Y-70159974D01*
X133811832Y-70146090D01*
X133794562Y-70130438D01*
X133778910Y-70113168D01*
X133765026Y-70094448D01*
X133753044Y-70074457D01*
X133743079Y-70053387D01*
X133735227Y-70031443D01*
X133729563Y-70008834D01*
X133726144Y-69985779D01*
X133725000Y-69962500D01*
X133725000Y-69387500D01*
X133726144Y-69364221D01*
X133729563Y-69341166D01*
X133735227Y-69318557D01*
X133743079Y-69296613D01*
X133753044Y-69275543D01*
X133765026Y-69255552D01*
X133778910Y-69236832D01*
X133794562Y-69219562D01*
X133811832Y-69203910D01*
X133830552Y-69190026D01*
X133850543Y-69178044D01*
X133871613Y-69168079D01*
X133893557Y-69160227D01*
X133916166Y-69154563D01*
X133939221Y-69151144D01*
X133962500Y-69150000D01*
X134437500Y-69150000D01*
X134460779Y-69151144D01*
X134460779Y-69151144D01*
G37*
D13*
X134200000Y-69675000D03*
D12*
G36*
X134460779Y-67401144D02*
G01*
X134483834Y-67404563D01*
X134506443Y-67410227D01*
X134528387Y-67418079D01*
X134549457Y-67428044D01*
X134569448Y-67440026D01*
X134588168Y-67453910D01*
X134605438Y-67469562D01*
X134621090Y-67486832D01*
X134634974Y-67505552D01*
X134646956Y-67525543D01*
X134656921Y-67546613D01*
X134664773Y-67568557D01*
X134670437Y-67591166D01*
X134673856Y-67614221D01*
X134675000Y-67637500D01*
X134675000Y-68212500D01*
X134673856Y-68235779D01*
X134670437Y-68258834D01*
X134664773Y-68281443D01*
X134656921Y-68303387D01*
X134646956Y-68324457D01*
X134634974Y-68344448D01*
X134621090Y-68363168D01*
X134605438Y-68380438D01*
X134588168Y-68396090D01*
X134569448Y-68409974D01*
X134549457Y-68421956D01*
X134528387Y-68431921D01*
X134506443Y-68439773D01*
X134483834Y-68445437D01*
X134460779Y-68448856D01*
X134437500Y-68450000D01*
X133962500Y-68450000D01*
X133939221Y-68448856D01*
X133916166Y-68445437D01*
X133893557Y-68439773D01*
X133871613Y-68431921D01*
X133850543Y-68421956D01*
X133830552Y-68409974D01*
X133811832Y-68396090D01*
X133794562Y-68380438D01*
X133778910Y-68363168D01*
X133765026Y-68344448D01*
X133753044Y-68324457D01*
X133743079Y-68303387D01*
X133735227Y-68281443D01*
X133729563Y-68258834D01*
X133726144Y-68235779D01*
X133725000Y-68212500D01*
X133725000Y-67637500D01*
X133726144Y-67614221D01*
X133729563Y-67591166D01*
X133735227Y-67568557D01*
X133743079Y-67546613D01*
X133753044Y-67525543D01*
X133765026Y-67505552D01*
X133778910Y-67486832D01*
X133794562Y-67469562D01*
X133811832Y-67453910D01*
X133830552Y-67440026D01*
X133850543Y-67428044D01*
X133871613Y-67418079D01*
X133893557Y-67410227D01*
X133916166Y-67404563D01*
X133939221Y-67401144D01*
X133962500Y-67400000D01*
X134437500Y-67400000D01*
X134460779Y-67401144D01*
X134460779Y-67401144D01*
G37*
D13*
X134200000Y-67925000D03*
D14*
X138350000Y-74450000D03*
X138350000Y-71550000D03*
X140650000Y-71550000D03*
X140650000Y-74450000D03*
D15*
X152950000Y-76575000D03*
X152950000Y-77225000D03*
X152950000Y-77875000D03*
X152950000Y-78525000D03*
X152950000Y-79175000D03*
X152950000Y-79825000D03*
X152950000Y-80475000D03*
X152950000Y-81125000D03*
X152950000Y-81775000D03*
X152950000Y-82425000D03*
X147050000Y-82425000D03*
X147050000Y-81775000D03*
X147050000Y-81125000D03*
X147050000Y-80475000D03*
X147050000Y-79825000D03*
X147050000Y-79175000D03*
X147050000Y-78525000D03*
X147050000Y-77875000D03*
X147050000Y-77225000D03*
X147050000Y-76575000D03*
D16*
X142700000Y-63150000D03*
X147300000Y-63150000D03*
X145000000Y-63150000D03*
D17*
X145000000Y-56850000D03*
D10*
X143000000Y-76000000D03*
X146000000Y-70000000D03*
X136000000Y-70000000D03*
X152500000Y-70000000D03*
D12*
G36*
X148685779Y-73526144D02*
G01*
X148708834Y-73529563D01*
X148731443Y-73535227D01*
X148753387Y-73543079D01*
X148774457Y-73553044D01*
X148794448Y-73565026D01*
X148813168Y-73578910D01*
X148830438Y-73594562D01*
X148846090Y-73611832D01*
X148859974Y-73630552D01*
X148871956Y-73650543D01*
X148881921Y-73671613D01*
X148889773Y-73693557D01*
X148895437Y-73716166D01*
X148898856Y-73739221D01*
X148900000Y-73762500D01*
X148900000Y-74237500D01*
X148898856Y-74260779D01*
X148895437Y-74283834D01*
X148889773Y-74306443D01*
X148881921Y-74328387D01*
X148871956Y-74349457D01*
X148859974Y-74369448D01*
X148846090Y-74388168D01*
X148830438Y-74405438D01*
X148813168Y-74421090D01*
X148794448Y-74434974D01*
X148774457Y-74446956D01*
X148753387Y-74456921D01*
X148731443Y-74464773D01*
X148708834Y-74470437D01*
X148685779Y-74473856D01*
X148662500Y-74475000D01*
X148087500Y-74475000D01*
X148064221Y-74473856D01*
X148041166Y-74470437D01*
X148018557Y-74464773D01*
X147996613Y-74456921D01*
X147975543Y-74446956D01*
X147955552Y-74434974D01*
X147936832Y-74421090D01*
X147919562Y-74405438D01*
X147903910Y-74388168D01*
X147890026Y-74369448D01*
X147878044Y-74349457D01*
X147868079Y-74328387D01*
X147860227Y-74306443D01*
X147854563Y-74283834D01*
X147851144Y-74260779D01*
X147850000Y-74237500D01*
X147850000Y-73762500D01*
X147851144Y-73739221D01*
X147854563Y-73716166D01*
X147860227Y-73693557D01*
X147868079Y-73671613D01*
X147878044Y-73650543D01*
X147890026Y-73630552D01*
X147903910Y-73611832D01*
X147919562Y-73594562D01*
X147936832Y-73578910D01*
X147955552Y-73565026D01*
X147975543Y-73553044D01*
X147996613Y-73543079D01*
X148018557Y-73535227D01*
X148041166Y-73529563D01*
X148064221Y-73526144D01*
X148087500Y-73525000D01*
X148662500Y-73525000D01*
X148685779Y-73526144D01*
X148685779Y-73526144D01*
G37*
D13*
X148375000Y-74000000D03*
D12*
G36*
X146935779Y-73526144D02*
G01*
X146958834Y-73529563D01*
X146981443Y-73535227D01*
X147003387Y-73543079D01*
X147024457Y-73553044D01*
X147044448Y-73565026D01*
X147063168Y-73578910D01*
X147080438Y-73594562D01*
X147096090Y-73611832D01*
X147109974Y-73630552D01*
X147121956Y-73650543D01*
X147131921Y-73671613D01*
X147139773Y-73693557D01*
X147145437Y-73716166D01*
X147148856Y-73739221D01*
X147150000Y-73762500D01*
X147150000Y-74237500D01*
X147148856Y-74260779D01*
X147145437Y-74283834D01*
X147139773Y-74306443D01*
X147131921Y-74328387D01*
X147121956Y-74349457D01*
X147109974Y-74369448D01*
X147096090Y-74388168D01*
X147080438Y-74405438D01*
X147063168Y-74421090D01*
X147044448Y-74434974D01*
X147024457Y-74446956D01*
X147003387Y-74456921D01*
X146981443Y-74464773D01*
X146958834Y-74470437D01*
X146935779Y-74473856D01*
X146912500Y-74475000D01*
X146337500Y-74475000D01*
X146314221Y-74473856D01*
X146291166Y-74470437D01*
X146268557Y-74464773D01*
X146246613Y-74456921D01*
X146225543Y-74446956D01*
X146205552Y-74434974D01*
X146186832Y-74421090D01*
X146169562Y-74405438D01*
X146153910Y-74388168D01*
X146140026Y-74369448D01*
X146128044Y-74349457D01*
X146118079Y-74328387D01*
X146110227Y-74306443D01*
X146104563Y-74283834D01*
X146101144Y-74260779D01*
X146100000Y-74237500D01*
X146100000Y-73762500D01*
X146101144Y-73739221D01*
X146104563Y-73716166D01*
X146110227Y-73693557D01*
X146118079Y-73671613D01*
X146128044Y-73650543D01*
X146140026Y-73630552D01*
X146153910Y-73611832D01*
X146169562Y-73594562D01*
X146186832Y-73578910D01*
X146205552Y-73565026D01*
X146225543Y-73553044D01*
X146246613Y-73543079D01*
X146268557Y-73535227D01*
X146291166Y-73529563D01*
X146314221Y-73526144D01*
X146337500Y-73525000D01*
X146912500Y-73525000D01*
X146935779Y-73526144D01*
X146935779Y-73526144D01*
G37*
D13*
X146625000Y-74000000D03*
D12*
G36*
X150935779Y-59526144D02*
G01*
X150958834Y-59529563D01*
X150981443Y-59535227D01*
X151003387Y-59543079D01*
X151024457Y-59553044D01*
X151044448Y-59565026D01*
X151063168Y-59578910D01*
X151080438Y-59594562D01*
X151096090Y-59611832D01*
X151109974Y-59630552D01*
X151121956Y-59650543D01*
X151131921Y-59671613D01*
X151139773Y-59693557D01*
X151145437Y-59716166D01*
X151148856Y-59739221D01*
X151150000Y-59762500D01*
X151150000Y-60237500D01*
X151148856Y-60260779D01*
X151145437Y-60283834D01*
X151139773Y-60306443D01*
X151131921Y-60328387D01*
X151121956Y-60349457D01*
X151109974Y-60369448D01*
X151096090Y-60388168D01*
X151080438Y-60405438D01*
X151063168Y-60421090D01*
X151044448Y-60434974D01*
X151024457Y-60446956D01*
X151003387Y-60456921D01*
X150981443Y-60464773D01*
X150958834Y-60470437D01*
X150935779Y-60473856D01*
X150912500Y-60475000D01*
X150337500Y-60475000D01*
X150314221Y-60473856D01*
X150291166Y-60470437D01*
X150268557Y-60464773D01*
X150246613Y-60456921D01*
X150225543Y-60446956D01*
X150205552Y-60434974D01*
X150186832Y-60421090D01*
X150169562Y-60405438D01*
X150153910Y-60388168D01*
X150140026Y-60369448D01*
X150128044Y-60349457D01*
X150118079Y-60328387D01*
X150110227Y-60306443D01*
X150104563Y-60283834D01*
X150101144Y-60260779D01*
X150100000Y-60237500D01*
X150100000Y-59762500D01*
X150101144Y-59739221D01*
X150104563Y-59716166D01*
X150110227Y-59693557D01*
X150118079Y-59671613D01*
X150128044Y-59650543D01*
X150140026Y-59630552D01*
X150153910Y-59611832D01*
X150169562Y-59594562D01*
X150186832Y-59578910D01*
X150205552Y-59565026D01*
X150225543Y-59553044D01*
X150246613Y-59543079D01*
X150268557Y-59535227D01*
X150291166Y-59529563D01*
X150314221Y-59526144D01*
X150337500Y-59525000D01*
X150912500Y-59525000D01*
X150935779Y-59526144D01*
X150935779Y-59526144D01*
G37*
D13*
X150625000Y-60000000D03*
D12*
G36*
X152685779Y-59526144D02*
G01*
X152708834Y-59529563D01*
X152731443Y-59535227D01*
X152753387Y-59543079D01*
X152774457Y-59553044D01*
X152794448Y-59565026D01*
X152813168Y-59578910D01*
X152830438Y-59594562D01*
X152846090Y-59611832D01*
X152859974Y-59630552D01*
X152871956Y-59650543D01*
X152881921Y-59671613D01*
X152889773Y-59693557D01*
X152895437Y-59716166D01*
X152898856Y-59739221D01*
X152900000Y-59762500D01*
X152900000Y-60237500D01*
X152898856Y-60260779D01*
X152895437Y-60283834D01*
X152889773Y-60306443D01*
X152881921Y-60328387D01*
X152871956Y-60349457D01*
X152859974Y-60369448D01*
X152846090Y-60388168D01*
X152830438Y-60405438D01*
X152813168Y-60421090D01*
X152794448Y-60434974D01*
X152774457Y-60446956D01*
X152753387Y-60456921D01*
X152731443Y-60464773D01*
X152708834Y-60470437D01*
X152685779Y-60473856D01*
X152662500Y-60475000D01*
X152087500Y-60475000D01*
X152064221Y-60473856D01*
X152041166Y-60470437D01*
X152018557Y-60464773D01*
X151996613Y-60456921D01*
X151975543Y-60446956D01*
X151955552Y-60434974D01*
X151936832Y-60421090D01*
X151919562Y-60405438D01*
X151903910Y-60388168D01*
X151890026Y-60369448D01*
X151878044Y-60349457D01*
X151868079Y-60328387D01*
X151860227Y-60306443D01*
X151854563Y-60283834D01*
X151851144Y-60260779D01*
X151850000Y-60237500D01*
X151850000Y-59762500D01*
X151851144Y-59739221D01*
X151854563Y-59716166D01*
X151860227Y-59693557D01*
X151868079Y-59671613D01*
X151878044Y-59650543D01*
X151890026Y-59630552D01*
X151903910Y-59611832D01*
X151919562Y-59594562D01*
X151936832Y-59578910D01*
X151955552Y-59565026D01*
X151975543Y-59553044D01*
X151996613Y-59543079D01*
X152018557Y-59535227D01*
X152041166Y-59529563D01*
X152064221Y-59526144D01*
X152087500Y-59525000D01*
X152662500Y-59525000D01*
X152685779Y-59526144D01*
X152685779Y-59526144D01*
G37*
D13*
X152375000Y-60000000D03*
D18*
X148620000Y-94000000D03*
X146080000Y-94000000D03*
X143540000Y-94000000D03*
D19*
X141000000Y-94000000D03*
D18*
X159500000Y-87860000D03*
X159500000Y-85320000D03*
X159500000Y-82780000D03*
X159500000Y-80240000D03*
X159500000Y-77700000D03*
X159500000Y-75160000D03*
X159500000Y-72620000D03*
X159500000Y-70080000D03*
X159500000Y-67540000D03*
D19*
X159500000Y-65000000D03*
X131500000Y-65000000D03*
D18*
X131500000Y-67540000D03*
X131500000Y-70080000D03*
X131500000Y-72620000D03*
X131500000Y-75160000D03*
X131500000Y-77700000D03*
X131500000Y-80240000D03*
X131500000Y-82780000D03*
X131500000Y-85320000D03*
X131500000Y-87860000D03*
D12*
G36*
X143260779Y-71601144D02*
G01*
X143283834Y-71604563D01*
X143306443Y-71610227D01*
X143328387Y-71618079D01*
X143349457Y-71628044D01*
X143369448Y-71640026D01*
X143388168Y-71653910D01*
X143405438Y-71669562D01*
X143421090Y-71686832D01*
X143434974Y-71705552D01*
X143446956Y-71725543D01*
X143456921Y-71746613D01*
X143464773Y-71768557D01*
X143470437Y-71791166D01*
X143473856Y-71814221D01*
X143475000Y-71837500D01*
X143475000Y-72412500D01*
X143473856Y-72435779D01*
X143470437Y-72458834D01*
X143464773Y-72481443D01*
X143456921Y-72503387D01*
X143446956Y-72524457D01*
X143434974Y-72544448D01*
X143421090Y-72563168D01*
X143405438Y-72580438D01*
X143388168Y-72596090D01*
X143369448Y-72609974D01*
X143349457Y-72621956D01*
X143328387Y-72631921D01*
X143306443Y-72639773D01*
X143283834Y-72645437D01*
X143260779Y-72648856D01*
X143237500Y-72650000D01*
X142762500Y-72650000D01*
X142739221Y-72648856D01*
X142716166Y-72645437D01*
X142693557Y-72639773D01*
X142671613Y-72631921D01*
X142650543Y-72621956D01*
X142630552Y-72609974D01*
X142611832Y-72596090D01*
X142594562Y-72580438D01*
X142578910Y-72563168D01*
X142565026Y-72544448D01*
X142553044Y-72524457D01*
X142543079Y-72503387D01*
X142535227Y-72481443D01*
X142529563Y-72458834D01*
X142526144Y-72435779D01*
X142525000Y-72412500D01*
X142525000Y-71837500D01*
X142526144Y-71814221D01*
X142529563Y-71791166D01*
X142535227Y-71768557D01*
X142543079Y-71746613D01*
X142553044Y-71725543D01*
X142565026Y-71705552D01*
X142578910Y-71686832D01*
X142594562Y-71669562D01*
X142611832Y-71653910D01*
X142630552Y-71640026D01*
X142650543Y-71628044D01*
X142671613Y-71618079D01*
X142693557Y-71610227D01*
X142716166Y-71604563D01*
X142739221Y-71601144D01*
X142762500Y-71600000D01*
X143237500Y-71600000D01*
X143260779Y-71601144D01*
X143260779Y-71601144D01*
G37*
D13*
X143000000Y-72125000D03*
D12*
G36*
X143260779Y-73351144D02*
G01*
X143283834Y-73354563D01*
X143306443Y-73360227D01*
X143328387Y-73368079D01*
X143349457Y-73378044D01*
X143369448Y-73390026D01*
X143388168Y-73403910D01*
X143405438Y-73419562D01*
X143421090Y-73436832D01*
X143434974Y-73455552D01*
X143446956Y-73475543D01*
X143456921Y-73496613D01*
X143464773Y-73518557D01*
X143470437Y-73541166D01*
X143473856Y-73564221D01*
X143475000Y-73587500D01*
X143475000Y-74162500D01*
X143473856Y-74185779D01*
X143470437Y-74208834D01*
X143464773Y-74231443D01*
X143456921Y-74253387D01*
X143446956Y-74274457D01*
X143434974Y-74294448D01*
X143421090Y-74313168D01*
X143405438Y-74330438D01*
X143388168Y-74346090D01*
X143369448Y-74359974D01*
X143349457Y-74371956D01*
X143328387Y-74381921D01*
X143306443Y-74389773D01*
X143283834Y-74395437D01*
X143260779Y-74398856D01*
X143237500Y-74400000D01*
X142762500Y-74400000D01*
X142739221Y-74398856D01*
X142716166Y-74395437D01*
X142693557Y-74389773D01*
X142671613Y-74381921D01*
X142650543Y-74371956D01*
X142630552Y-74359974D01*
X142611832Y-74346090D01*
X142594562Y-74330438D01*
X142578910Y-74313168D01*
X142565026Y-74294448D01*
X142553044Y-74274457D01*
X142543079Y-74253387D01*
X142535227Y-74231443D01*
X142529563Y-74208834D01*
X142526144Y-74185779D01*
X142525000Y-74162500D01*
X142525000Y-73587500D01*
X142526144Y-73564221D01*
X142529563Y-73541166D01*
X142535227Y-73518557D01*
X142543079Y-73496613D01*
X142553044Y-73475543D01*
X142565026Y-73455552D01*
X142578910Y-73436832D01*
X142594562Y-73419562D01*
X142611832Y-73403910D01*
X142630552Y-73390026D01*
X142650543Y-73378044D01*
X142671613Y-73368079D01*
X142693557Y-73360227D01*
X142716166Y-73354563D01*
X142739221Y-73351144D01*
X142762500Y-73350000D01*
X143237500Y-73350000D01*
X143260779Y-73351144D01*
X143260779Y-73351144D01*
G37*
D13*
X143000000Y-73875000D03*
D12*
G36*
X136260779Y-71601144D02*
G01*
X136283834Y-71604563D01*
X136306443Y-71610227D01*
X136328387Y-71618079D01*
X136349457Y-71628044D01*
X136369448Y-71640026D01*
X136388168Y-71653910D01*
X136405438Y-71669562D01*
X136421090Y-71686832D01*
X136434974Y-71705552D01*
X136446956Y-71725543D01*
X136456921Y-71746613D01*
X136464773Y-71768557D01*
X136470437Y-71791166D01*
X136473856Y-71814221D01*
X136475000Y-71837500D01*
X136475000Y-72412500D01*
X136473856Y-72435779D01*
X136470437Y-72458834D01*
X136464773Y-72481443D01*
X136456921Y-72503387D01*
X136446956Y-72524457D01*
X136434974Y-72544448D01*
X136421090Y-72563168D01*
X136405438Y-72580438D01*
X136388168Y-72596090D01*
X136369448Y-72609974D01*
X136349457Y-72621956D01*
X136328387Y-72631921D01*
X136306443Y-72639773D01*
X136283834Y-72645437D01*
X136260779Y-72648856D01*
X136237500Y-72650000D01*
X135762500Y-72650000D01*
X135739221Y-72648856D01*
X135716166Y-72645437D01*
X135693557Y-72639773D01*
X135671613Y-72631921D01*
X135650543Y-72621956D01*
X135630552Y-72609974D01*
X135611832Y-72596090D01*
X135594562Y-72580438D01*
X135578910Y-72563168D01*
X135565026Y-72544448D01*
X135553044Y-72524457D01*
X135543079Y-72503387D01*
X135535227Y-72481443D01*
X135529563Y-72458834D01*
X135526144Y-72435779D01*
X135525000Y-72412500D01*
X135525000Y-71837500D01*
X135526144Y-71814221D01*
X135529563Y-71791166D01*
X135535227Y-71768557D01*
X135543079Y-71746613D01*
X135553044Y-71725543D01*
X135565026Y-71705552D01*
X135578910Y-71686832D01*
X135594562Y-71669562D01*
X135611832Y-71653910D01*
X135630552Y-71640026D01*
X135650543Y-71628044D01*
X135671613Y-71618079D01*
X135693557Y-71610227D01*
X135716166Y-71604563D01*
X135739221Y-71601144D01*
X135762500Y-71600000D01*
X136237500Y-71600000D01*
X136260779Y-71601144D01*
X136260779Y-71601144D01*
G37*
D13*
X136000000Y-72125000D03*
D12*
G36*
X136260779Y-73351144D02*
G01*
X136283834Y-73354563D01*
X136306443Y-73360227D01*
X136328387Y-73368079D01*
X136349457Y-73378044D01*
X136369448Y-73390026D01*
X136388168Y-73403910D01*
X136405438Y-73419562D01*
X136421090Y-73436832D01*
X136434974Y-73455552D01*
X136446956Y-73475543D01*
X136456921Y-73496613D01*
X136464773Y-73518557D01*
X136470437Y-73541166D01*
X136473856Y-73564221D01*
X136475000Y-73587500D01*
X136475000Y-74162500D01*
X136473856Y-74185779D01*
X136470437Y-74208834D01*
X136464773Y-74231443D01*
X136456921Y-74253387D01*
X136446956Y-74274457D01*
X136434974Y-74294448D01*
X136421090Y-74313168D01*
X136405438Y-74330438D01*
X136388168Y-74346090D01*
X136369448Y-74359974D01*
X136349457Y-74371956D01*
X136328387Y-74381921D01*
X136306443Y-74389773D01*
X136283834Y-74395437D01*
X136260779Y-74398856D01*
X136237500Y-74400000D01*
X135762500Y-74400000D01*
X135739221Y-74398856D01*
X135716166Y-74395437D01*
X135693557Y-74389773D01*
X135671613Y-74381921D01*
X135650543Y-74371956D01*
X135630552Y-74359974D01*
X135611832Y-74346090D01*
X135594562Y-74330438D01*
X135578910Y-74313168D01*
X135565026Y-74294448D01*
X135553044Y-74274457D01*
X135543079Y-74253387D01*
X135535227Y-74231443D01*
X135529563Y-74208834D01*
X135526144Y-74185779D01*
X135525000Y-74162500D01*
X135525000Y-73587500D01*
X135526144Y-73564221D01*
X135529563Y-73541166D01*
X135535227Y-73518557D01*
X135543079Y-73496613D01*
X135553044Y-73475543D01*
X135565026Y-73455552D01*
X135578910Y-73436832D01*
X135594562Y-73419562D01*
X135611832Y-73403910D01*
X135630552Y-73390026D01*
X135650543Y-73378044D01*
X135671613Y-73368079D01*
X135693557Y-73360227D01*
X135716166Y-73354563D01*
X135739221Y-73351144D01*
X135762500Y-73350000D01*
X136237500Y-73350000D01*
X136260779Y-73351144D01*
X136260779Y-73351144D01*
G37*
D13*
X136000000Y-73875000D03*
D20*
X137000000Y-63500000D03*
D21*
X137000000Y-66000000D03*
D12*
G36*
X142935779Y-66026144D02*
G01*
X142958834Y-66029563D01*
X142981443Y-66035227D01*
X143003387Y-66043079D01*
X143024457Y-66053044D01*
X143044448Y-66065026D01*
X143063168Y-66078910D01*
X143080438Y-66094562D01*
X143096090Y-66111832D01*
X143109974Y-66130552D01*
X143121956Y-66150543D01*
X143131921Y-66171613D01*
X143139773Y-66193557D01*
X143145437Y-66216166D01*
X143148856Y-66239221D01*
X143150000Y-66262500D01*
X143150000Y-66737500D01*
X143148856Y-66760779D01*
X143145437Y-66783834D01*
X143139773Y-66806443D01*
X143131921Y-66828387D01*
X143121956Y-66849457D01*
X143109974Y-66869448D01*
X143096090Y-66888168D01*
X143080438Y-66905438D01*
X143063168Y-66921090D01*
X143044448Y-66934974D01*
X143024457Y-66946956D01*
X143003387Y-66956921D01*
X142981443Y-66964773D01*
X142958834Y-66970437D01*
X142935779Y-66973856D01*
X142912500Y-66975000D01*
X142337500Y-66975000D01*
X142314221Y-66973856D01*
X142291166Y-66970437D01*
X142268557Y-66964773D01*
X142246613Y-66956921D01*
X142225543Y-66946956D01*
X142205552Y-66934974D01*
X142186832Y-66921090D01*
X142169562Y-66905438D01*
X142153910Y-66888168D01*
X142140026Y-66869448D01*
X142128044Y-66849457D01*
X142118079Y-66828387D01*
X142110227Y-66806443D01*
X142104563Y-66783834D01*
X142101144Y-66760779D01*
X142100000Y-66737500D01*
X142100000Y-66262500D01*
X142101144Y-66239221D01*
X142104563Y-66216166D01*
X142110227Y-66193557D01*
X142118079Y-66171613D01*
X142128044Y-66150543D01*
X142140026Y-66130552D01*
X142153910Y-66111832D01*
X142169562Y-66094562D01*
X142186832Y-66078910D01*
X142205552Y-66065026D01*
X142225543Y-66053044D01*
X142246613Y-66043079D01*
X142268557Y-66035227D01*
X142291166Y-66029563D01*
X142314221Y-66026144D01*
X142337500Y-66025000D01*
X142912500Y-66025000D01*
X142935779Y-66026144D01*
X142935779Y-66026144D01*
G37*
D13*
X142625000Y-66500000D03*
D12*
G36*
X144685779Y-66026144D02*
G01*
X144708834Y-66029563D01*
X144731443Y-66035227D01*
X144753387Y-66043079D01*
X144774457Y-66053044D01*
X144794448Y-66065026D01*
X144813168Y-66078910D01*
X144830438Y-66094562D01*
X144846090Y-66111832D01*
X144859974Y-66130552D01*
X144871956Y-66150543D01*
X144881921Y-66171613D01*
X144889773Y-66193557D01*
X144895437Y-66216166D01*
X144898856Y-66239221D01*
X144900000Y-66262500D01*
X144900000Y-66737500D01*
X144898856Y-66760779D01*
X144895437Y-66783834D01*
X144889773Y-66806443D01*
X144881921Y-66828387D01*
X144871956Y-66849457D01*
X144859974Y-66869448D01*
X144846090Y-66888168D01*
X144830438Y-66905438D01*
X144813168Y-66921090D01*
X144794448Y-66934974D01*
X144774457Y-66946956D01*
X144753387Y-66956921D01*
X144731443Y-66964773D01*
X144708834Y-66970437D01*
X144685779Y-66973856D01*
X144662500Y-66975000D01*
X144087500Y-66975000D01*
X144064221Y-66973856D01*
X144041166Y-66970437D01*
X144018557Y-66964773D01*
X143996613Y-66956921D01*
X143975543Y-66946956D01*
X143955552Y-66934974D01*
X143936832Y-66921090D01*
X143919562Y-66905438D01*
X143903910Y-66888168D01*
X143890026Y-66869448D01*
X143878044Y-66849457D01*
X143868079Y-66828387D01*
X143860227Y-66806443D01*
X143854563Y-66783834D01*
X143851144Y-66760779D01*
X143850000Y-66737500D01*
X143850000Y-66262500D01*
X143851144Y-66239221D01*
X143854563Y-66216166D01*
X143860227Y-66193557D01*
X143868079Y-66171613D01*
X143878044Y-66150543D01*
X143890026Y-66130552D01*
X143903910Y-66111832D01*
X143919562Y-66094562D01*
X143936832Y-66078910D01*
X143955552Y-66065026D01*
X143975543Y-66053044D01*
X143996613Y-66043079D01*
X144018557Y-66035227D01*
X144041166Y-66029563D01*
X144064221Y-66026144D01*
X144087500Y-66025000D01*
X144662500Y-66025000D01*
X144685779Y-66026144D01*
X144685779Y-66026144D01*
G37*
D13*
X144375000Y-66500000D03*
D12*
G36*
X142935779Y-68026144D02*
G01*
X142958834Y-68029563D01*
X142981443Y-68035227D01*
X143003387Y-68043079D01*
X143024457Y-68053044D01*
X143044448Y-68065026D01*
X143063168Y-68078910D01*
X143080438Y-68094562D01*
X143096090Y-68111832D01*
X143109974Y-68130552D01*
X143121956Y-68150543D01*
X143131921Y-68171613D01*
X143139773Y-68193557D01*
X143145437Y-68216166D01*
X143148856Y-68239221D01*
X143150000Y-68262500D01*
X143150000Y-68737500D01*
X143148856Y-68760779D01*
X143145437Y-68783834D01*
X143139773Y-68806443D01*
X143131921Y-68828387D01*
X143121956Y-68849457D01*
X143109974Y-68869448D01*
X143096090Y-68888168D01*
X143080438Y-68905438D01*
X143063168Y-68921090D01*
X143044448Y-68934974D01*
X143024457Y-68946956D01*
X143003387Y-68956921D01*
X142981443Y-68964773D01*
X142958834Y-68970437D01*
X142935779Y-68973856D01*
X142912500Y-68975000D01*
X142337500Y-68975000D01*
X142314221Y-68973856D01*
X142291166Y-68970437D01*
X142268557Y-68964773D01*
X142246613Y-68956921D01*
X142225543Y-68946956D01*
X142205552Y-68934974D01*
X142186832Y-68921090D01*
X142169562Y-68905438D01*
X142153910Y-68888168D01*
X142140026Y-68869448D01*
X142128044Y-68849457D01*
X142118079Y-68828387D01*
X142110227Y-68806443D01*
X142104563Y-68783834D01*
X142101144Y-68760779D01*
X142100000Y-68737500D01*
X142100000Y-68262500D01*
X142101144Y-68239221D01*
X142104563Y-68216166D01*
X142110227Y-68193557D01*
X142118079Y-68171613D01*
X142128044Y-68150543D01*
X142140026Y-68130552D01*
X142153910Y-68111832D01*
X142169562Y-68094562D01*
X142186832Y-68078910D01*
X142205552Y-68065026D01*
X142225543Y-68053044D01*
X142246613Y-68043079D01*
X142268557Y-68035227D01*
X142291166Y-68029563D01*
X142314221Y-68026144D01*
X142337500Y-68025000D01*
X142912500Y-68025000D01*
X142935779Y-68026144D01*
X142935779Y-68026144D01*
G37*
D13*
X142625000Y-68500000D03*
D12*
G36*
X144685779Y-68026144D02*
G01*
X144708834Y-68029563D01*
X144731443Y-68035227D01*
X144753387Y-68043079D01*
X144774457Y-68053044D01*
X144794448Y-68065026D01*
X144813168Y-68078910D01*
X144830438Y-68094562D01*
X144846090Y-68111832D01*
X144859974Y-68130552D01*
X144871956Y-68150543D01*
X144881921Y-68171613D01*
X144889773Y-68193557D01*
X144895437Y-68216166D01*
X144898856Y-68239221D01*
X144900000Y-68262500D01*
X144900000Y-68737500D01*
X144898856Y-68760779D01*
X144895437Y-68783834D01*
X144889773Y-68806443D01*
X144881921Y-68828387D01*
X144871956Y-68849457D01*
X144859974Y-68869448D01*
X144846090Y-68888168D01*
X144830438Y-68905438D01*
X144813168Y-68921090D01*
X144794448Y-68934974D01*
X144774457Y-68946956D01*
X144753387Y-68956921D01*
X144731443Y-68964773D01*
X144708834Y-68970437D01*
X144685779Y-68973856D01*
X144662500Y-68975000D01*
X144087500Y-68975000D01*
X144064221Y-68973856D01*
X144041166Y-68970437D01*
X144018557Y-68964773D01*
X143996613Y-68956921D01*
X143975543Y-68946956D01*
X143955552Y-68934974D01*
X143936832Y-68921090D01*
X143919562Y-68905438D01*
X143903910Y-68888168D01*
X143890026Y-68869448D01*
X143878044Y-68849457D01*
X143868079Y-68828387D01*
X143860227Y-68806443D01*
X143854563Y-68783834D01*
X143851144Y-68760779D01*
X143850000Y-68737500D01*
X143850000Y-68262500D01*
X143851144Y-68239221D01*
X143854563Y-68216166D01*
X143860227Y-68193557D01*
X143868079Y-68171613D01*
X143878044Y-68150543D01*
X143890026Y-68130552D01*
X143903910Y-68111832D01*
X143919562Y-68094562D01*
X143936832Y-68078910D01*
X143955552Y-68065026D01*
X143975543Y-68053044D01*
X143996613Y-68043079D01*
X144018557Y-68035227D01*
X144041166Y-68029563D01*
X144064221Y-68026144D01*
X144087500Y-68025000D01*
X144662500Y-68025000D01*
X144685779Y-68026144D01*
X144685779Y-68026144D01*
G37*
D13*
X144375000Y-68500000D03*
D12*
G36*
X148685779Y-66026144D02*
G01*
X148708834Y-66029563D01*
X148731443Y-66035227D01*
X148753387Y-66043079D01*
X148774457Y-66053044D01*
X148794448Y-66065026D01*
X148813168Y-66078910D01*
X148830438Y-66094562D01*
X148846090Y-66111832D01*
X148859974Y-66130552D01*
X148871956Y-66150543D01*
X148881921Y-66171613D01*
X148889773Y-66193557D01*
X148895437Y-66216166D01*
X148898856Y-66239221D01*
X148900000Y-66262500D01*
X148900000Y-66737500D01*
X148898856Y-66760779D01*
X148895437Y-66783834D01*
X148889773Y-66806443D01*
X148881921Y-66828387D01*
X148871956Y-66849457D01*
X148859974Y-66869448D01*
X148846090Y-66888168D01*
X148830438Y-66905438D01*
X148813168Y-66921090D01*
X148794448Y-66934974D01*
X148774457Y-66946956D01*
X148753387Y-66956921D01*
X148731443Y-66964773D01*
X148708834Y-66970437D01*
X148685779Y-66973856D01*
X148662500Y-66975000D01*
X148087500Y-66975000D01*
X148064221Y-66973856D01*
X148041166Y-66970437D01*
X148018557Y-66964773D01*
X147996613Y-66956921D01*
X147975543Y-66946956D01*
X147955552Y-66934974D01*
X147936832Y-66921090D01*
X147919562Y-66905438D01*
X147903910Y-66888168D01*
X147890026Y-66869448D01*
X147878044Y-66849457D01*
X147868079Y-66828387D01*
X147860227Y-66806443D01*
X147854563Y-66783834D01*
X147851144Y-66760779D01*
X147850000Y-66737500D01*
X147850000Y-66262500D01*
X147851144Y-66239221D01*
X147854563Y-66216166D01*
X147860227Y-66193557D01*
X147868079Y-66171613D01*
X147878044Y-66150543D01*
X147890026Y-66130552D01*
X147903910Y-66111832D01*
X147919562Y-66094562D01*
X147936832Y-66078910D01*
X147955552Y-66065026D01*
X147975543Y-66053044D01*
X147996613Y-66043079D01*
X148018557Y-66035227D01*
X148041166Y-66029563D01*
X148064221Y-66026144D01*
X148087500Y-66025000D01*
X148662500Y-66025000D01*
X148685779Y-66026144D01*
X148685779Y-66026144D01*
G37*
D13*
X148375000Y-66500000D03*
D12*
G36*
X146935779Y-66026144D02*
G01*
X146958834Y-66029563D01*
X146981443Y-66035227D01*
X147003387Y-66043079D01*
X147024457Y-66053044D01*
X147044448Y-66065026D01*
X147063168Y-66078910D01*
X147080438Y-66094562D01*
X147096090Y-66111832D01*
X147109974Y-66130552D01*
X147121956Y-66150543D01*
X147131921Y-66171613D01*
X147139773Y-66193557D01*
X147145437Y-66216166D01*
X147148856Y-66239221D01*
X147150000Y-66262500D01*
X147150000Y-66737500D01*
X147148856Y-66760779D01*
X147145437Y-66783834D01*
X147139773Y-66806443D01*
X147131921Y-66828387D01*
X147121956Y-66849457D01*
X147109974Y-66869448D01*
X147096090Y-66888168D01*
X147080438Y-66905438D01*
X147063168Y-66921090D01*
X147044448Y-66934974D01*
X147024457Y-66946956D01*
X147003387Y-66956921D01*
X146981443Y-66964773D01*
X146958834Y-66970437D01*
X146935779Y-66973856D01*
X146912500Y-66975000D01*
X146337500Y-66975000D01*
X146314221Y-66973856D01*
X146291166Y-66970437D01*
X146268557Y-66964773D01*
X146246613Y-66956921D01*
X146225543Y-66946956D01*
X146205552Y-66934974D01*
X146186832Y-66921090D01*
X146169562Y-66905438D01*
X146153910Y-66888168D01*
X146140026Y-66869448D01*
X146128044Y-66849457D01*
X146118079Y-66828387D01*
X146110227Y-66806443D01*
X146104563Y-66783834D01*
X146101144Y-66760779D01*
X146100000Y-66737500D01*
X146100000Y-66262500D01*
X146101144Y-66239221D01*
X146104563Y-66216166D01*
X146110227Y-66193557D01*
X146118079Y-66171613D01*
X146128044Y-66150543D01*
X146140026Y-66130552D01*
X146153910Y-66111832D01*
X146169562Y-66094562D01*
X146186832Y-66078910D01*
X146205552Y-66065026D01*
X146225543Y-66053044D01*
X146246613Y-66043079D01*
X146268557Y-66035227D01*
X146291166Y-66029563D01*
X146314221Y-66026144D01*
X146337500Y-66025000D01*
X146912500Y-66025000D01*
X146935779Y-66026144D01*
X146935779Y-66026144D01*
G37*
D13*
X146625000Y-66500000D03*
D20*
X153000000Y-66000000D03*
D21*
X153000000Y-63500000D03*
D12*
G36*
X152560779Y-73526144D02*
G01*
X152583834Y-73529563D01*
X152606443Y-73535227D01*
X152628387Y-73543079D01*
X152649457Y-73553044D01*
X152669448Y-73565026D01*
X152688168Y-73578910D01*
X152705438Y-73594562D01*
X152721090Y-73611832D01*
X152734974Y-73630552D01*
X152746956Y-73650543D01*
X152756921Y-73671613D01*
X152764773Y-73693557D01*
X152770437Y-73716166D01*
X152773856Y-73739221D01*
X152775000Y-73762500D01*
X152775000Y-74237500D01*
X152773856Y-74260779D01*
X152770437Y-74283834D01*
X152764773Y-74306443D01*
X152756921Y-74328387D01*
X152746956Y-74349457D01*
X152734974Y-74369448D01*
X152721090Y-74388168D01*
X152705438Y-74405438D01*
X152688168Y-74421090D01*
X152669448Y-74434974D01*
X152649457Y-74446956D01*
X152628387Y-74456921D01*
X152606443Y-74464773D01*
X152583834Y-74470437D01*
X152560779Y-74473856D01*
X152537500Y-74475000D01*
X151962500Y-74475000D01*
X151939221Y-74473856D01*
X151916166Y-74470437D01*
X151893557Y-74464773D01*
X151871613Y-74456921D01*
X151850543Y-74446956D01*
X151830552Y-74434974D01*
X151811832Y-74421090D01*
X151794562Y-74405438D01*
X151778910Y-74388168D01*
X151765026Y-74369448D01*
X151753044Y-74349457D01*
X151743079Y-74328387D01*
X151735227Y-74306443D01*
X151729563Y-74283834D01*
X151726144Y-74260779D01*
X151725000Y-74237500D01*
X151725000Y-73762500D01*
X151726144Y-73739221D01*
X151729563Y-73716166D01*
X151735227Y-73693557D01*
X151743079Y-73671613D01*
X151753044Y-73650543D01*
X151765026Y-73630552D01*
X151778910Y-73611832D01*
X151794562Y-73594562D01*
X151811832Y-73578910D01*
X151830552Y-73565026D01*
X151850543Y-73553044D01*
X151871613Y-73543079D01*
X151893557Y-73535227D01*
X151916166Y-73529563D01*
X151939221Y-73526144D01*
X151962500Y-73525000D01*
X152537500Y-73525000D01*
X152560779Y-73526144D01*
X152560779Y-73526144D01*
G37*
D13*
X152250000Y-74000000D03*
D12*
G36*
X150810779Y-73526144D02*
G01*
X150833834Y-73529563D01*
X150856443Y-73535227D01*
X150878387Y-73543079D01*
X150899457Y-73553044D01*
X150919448Y-73565026D01*
X150938168Y-73578910D01*
X150955438Y-73594562D01*
X150971090Y-73611832D01*
X150984974Y-73630552D01*
X150996956Y-73650543D01*
X151006921Y-73671613D01*
X151014773Y-73693557D01*
X151020437Y-73716166D01*
X151023856Y-73739221D01*
X151025000Y-73762500D01*
X151025000Y-74237500D01*
X151023856Y-74260779D01*
X151020437Y-74283834D01*
X151014773Y-74306443D01*
X151006921Y-74328387D01*
X150996956Y-74349457D01*
X150984974Y-74369448D01*
X150971090Y-74388168D01*
X150955438Y-74405438D01*
X150938168Y-74421090D01*
X150919448Y-74434974D01*
X150899457Y-74446956D01*
X150878387Y-74456921D01*
X150856443Y-74464773D01*
X150833834Y-74470437D01*
X150810779Y-74473856D01*
X150787500Y-74475000D01*
X150212500Y-74475000D01*
X150189221Y-74473856D01*
X150166166Y-74470437D01*
X150143557Y-74464773D01*
X150121613Y-74456921D01*
X150100543Y-74446956D01*
X150080552Y-74434974D01*
X150061832Y-74421090D01*
X150044562Y-74405438D01*
X150028910Y-74388168D01*
X150015026Y-74369448D01*
X150003044Y-74349457D01*
X149993079Y-74328387D01*
X149985227Y-74306443D01*
X149979563Y-74283834D01*
X149976144Y-74260779D01*
X149975000Y-74237500D01*
X149975000Y-73762500D01*
X149976144Y-73739221D01*
X149979563Y-73716166D01*
X149985227Y-73693557D01*
X149993079Y-73671613D01*
X150003044Y-73650543D01*
X150015026Y-73630552D01*
X150028910Y-73611832D01*
X150044562Y-73594562D01*
X150061832Y-73578910D01*
X150080552Y-73565026D01*
X150100543Y-73553044D01*
X150121613Y-73543079D01*
X150143557Y-73535227D01*
X150166166Y-73529563D01*
X150189221Y-73526144D01*
X150212500Y-73525000D01*
X150787500Y-73525000D01*
X150810779Y-73526144D01*
X150810779Y-73526144D01*
G37*
D13*
X150500000Y-74000000D03*
D22*
X157500000Y-63500000D03*
X150000000Y-70000000D03*
X152500000Y-75500000D03*
X154000000Y-74000000D03*
X148500000Y-68250000D03*
X150250000Y-66500000D03*
X142750000Y-60750000D03*
X140500000Y-63000000D03*
X140500000Y-60750000D03*
X140750000Y-69250000D03*
X138750000Y-76500000D03*
X140500000Y-76500000D03*
X144750000Y-72000000D03*
X143000000Y-70250000D03*
X145250000Y-76000000D03*
X151250000Y-80250000D03*
X134400000Y-71400000D03*
X150223536Y-79473536D03*
X154799979Y-73000000D03*
X135800021Y-75500000D03*
D23*
X146000000Y-70000000D03*
X154999979Y-76829436D03*
X154999979Y-87611046D03*
X154250003Y-75750003D03*
X154000000Y-87000000D03*
D24*
X142625000Y-68500000D02*
X142625000Y-66500000D01*
X142700000Y-66425000D02*
X142625000Y-66500000D01*
X142700000Y-63150000D02*
X142700000Y-66425000D01*
X145000000Y-63150000D02*
X145000000Y-56850000D01*
X145875000Y-70000000D02*
X144375000Y-68500000D01*
X135625000Y-66000000D02*
X133500000Y-68125000D01*
X137000000Y-66000000D02*
X135625000Y-66000000D01*
X148375000Y-74000000D02*
X150500000Y-74000000D01*
X148375000Y-72375000D02*
X146000000Y-70000000D01*
X148375000Y-74000000D02*
X148375000Y-72375000D01*
X150500000Y-73425000D02*
X150500000Y-74000000D01*
X151925000Y-72000000D02*
X150500000Y-73425000D01*
X155925000Y-68125000D02*
X154525000Y-69525000D01*
X156500000Y-68125000D02*
X155925000Y-68125000D01*
X154525000Y-71000000D02*
X153525000Y-72000000D01*
X154525000Y-69525000D02*
X154525000Y-71000000D01*
X153525000Y-72000000D02*
X151925000Y-72000000D01*
X144375000Y-68500000D02*
X144375000Y-66500000D01*
X144375000Y-65125000D02*
X145000000Y-64500000D01*
X144375000Y-66500000D02*
X144375000Y-65125000D01*
X145000000Y-63150000D02*
X145000000Y-64500000D01*
D25*
X152950000Y-79175000D02*
X151825000Y-79175000D01*
D26*
X150500000Y-77850000D02*
X151575000Y-78925000D01*
X150500000Y-74000000D02*
X150500000Y-77850000D01*
D25*
X151825000Y-79175000D02*
X151575000Y-78925000D01*
D24*
X131585000Y-68125000D02*
X131000000Y-67540000D01*
X133500000Y-68125000D02*
X131585000Y-68125000D01*
D26*
X150000000Y-77850000D02*
X148675000Y-79175000D01*
X150500000Y-77850000D02*
X150000000Y-77850000D01*
D25*
X147050000Y-79175000D02*
X148675000Y-79175000D01*
X141000000Y-95250000D02*
X141000000Y-94000000D01*
X141750000Y-96000000D02*
X141000000Y-95250000D01*
X150000000Y-96000000D02*
X141750000Y-96000000D01*
X157000000Y-87820000D02*
X157000000Y-89000000D01*
X159500000Y-85320000D02*
X157000000Y-87820000D01*
X157000000Y-89000000D02*
X150000000Y-96000000D01*
D24*
X157085000Y-67540000D02*
X156500000Y-68125000D01*
X159500000Y-67540000D02*
X157085000Y-67540000D01*
D25*
X147625010Y-75000010D02*
X148500010Y-75000010D01*
X146625000Y-74000000D02*
X147625010Y-75000010D01*
X148500010Y-75000010D02*
X149500000Y-76000000D01*
X149500000Y-76000000D02*
X149500000Y-76718616D01*
X149500000Y-77200000D02*
X149500000Y-76718616D01*
X148175000Y-78525000D02*
X149500000Y-77200000D01*
X147050000Y-78525000D02*
X148175000Y-78525000D01*
D24*
X150500000Y-59875000D02*
X150625000Y-60000000D01*
X150500000Y-57000000D02*
X150500000Y-59875000D01*
X150625000Y-61125000D02*
X153000000Y-63500000D01*
X150625000Y-60000000D02*
X150625000Y-61125000D01*
X152650000Y-63150000D02*
X153000000Y-63500000D01*
X147300000Y-63150000D02*
X152650000Y-63150000D01*
X146625000Y-65925000D02*
X147250000Y-65300000D01*
X146625000Y-66500000D02*
X146625000Y-65925000D01*
X147250000Y-63200000D02*
X147300000Y-63150000D01*
X147250000Y-65300000D02*
X147250000Y-63200000D01*
D25*
X138573424Y-77875000D02*
X137000000Y-76301576D01*
X147050000Y-77875000D02*
X138573424Y-77875000D01*
X138350000Y-71700000D02*
X138350000Y-71550000D01*
X137000000Y-73050000D02*
X138350000Y-71700000D01*
X137000000Y-76301576D02*
X137000000Y-73050000D01*
X136925000Y-73050000D02*
X136000000Y-72125000D01*
X137000000Y-73050000D02*
X136925000Y-73050000D01*
X136000000Y-70000000D02*
X136000000Y-72125000D01*
X144225000Y-77225000D02*
X143000000Y-76000000D01*
X147050000Y-77225000D02*
X144225000Y-77225000D01*
X141450000Y-74450000D02*
X143000000Y-76000000D01*
X140650000Y-74450000D02*
X141450000Y-74450000D01*
X143000000Y-73875000D02*
X143000000Y-76000000D01*
X150075000Y-82425000D02*
X152950000Y-82425000D01*
X148750000Y-83750000D02*
X150075000Y-82425000D01*
X144300001Y-83050001D02*
X145000000Y-83750000D01*
X145000000Y-83750000D02*
X148750000Y-83750000D01*
X132879998Y-82780000D02*
X133149999Y-83050001D01*
X131500000Y-82780000D02*
X132879998Y-82780000D01*
X133149999Y-83050001D02*
X144300001Y-83050001D01*
X133685000Y-82425000D02*
X131500000Y-80240000D01*
X134575000Y-82425000D02*
X133685000Y-82425000D01*
X147050000Y-82425000D02*
X134575000Y-82425000D01*
X147050000Y-81775000D02*
X134577913Y-81775000D01*
X132349999Y-78549999D02*
X131500000Y-77700000D01*
X132999990Y-80197076D02*
X132999990Y-79199990D01*
X133301457Y-80498543D02*
X132999990Y-80197076D01*
X132999990Y-79199990D02*
X132349999Y-78549999D01*
X134577913Y-81775000D02*
X133301457Y-80498543D01*
X133600000Y-79948544D02*
X133600000Y-77260000D01*
X147050000Y-81125000D02*
X134776456Y-81125000D01*
X133600000Y-77260000D02*
X131500000Y-75160000D01*
X134776456Y-81125000D02*
X133600000Y-79948544D01*
X145925000Y-80475000D02*
X147050000Y-80475000D01*
X134974999Y-80475000D02*
X145925000Y-80475000D01*
X134200000Y-79700001D02*
X134974999Y-80475000D01*
X131500000Y-72620000D02*
X134200000Y-75320000D01*
X134200000Y-75320000D02*
X134200000Y-79700001D01*
X134800011Y-79451469D02*
X134800011Y-73380011D01*
X134800011Y-73380011D02*
X132349999Y-70929999D01*
X132349999Y-70929999D02*
X131500000Y-70080000D01*
X135173542Y-79825000D02*
X134800011Y-79451469D01*
X147050000Y-79825000D02*
X135173542Y-79825000D01*
X152950000Y-77875000D02*
X155276458Y-77875000D01*
X157075729Y-72504271D02*
X159500000Y-70080000D01*
X157075729Y-76075729D02*
X157075729Y-72504271D01*
X155276458Y-77875000D02*
X157075729Y-76075729D01*
X152950000Y-78525000D02*
X155475000Y-78525000D01*
X155475000Y-78525000D02*
X156000000Y-78000000D01*
X157675739Y-74444261D02*
X159500000Y-72620000D01*
X157675739Y-76334261D02*
X157675739Y-74444261D01*
X156000000Y-78000000D02*
X156010000Y-78000000D01*
X156010000Y-78000000D02*
X157675739Y-76334261D01*
X158275748Y-76384252D02*
X158650001Y-76009999D01*
X158275748Y-77274252D02*
X158275748Y-76384252D01*
X155075000Y-80475000D02*
X158275748Y-77274252D01*
X158650001Y-76009999D02*
X159500000Y-75160000D01*
X152950000Y-80475000D02*
X155075000Y-80475000D01*
X156075000Y-81125000D02*
X159500000Y-77700000D01*
X154475000Y-81125000D02*
X156075000Y-81125000D01*
X152950000Y-81125000D02*
X154475000Y-81125000D01*
X158360000Y-80240000D02*
X159500000Y-80240000D01*
X152950000Y-81775000D02*
X156825000Y-81775000D01*
X156825000Y-81775000D02*
X158360000Y-80240000D01*
D24*
X152375000Y-59625000D02*
X153500000Y-58500000D01*
X152375000Y-60000000D02*
X152375000Y-59625000D01*
D25*
X152950000Y-77225000D02*
X154604415Y-77225000D01*
X154604415Y-77225000D02*
X154999979Y-76829436D01*
X148620000Y-94000000D02*
X154999979Y-87620021D01*
X154999979Y-87620021D02*
X154999979Y-87611046D01*
X154250003Y-75774997D02*
X154250003Y-75750003D01*
X152950000Y-76575000D02*
X153450000Y-76575000D01*
X153450000Y-76575000D02*
X154250003Y-75774997D01*
X153600001Y-87899999D02*
X153600001Y-87399999D01*
X153600001Y-87399999D02*
X154000000Y-87000000D01*
X149000000Y-92500000D02*
X153600001Y-87899999D01*
X143540000Y-94000000D02*
X145040000Y-92500000D01*
X145040000Y-92500000D02*
X149000000Y-92500000D01*
D27*
G36*
X138815307Y-56010986D02*
G01*
X138642325Y-56103446D01*
X138501983Y-56322378D01*
X139500000Y-57320395D01*
X140498017Y-56322378D01*
X140357675Y-56103446D01*
X140068741Y-55962957D01*
X140042186Y-55956000D01*
X142717157Y-55956000D01*
X142717157Y-57850000D01*
X142724513Y-57924689D01*
X142746299Y-57996508D01*
X142781678Y-58062696D01*
X142829289Y-58120711D01*
X142887304Y-58168322D01*
X142953492Y-58203701D01*
X143025311Y-58225487D01*
X143100000Y-58232843D01*
X144019001Y-58232843D01*
X144019000Y-61846699D01*
X143979289Y-61879289D01*
X143931678Y-61937304D01*
X143896299Y-62003492D01*
X143874513Y-62075311D01*
X143867157Y-62150000D01*
X143867157Y-64150000D01*
X143874513Y-64224689D01*
X143877645Y-64235013D01*
X143789406Y-64323251D01*
X143803701Y-64296508D01*
X143825487Y-64224689D01*
X143832843Y-64150000D01*
X143831000Y-63372250D01*
X143735750Y-63277000D01*
X142827000Y-63277000D01*
X142827000Y-64435750D01*
X142922250Y-64531000D01*
X143450000Y-64532843D01*
X143524689Y-64525487D01*
X143596508Y-64503701D01*
X143630919Y-64485308D01*
X143555382Y-64577350D01*
X143464289Y-64747772D01*
X143408195Y-64932691D01*
X143389254Y-65125000D01*
X143394001Y-65173196D01*
X143394001Y-65732369D01*
X143362696Y-65706678D01*
X143296508Y-65671299D01*
X143224689Y-65649513D01*
X143150000Y-65642157D01*
X142847250Y-65644000D01*
X142752000Y-65739250D01*
X142752000Y-66373000D01*
X142772000Y-66373000D01*
X142772000Y-66627000D01*
X142752000Y-66627000D01*
X142752000Y-67260750D01*
X142847250Y-67356000D01*
X143150000Y-67357843D01*
X143224689Y-67350487D01*
X143296508Y-67328701D01*
X143362696Y-67293322D01*
X143394001Y-67267631D01*
X143394000Y-67732368D01*
X143362696Y-67706678D01*
X143296508Y-67671299D01*
X143224689Y-67649513D01*
X143150000Y-67642157D01*
X142847250Y-67644000D01*
X142752000Y-67739250D01*
X142752000Y-68373000D01*
X142772000Y-68373000D01*
X142772000Y-68627000D01*
X142752000Y-68627000D01*
X142752000Y-69260750D01*
X142847250Y-69356000D01*
X143150000Y-69357843D01*
X143224689Y-69350487D01*
X143296508Y-69328701D01*
X143362696Y-69293322D01*
X143420711Y-69245711D01*
X143468322Y-69187696D01*
X143503701Y-69121508D01*
X143525487Y-69049689D01*
X143529979Y-69004082D01*
X143571704Y-69082144D01*
X143648851Y-69176149D01*
X143732244Y-69244587D01*
X144979573Y-70491916D01*
X144997721Y-70535729D01*
X145121495Y-70720970D01*
X145279030Y-70878505D01*
X145464271Y-71002279D01*
X145670100Y-71087536D01*
X145707665Y-71095008D01*
X147394001Y-72781344D01*
X147394000Y-73376066D01*
X147351149Y-73323851D01*
X147257144Y-73246704D01*
X147149895Y-73189378D01*
X147033523Y-73154077D01*
X146912500Y-73142157D01*
X146337500Y-73142157D01*
X146216477Y-73154077D01*
X146100105Y-73189378D01*
X145992856Y-73246704D01*
X145898851Y-73323851D01*
X145821704Y-73417856D01*
X145764378Y-73525105D01*
X145729077Y-73641477D01*
X145717157Y-73762500D01*
X145717157Y-74237500D01*
X145729077Y-74358523D01*
X145764378Y-74474895D01*
X145821704Y-74582144D01*
X145898851Y-74676149D01*
X145992856Y-74753296D01*
X146100105Y-74810622D01*
X146216477Y-74845923D01*
X146337500Y-74857843D01*
X146661185Y-74857843D01*
X147194002Y-75390661D01*
X147212193Y-75412827D01*
X147234359Y-75431018D01*
X147234361Y-75431020D01*
X147300662Y-75485431D01*
X147401595Y-75539381D01*
X147511114Y-75572603D01*
X147625010Y-75583821D01*
X147653550Y-75581010D01*
X148259353Y-75581010D01*
X148919000Y-76240658D01*
X148919000Y-76959342D01*
X148157843Y-77720500D01*
X148157843Y-77650000D01*
X148150487Y-77575311D01*
X148142809Y-77550000D01*
X148150487Y-77524689D01*
X148157843Y-77450000D01*
X148157843Y-77000000D01*
X148150487Y-76925311D01*
X148142809Y-76900000D01*
X148150487Y-76874689D01*
X148157843Y-76800000D01*
X148156000Y-76768250D01*
X148060750Y-76673000D01*
X147971461Y-76673000D01*
X147921508Y-76646299D01*
X147849689Y-76624513D01*
X147775000Y-76617157D01*
X146325000Y-76617157D01*
X146250311Y-76624513D01*
X146186071Y-76644000D01*
X144465658Y-76644000D01*
X144171658Y-76350000D01*
X145942157Y-76350000D01*
X145944000Y-76381750D01*
X146039250Y-76477000D01*
X146923000Y-76477000D01*
X146923000Y-76064250D01*
X147177000Y-76064250D01*
X147177000Y-76477000D01*
X148060750Y-76477000D01*
X148156000Y-76381750D01*
X148157843Y-76350000D01*
X148150487Y-76275311D01*
X148128701Y-76203492D01*
X148093322Y-76137304D01*
X148045711Y-76079289D01*
X147987696Y-76031678D01*
X147921508Y-75996299D01*
X147849689Y-75974513D01*
X147775000Y-75967157D01*
X147272250Y-75969000D01*
X147177000Y-76064250D01*
X146923000Y-76064250D01*
X146827750Y-75969000D01*
X146325000Y-75967157D01*
X146250311Y-75974513D01*
X146178492Y-75996299D01*
X146112304Y-76031678D01*
X146054289Y-76079289D01*
X146006678Y-76137304D01*
X145971299Y-76203492D01*
X145949513Y-76275311D01*
X145942157Y-76350000D01*
X144171658Y-76350000D01*
X144098158Y-76276500D01*
X144131000Y-76111394D01*
X144131000Y-75888606D01*
X144087536Y-75670100D01*
X144002279Y-75464271D01*
X143878505Y-75279030D01*
X143720970Y-75121495D01*
X143581000Y-75027970D01*
X143581000Y-74678907D01*
X143582144Y-74678296D01*
X143676149Y-74601149D01*
X143753296Y-74507144D01*
X143810622Y-74399895D01*
X143845923Y-74283523D01*
X143857843Y-74162500D01*
X143857843Y-73587500D01*
X143845923Y-73466477D01*
X143810622Y-73350105D01*
X143753296Y-73242856D01*
X143676149Y-73148851D01*
X143582144Y-73071704D01*
X143504082Y-73029979D01*
X143549689Y-73025487D01*
X143621508Y-73003701D01*
X143687696Y-72968322D01*
X143745711Y-72920711D01*
X143793322Y-72862696D01*
X143828701Y-72796508D01*
X143850487Y-72724689D01*
X143857843Y-72650000D01*
X143856000Y-72347250D01*
X143760750Y-72252000D01*
X143127000Y-72252000D01*
X143127000Y-72272000D01*
X142873000Y-72272000D01*
X142873000Y-72252000D01*
X142239250Y-72252000D01*
X142144000Y-72347250D01*
X142142157Y-72650000D01*
X142149513Y-72724689D01*
X142171299Y-72796508D01*
X142206678Y-72862696D01*
X142254289Y-72920711D01*
X142312304Y-72968322D01*
X142378492Y-73003701D01*
X142450311Y-73025487D01*
X142495918Y-73029979D01*
X142417856Y-73071704D01*
X142323851Y-73148851D01*
X142246704Y-73242856D01*
X142189378Y-73350105D01*
X142154077Y-73466477D01*
X142142157Y-73587500D01*
X142142157Y-74162500D01*
X142154077Y-74283523D01*
X142175368Y-74353711D01*
X141932843Y-74111186D01*
X141932843Y-73400000D01*
X141925487Y-73325311D01*
X141903701Y-73253492D01*
X141868322Y-73187304D01*
X141820711Y-73129289D01*
X141762696Y-73081678D01*
X141696508Y-73046299D01*
X141624689Y-73024513D01*
X141550000Y-73017157D01*
X139750000Y-73017157D01*
X139675311Y-73024513D01*
X139603492Y-73046299D01*
X139537304Y-73081678D01*
X139500000Y-73112292D01*
X139462696Y-73081678D01*
X139396508Y-73046299D01*
X139324689Y-73024513D01*
X139250000Y-73017157D01*
X138572250Y-73019000D01*
X138477000Y-73114250D01*
X138477000Y-74323000D01*
X138497000Y-74323000D01*
X138497000Y-74577000D01*
X138477000Y-74577000D01*
X138477000Y-75785750D01*
X138572250Y-75881000D01*
X139250000Y-75882843D01*
X139324689Y-75875487D01*
X139396508Y-75853701D01*
X139462696Y-75818322D01*
X139500000Y-75787708D01*
X139537304Y-75818322D01*
X139603492Y-75853701D01*
X139675311Y-75875487D01*
X139750000Y-75882843D01*
X141550000Y-75882843D01*
X141624689Y-75875487D01*
X141696508Y-75853701D01*
X141762696Y-75818322D01*
X141820711Y-75770711D01*
X141868322Y-75712696D01*
X141876235Y-75697892D01*
X141901842Y-75723500D01*
X141869000Y-75888606D01*
X141869000Y-76111394D01*
X141912464Y-76329900D01*
X141997721Y-76535729D01*
X142121495Y-76720970D01*
X142279030Y-76878505D01*
X142464271Y-77002279D01*
X142670100Y-77087536D01*
X142888606Y-77131000D01*
X143111394Y-77131000D01*
X143276500Y-77098158D01*
X143472342Y-77294000D01*
X138814082Y-77294000D01*
X137581000Y-76060919D01*
X137581000Y-75882487D01*
X138127750Y-75881000D01*
X138223000Y-75785750D01*
X138223000Y-74577000D01*
X138203000Y-74577000D01*
X138203000Y-74323000D01*
X138223000Y-74323000D01*
X138223000Y-73114250D01*
X138127750Y-73019000D01*
X137853403Y-73018254D01*
X137888814Y-72982843D01*
X139250000Y-72982843D01*
X139324689Y-72975487D01*
X139396508Y-72953701D01*
X139462696Y-72918322D01*
X139500000Y-72887708D01*
X139537304Y-72918322D01*
X139603492Y-72953701D01*
X139675311Y-72975487D01*
X139750000Y-72982843D01*
X140427750Y-72981000D01*
X140523000Y-72885750D01*
X140523000Y-71677000D01*
X140777000Y-71677000D01*
X140777000Y-72885750D01*
X140872250Y-72981000D01*
X141550000Y-72982843D01*
X141624689Y-72975487D01*
X141696508Y-72953701D01*
X141762696Y-72918322D01*
X141820711Y-72870711D01*
X141868322Y-72812696D01*
X141903701Y-72746508D01*
X141925487Y-72674689D01*
X141932843Y-72600000D01*
X141931000Y-71772250D01*
X141835750Y-71677000D01*
X140777000Y-71677000D01*
X140523000Y-71677000D01*
X140503000Y-71677000D01*
X140503000Y-71600000D01*
X142142157Y-71600000D01*
X142144000Y-71902750D01*
X142239250Y-71998000D01*
X142873000Y-71998000D01*
X142873000Y-71314250D01*
X143127000Y-71314250D01*
X143127000Y-71998000D01*
X143760750Y-71998000D01*
X143856000Y-71902750D01*
X143857843Y-71600000D01*
X143850487Y-71525311D01*
X143828701Y-71453492D01*
X143793322Y-71387304D01*
X143745711Y-71329289D01*
X143687696Y-71281678D01*
X143621508Y-71246299D01*
X143549689Y-71224513D01*
X143475000Y-71217157D01*
X143222250Y-71219000D01*
X143127000Y-71314250D01*
X142873000Y-71314250D01*
X142777750Y-71219000D01*
X142525000Y-71217157D01*
X142450311Y-71224513D01*
X142378492Y-71246299D01*
X142312304Y-71281678D01*
X142254289Y-71329289D01*
X142206678Y-71387304D01*
X142171299Y-71453492D01*
X142149513Y-71525311D01*
X142142157Y-71600000D01*
X140503000Y-71600000D01*
X140503000Y-71423000D01*
X140523000Y-71423000D01*
X140523000Y-70214250D01*
X140777000Y-70214250D01*
X140777000Y-71423000D01*
X141835750Y-71423000D01*
X141931000Y-71327750D01*
X141932843Y-70500000D01*
X141925487Y-70425311D01*
X141903701Y-70353492D01*
X141868322Y-70287304D01*
X141820711Y-70229289D01*
X141762696Y-70181678D01*
X141696508Y-70146299D01*
X141624689Y-70124513D01*
X141550000Y-70117157D01*
X140872250Y-70119000D01*
X140777000Y-70214250D01*
X140523000Y-70214250D01*
X140427750Y-70119000D01*
X139750000Y-70117157D01*
X139675311Y-70124513D01*
X139603492Y-70146299D01*
X139537304Y-70181678D01*
X139500000Y-70212292D01*
X139462696Y-70181678D01*
X139396508Y-70146299D01*
X139324689Y-70124513D01*
X139250000Y-70117157D01*
X137450000Y-70117157D01*
X137375311Y-70124513D01*
X137303492Y-70146299D01*
X137237304Y-70181678D01*
X137179289Y-70229289D01*
X137131678Y-70287304D01*
X137096299Y-70353492D01*
X137074513Y-70425311D01*
X137067157Y-70500000D01*
X137067157Y-72161186D01*
X136962500Y-72265843D01*
X136857843Y-72161186D01*
X136857843Y-71837500D01*
X136845923Y-71716477D01*
X136810622Y-71600105D01*
X136753296Y-71492856D01*
X136676149Y-71398851D01*
X136582144Y-71321704D01*
X136581000Y-71321093D01*
X136581000Y-70972030D01*
X136720970Y-70878505D01*
X136878505Y-70720970D01*
X137002279Y-70535729D01*
X137087536Y-70329900D01*
X137131000Y-70111394D01*
X137131000Y-69888606D01*
X137087536Y-69670100D01*
X137002279Y-69464271D01*
X136878505Y-69279030D01*
X136720970Y-69121495D01*
X136535729Y-68997721D01*
X136480876Y-68975000D01*
X141717157Y-68975000D01*
X141724513Y-69049689D01*
X141746299Y-69121508D01*
X141781678Y-69187696D01*
X141829289Y-69245711D01*
X141887304Y-69293322D01*
X141953492Y-69328701D01*
X142025311Y-69350487D01*
X142100000Y-69357843D01*
X142402750Y-69356000D01*
X142498000Y-69260750D01*
X142498000Y-68627000D01*
X141814250Y-68627000D01*
X141719000Y-68722250D01*
X141717157Y-68975000D01*
X136480876Y-68975000D01*
X136329900Y-68912464D01*
X136111394Y-68869000D01*
X135888606Y-68869000D01*
X135670100Y-68912464D01*
X135464271Y-68997721D01*
X135279030Y-69121495D01*
X135121495Y-69279030D01*
X135056465Y-69376354D01*
X135057843Y-69150000D01*
X135050487Y-69075311D01*
X135028701Y-69003492D01*
X134993322Y-68937304D01*
X134945711Y-68879289D01*
X134887696Y-68831678D01*
X134821508Y-68796299D01*
X134749689Y-68774513D01*
X134704082Y-68770021D01*
X134782144Y-68728296D01*
X134876149Y-68651149D01*
X134953296Y-68557144D01*
X135010622Y-68449895D01*
X135045923Y-68333523D01*
X135057843Y-68212500D01*
X135057843Y-68025000D01*
X141717157Y-68025000D01*
X141719000Y-68277750D01*
X141814250Y-68373000D01*
X142498000Y-68373000D01*
X142498000Y-67739250D01*
X142402750Y-67644000D01*
X142100000Y-67642157D01*
X142025311Y-67649513D01*
X141953492Y-67671299D01*
X141887304Y-67706678D01*
X141829289Y-67754289D01*
X141781678Y-67812304D01*
X141746299Y-67878492D01*
X141724513Y-67950311D01*
X141717157Y-68025000D01*
X135057843Y-68025000D01*
X135057843Y-67954500D01*
X135936069Y-67076275D01*
X135987304Y-67118322D01*
X136053492Y-67153701D01*
X136125311Y-67175487D01*
X136200000Y-67182843D01*
X137800000Y-67182843D01*
X137874689Y-67175487D01*
X137946508Y-67153701D01*
X138012696Y-67118322D01*
X138070711Y-67070711D01*
X138118322Y-67012696D01*
X138138471Y-66975000D01*
X141717157Y-66975000D01*
X141724513Y-67049689D01*
X141746299Y-67121508D01*
X141781678Y-67187696D01*
X141829289Y-67245711D01*
X141887304Y-67293322D01*
X141953492Y-67328701D01*
X142025311Y-67350487D01*
X142100000Y-67357843D01*
X142402750Y-67356000D01*
X142498000Y-67260750D01*
X142498000Y-66627000D01*
X141814250Y-66627000D01*
X141719000Y-66722250D01*
X141717157Y-66975000D01*
X138138471Y-66975000D01*
X138153701Y-66946508D01*
X138175487Y-66874689D01*
X138182843Y-66800000D01*
X138182843Y-66025000D01*
X141717157Y-66025000D01*
X141719000Y-66277750D01*
X141814250Y-66373000D01*
X142498000Y-66373000D01*
X142498000Y-65739250D01*
X142402750Y-65644000D01*
X142100000Y-65642157D01*
X142025311Y-65649513D01*
X141953492Y-65671299D01*
X141887304Y-65706678D01*
X141829289Y-65754289D01*
X141781678Y-65812304D01*
X141746299Y-65878492D01*
X141724513Y-65950311D01*
X141717157Y-66025000D01*
X138182843Y-66025000D01*
X138182843Y-65200000D01*
X138175487Y-65125311D01*
X138153701Y-65053492D01*
X138118322Y-64987304D01*
X138070711Y-64929289D01*
X138012696Y-64881678D01*
X137946508Y-64846299D01*
X137874689Y-64824513D01*
X137800000Y-64817157D01*
X136200000Y-64817157D01*
X136125311Y-64824513D01*
X136053492Y-64846299D01*
X135987304Y-64881678D01*
X135929289Y-64929289D01*
X135881678Y-64987304D01*
X135864736Y-65019000D01*
X135673186Y-65019000D01*
X135625000Y-65014254D01*
X135576813Y-65019000D01*
X135432690Y-65033195D01*
X135247771Y-65089289D01*
X135077349Y-65180382D01*
X134927972Y-65302972D01*
X134897255Y-65340401D01*
X133093657Y-67144000D01*
X132666266Y-67144000D01*
X132642798Y-67066637D01*
X132528491Y-66852784D01*
X132374660Y-66665340D01*
X132187216Y-66511509D01*
X131973363Y-66397202D01*
X131741318Y-66326812D01*
X131560472Y-66309000D01*
X131439528Y-66309000D01*
X131258682Y-66326812D01*
X131026637Y-66397202D01*
X130812784Y-66511509D01*
X130696532Y-66606914D01*
X130622772Y-66629289D01*
X130452350Y-66720382D01*
X130302973Y-66842973D01*
X130180382Y-66992350D01*
X130089289Y-67162772D01*
X130033195Y-67347691D01*
X130014254Y-67540000D01*
X130033195Y-67732309D01*
X130089289Y-67917228D01*
X130180382Y-68087650D01*
X130272255Y-68199598D01*
X130857250Y-68784593D01*
X130887972Y-68822028D01*
X131027860Y-68936831D01*
X131026637Y-68937202D01*
X130812784Y-69051509D01*
X130625340Y-69205340D01*
X130471509Y-69392784D01*
X130357202Y-69606637D01*
X130286812Y-69838682D01*
X130263044Y-70080000D01*
X130286812Y-70321318D01*
X130357202Y-70553363D01*
X130471509Y-70767216D01*
X130625340Y-70954660D01*
X130812784Y-71108491D01*
X131026637Y-71222798D01*
X131258682Y-71293188D01*
X131439528Y-71311000D01*
X131560472Y-71311000D01*
X131741318Y-71293188D01*
X131856569Y-71258227D01*
X131959355Y-71361013D01*
X132201913Y-71603570D01*
X132187216Y-71591509D01*
X131973363Y-71477202D01*
X131741318Y-71406812D01*
X131560472Y-71389000D01*
X131439528Y-71389000D01*
X131258682Y-71406812D01*
X131026637Y-71477202D01*
X130812784Y-71591509D01*
X130625340Y-71745340D01*
X130471509Y-71932784D01*
X130357202Y-72146637D01*
X130286812Y-72378682D01*
X130263044Y-72620000D01*
X130286812Y-72861318D01*
X130357202Y-73093363D01*
X130471509Y-73307216D01*
X130625340Y-73494660D01*
X130812784Y-73648491D01*
X131026637Y-73762798D01*
X131258682Y-73833188D01*
X131439528Y-73851000D01*
X131560472Y-73851000D01*
X131741318Y-73833188D01*
X131856570Y-73798227D01*
X132201913Y-74143571D01*
X132187216Y-74131509D01*
X131973363Y-74017202D01*
X131741318Y-73946812D01*
X131560472Y-73929000D01*
X131439528Y-73929000D01*
X131258682Y-73946812D01*
X131026637Y-74017202D01*
X130812784Y-74131509D01*
X130625340Y-74285340D01*
X130471509Y-74472784D01*
X130357202Y-74686637D01*
X130286812Y-74918682D01*
X130263044Y-75160000D01*
X130286812Y-75401318D01*
X130357202Y-75633363D01*
X130471509Y-75847216D01*
X130625340Y-76034660D01*
X130812784Y-76188491D01*
X131026637Y-76302798D01*
X131258682Y-76373188D01*
X131439528Y-76391000D01*
X131560472Y-76391000D01*
X131741318Y-76373188D01*
X131856570Y-76338227D01*
X132201913Y-76683570D01*
X132187216Y-76671509D01*
X131973363Y-76557202D01*
X131741318Y-76486812D01*
X131560472Y-76469000D01*
X131439528Y-76469000D01*
X131258682Y-76486812D01*
X131026637Y-76557202D01*
X130812784Y-76671509D01*
X130625340Y-76825340D01*
X130471509Y-77012784D01*
X130357202Y-77226637D01*
X130286812Y-77458682D01*
X130263044Y-77700000D01*
X130286812Y-77941318D01*
X130357202Y-78173363D01*
X130471509Y-78387216D01*
X130625340Y-78574660D01*
X130812784Y-78728491D01*
X131026637Y-78842798D01*
X131258682Y-78913188D01*
X131439528Y-78931000D01*
X131560472Y-78931000D01*
X131741318Y-78913188D01*
X131856569Y-78878227D01*
X131959350Y-78981008D01*
X131959355Y-78981012D01*
X132201912Y-79223570D01*
X132187216Y-79211509D01*
X131973363Y-79097202D01*
X131741318Y-79026812D01*
X131560472Y-79009000D01*
X131439528Y-79009000D01*
X131258682Y-79026812D01*
X131026637Y-79097202D01*
X130812784Y-79211509D01*
X130625340Y-79365340D01*
X130471509Y-79552784D01*
X130357202Y-79766637D01*
X130286812Y-79998682D01*
X130263044Y-80240000D01*
X130286812Y-80481318D01*
X130357202Y-80713363D01*
X130471509Y-80927216D01*
X130625340Y-81114660D01*
X130812784Y-81268491D01*
X131026637Y-81382798D01*
X131258682Y-81453188D01*
X131439528Y-81471000D01*
X131560472Y-81471000D01*
X131741318Y-81453188D01*
X131856570Y-81418227D01*
X132201913Y-81763570D01*
X132187216Y-81751509D01*
X131973363Y-81637202D01*
X131741318Y-81566812D01*
X131560472Y-81549000D01*
X131439528Y-81549000D01*
X131258682Y-81566812D01*
X131026637Y-81637202D01*
X130812784Y-81751509D01*
X130625340Y-81905340D01*
X130471509Y-82092784D01*
X130357202Y-82306637D01*
X130286812Y-82538682D01*
X130263044Y-82780000D01*
X130286812Y-83021318D01*
X130357202Y-83253363D01*
X130471509Y-83467216D01*
X130625340Y-83654660D01*
X130812784Y-83808491D01*
X131026637Y-83922798D01*
X131258682Y-83993188D01*
X131439528Y-84011000D01*
X131560472Y-84011000D01*
X131741318Y-83993188D01*
X131973363Y-83922798D01*
X132187216Y-83808491D01*
X132374660Y-83654660D01*
X132528491Y-83467216D01*
X132585265Y-83361000D01*
X132639341Y-83361000D01*
X132718982Y-83440641D01*
X132737182Y-83462818D01*
X132825651Y-83535422D01*
X132926584Y-83589372D01*
X133036103Y-83622594D01*
X133149998Y-83633812D01*
X133178538Y-83631001D01*
X144059344Y-83631001D01*
X144568987Y-84140645D01*
X144587183Y-84162817D01*
X144675652Y-84235421D01*
X144776585Y-84289371D01*
X144886104Y-84322593D01*
X144999999Y-84333811D01*
X145028539Y-84331000D01*
X148721460Y-84331000D01*
X148750000Y-84333811D01*
X148778540Y-84331000D01*
X148863896Y-84322593D01*
X148973415Y-84289371D01*
X149074348Y-84235421D01*
X149162817Y-84162817D01*
X149181017Y-84140640D01*
X150224677Y-83096980D01*
X158310511Y-83096980D01*
X158334866Y-83177288D01*
X158434761Y-83396961D01*
X158575592Y-83592924D01*
X158751948Y-83757647D01*
X158957051Y-83884799D01*
X159183019Y-83969495D01*
X159373000Y-83909187D01*
X159373000Y-82907000D01*
X159627000Y-82907000D01*
X159627000Y-83909187D01*
X159816981Y-83969495D01*
X160042949Y-83884799D01*
X160248052Y-83757647D01*
X160424408Y-83592924D01*
X160565239Y-83396961D01*
X160665134Y-83177288D01*
X160689489Y-83096980D01*
X160628627Y-82907000D01*
X159627000Y-82907000D01*
X159373000Y-82907000D01*
X158371373Y-82907000D01*
X158310511Y-83096980D01*
X150224677Y-83096980D01*
X150315658Y-83006000D01*
X152086071Y-83006000D01*
X152150311Y-83025487D01*
X152225000Y-83032843D01*
X153675000Y-83032843D01*
X153749689Y-83025487D01*
X153821508Y-83003701D01*
X153887696Y-82968322D01*
X153945711Y-82920711D01*
X153993322Y-82862696D01*
X154028701Y-82796508D01*
X154050487Y-82724689D01*
X154057843Y-82650000D01*
X154057843Y-82463020D01*
X158310511Y-82463020D01*
X158371373Y-82653000D01*
X159373000Y-82653000D01*
X159373000Y-81650813D01*
X159627000Y-81650813D01*
X159627000Y-82653000D01*
X160628627Y-82653000D01*
X160689489Y-82463020D01*
X160665134Y-82382712D01*
X160565239Y-82163039D01*
X160424408Y-81967076D01*
X160248052Y-81802353D01*
X160042949Y-81675201D01*
X159816981Y-81590505D01*
X159627000Y-81650813D01*
X159373000Y-81650813D01*
X159183019Y-81590505D01*
X158957051Y-81675201D01*
X158751948Y-81802353D01*
X158575592Y-81967076D01*
X158434761Y-82163039D01*
X158334866Y-82382712D01*
X158310511Y-82463020D01*
X154057843Y-82463020D01*
X154057843Y-82356000D01*
X156796460Y-82356000D01*
X156825000Y-82358811D01*
X156853540Y-82356000D01*
X156938896Y-82347593D01*
X157048415Y-82314371D01*
X157149348Y-82260421D01*
X157237817Y-82187817D01*
X157256017Y-82165640D01*
X158481846Y-80939812D01*
X158625340Y-81114660D01*
X158812784Y-81268491D01*
X159026637Y-81382798D01*
X159258682Y-81453188D01*
X159439528Y-81471000D01*
X159560472Y-81471000D01*
X159741318Y-81453188D01*
X159973363Y-81382798D01*
X160187216Y-81268491D01*
X160374660Y-81114660D01*
X160528491Y-80927216D01*
X160642798Y-80713363D01*
X160713188Y-80481318D01*
X160736956Y-80240000D01*
X160713188Y-79998682D01*
X160642798Y-79766637D01*
X160528491Y-79552784D01*
X160374660Y-79365340D01*
X160187216Y-79211509D01*
X159973363Y-79097202D01*
X159741318Y-79026812D01*
X159560472Y-79009000D01*
X159439528Y-79009000D01*
X159258682Y-79026812D01*
X159026637Y-79097202D01*
X158812784Y-79211509D01*
X158798088Y-79223570D01*
X159143431Y-78878227D01*
X159258682Y-78913188D01*
X159439528Y-78931000D01*
X159560472Y-78931000D01*
X159741318Y-78913188D01*
X159973363Y-78842798D01*
X160187216Y-78728491D01*
X160374660Y-78574660D01*
X160528491Y-78387216D01*
X160642798Y-78173363D01*
X160713188Y-77941318D01*
X160736956Y-77700000D01*
X160713188Y-77458682D01*
X160642798Y-77226637D01*
X160528491Y-77012784D01*
X160374660Y-76825340D01*
X160187216Y-76671509D01*
X159973363Y-76557202D01*
X159741318Y-76486812D01*
X159560472Y-76469000D01*
X159439528Y-76469000D01*
X159258682Y-76486812D01*
X159026637Y-76557202D01*
X158856748Y-76648010D01*
X158856748Y-76624909D01*
X159143430Y-76338227D01*
X159258682Y-76373188D01*
X159439528Y-76391000D01*
X159560472Y-76391000D01*
X159741318Y-76373188D01*
X159973363Y-76302798D01*
X160187216Y-76188491D01*
X160374660Y-76034660D01*
X160528491Y-75847216D01*
X160642798Y-75633363D01*
X160713188Y-75401318D01*
X160736956Y-75160000D01*
X160713188Y-74918682D01*
X160642798Y-74686637D01*
X160528491Y-74472784D01*
X160374660Y-74285340D01*
X160187216Y-74131509D01*
X159973363Y-74017202D01*
X159741318Y-73946812D01*
X159560472Y-73929000D01*
X159439528Y-73929000D01*
X159258682Y-73946812D01*
X159026637Y-74017202D01*
X158812784Y-74131509D01*
X158798086Y-74143571D01*
X159143431Y-73798227D01*
X159258682Y-73833188D01*
X159439528Y-73851000D01*
X159560472Y-73851000D01*
X159741318Y-73833188D01*
X159973363Y-73762798D01*
X160187216Y-73648491D01*
X160374660Y-73494660D01*
X160528491Y-73307216D01*
X160642798Y-73093363D01*
X160713188Y-72861318D01*
X160736956Y-72620000D01*
X160713188Y-72378682D01*
X160642798Y-72146637D01*
X160528491Y-71932784D01*
X160374660Y-71745340D01*
X160187216Y-71591509D01*
X159973363Y-71477202D01*
X159741318Y-71406812D01*
X159560472Y-71389000D01*
X159439528Y-71389000D01*
X159258682Y-71406812D01*
X159026637Y-71477202D01*
X158812784Y-71591509D01*
X158798087Y-71603570D01*
X159143431Y-71258227D01*
X159258682Y-71293188D01*
X159439528Y-71311000D01*
X159560472Y-71311000D01*
X159741318Y-71293188D01*
X159973363Y-71222798D01*
X160187216Y-71108491D01*
X160374660Y-70954660D01*
X160528491Y-70767216D01*
X160642798Y-70553363D01*
X160713188Y-70321318D01*
X160736956Y-70080000D01*
X160713188Y-69838682D01*
X160642798Y-69606637D01*
X160528491Y-69392784D01*
X160374660Y-69205340D01*
X160187216Y-69051509D01*
X159973363Y-68937202D01*
X159741318Y-68866812D01*
X159560472Y-68849000D01*
X159439528Y-68849000D01*
X159258682Y-68866812D01*
X159026637Y-68937202D01*
X158812784Y-69051509D01*
X158625340Y-69205340D01*
X158471509Y-69392784D01*
X158357202Y-69606637D01*
X158286812Y-69838682D01*
X158263044Y-70080000D01*
X158286812Y-70321318D01*
X158321773Y-70436569D01*
X156685085Y-72073258D01*
X156662913Y-72091454D01*
X156644720Y-72113623D01*
X156590308Y-72179924D01*
X156536358Y-72280857D01*
X156503136Y-72390376D01*
X156491918Y-72504271D01*
X156494730Y-72532821D01*
X156494729Y-75835071D01*
X155744290Y-76585510D01*
X155692092Y-76459494D01*
X155606621Y-76331577D01*
X155497838Y-76222794D01*
X155369921Y-76137323D01*
X155227788Y-76078449D01*
X155076901Y-76048436D01*
X154971736Y-76048436D01*
X155000990Y-75977812D01*
X155031003Y-75826925D01*
X155031003Y-75673081D01*
X155000990Y-75522194D01*
X154942116Y-75380061D01*
X154856645Y-75252144D01*
X154747862Y-75143361D01*
X154619945Y-75057890D01*
X154477812Y-74999016D01*
X154326925Y-74969003D01*
X154173081Y-74969003D01*
X154022194Y-74999016D01*
X153880061Y-75057890D01*
X153752144Y-75143361D01*
X153643361Y-75252144D01*
X153557890Y-75380061D01*
X153499016Y-75522194D01*
X153469003Y-75673081D01*
X153469003Y-75734339D01*
X153236186Y-75967157D01*
X152225000Y-75967157D01*
X152150311Y-75974513D01*
X152078492Y-75996299D01*
X152012304Y-76031678D01*
X151954289Y-76079289D01*
X151906678Y-76137304D01*
X151871299Y-76203492D01*
X151849513Y-76275311D01*
X151842157Y-76350000D01*
X151842157Y-76800000D01*
X151849513Y-76874689D01*
X151857191Y-76900000D01*
X151849513Y-76925311D01*
X151842157Y-77000000D01*
X151842157Y-77450000D01*
X151849513Y-77524689D01*
X151857191Y-77550000D01*
X151849513Y-77575311D01*
X151842157Y-77650000D01*
X151842157Y-78087656D01*
X151281000Y-77526500D01*
X151281000Y-74609312D01*
X151303296Y-74582144D01*
X151345021Y-74504082D01*
X151349513Y-74549689D01*
X151371299Y-74621508D01*
X151406678Y-74687696D01*
X151454289Y-74745711D01*
X151512304Y-74793322D01*
X151578492Y-74828701D01*
X151650311Y-74850487D01*
X151725000Y-74857843D01*
X152027750Y-74856000D01*
X152123000Y-74760750D01*
X152123000Y-74127000D01*
X152377000Y-74127000D01*
X152377000Y-74760750D01*
X152472250Y-74856000D01*
X152775000Y-74857843D01*
X152849689Y-74850487D01*
X152921508Y-74828701D01*
X152987696Y-74793322D01*
X153045711Y-74745711D01*
X153093322Y-74687696D01*
X153128701Y-74621508D01*
X153150487Y-74549689D01*
X153157843Y-74475000D01*
X153156000Y-74222250D01*
X153060750Y-74127000D01*
X152377000Y-74127000D01*
X152123000Y-74127000D01*
X152103000Y-74127000D01*
X152103000Y-73873000D01*
X152123000Y-73873000D01*
X152123000Y-73239250D01*
X152377000Y-73239250D01*
X152377000Y-73873000D01*
X153060750Y-73873000D01*
X153156000Y-73777750D01*
X153157843Y-73525000D01*
X153150487Y-73450311D01*
X153128701Y-73378492D01*
X153093322Y-73312304D01*
X153045711Y-73254289D01*
X152987696Y-73206678D01*
X152921508Y-73171299D01*
X152849689Y-73149513D01*
X152775000Y-73142157D01*
X152472250Y-73144000D01*
X152377000Y-73239250D01*
X152123000Y-73239250D01*
X152098047Y-73214297D01*
X152331343Y-72981000D01*
X153476814Y-72981000D01*
X153525000Y-72985746D01*
X153573186Y-72981000D01*
X153573187Y-72981000D01*
X153717310Y-72966805D01*
X153902229Y-72910711D01*
X154072651Y-72819618D01*
X154222028Y-72697028D01*
X154252750Y-72659593D01*
X155184598Y-71727746D01*
X155222028Y-71697028D01*
X155344618Y-71547651D01*
X155435711Y-71377229D01*
X155491805Y-71192310D01*
X155506000Y-71048187D01*
X155510746Y-71000000D01*
X155506000Y-70951813D01*
X155506000Y-70400000D01*
X155642157Y-70400000D01*
X155649513Y-70474689D01*
X155671299Y-70546508D01*
X155706678Y-70612696D01*
X155754289Y-70670711D01*
X155812304Y-70718322D01*
X155878492Y-70753701D01*
X155950311Y-70775487D01*
X156025000Y-70782843D01*
X156277750Y-70781000D01*
X156373000Y-70685750D01*
X156373000Y-70002000D01*
X156627000Y-70002000D01*
X156627000Y-70685750D01*
X156722250Y-70781000D01*
X156975000Y-70782843D01*
X157049689Y-70775487D01*
X157121508Y-70753701D01*
X157187696Y-70718322D01*
X157245711Y-70670711D01*
X157293322Y-70612696D01*
X157328701Y-70546508D01*
X157350487Y-70474689D01*
X157357843Y-70400000D01*
X157356000Y-70097250D01*
X157260750Y-70002000D01*
X156627000Y-70002000D01*
X156373000Y-70002000D01*
X155739250Y-70002000D01*
X155644000Y-70097250D01*
X155642157Y-70400000D01*
X155506000Y-70400000D01*
X155506000Y-69931343D01*
X155714297Y-69723047D01*
X155739250Y-69748000D01*
X156373000Y-69748000D01*
X156373000Y-69728000D01*
X156627000Y-69728000D01*
X156627000Y-69748000D01*
X157260750Y-69748000D01*
X157356000Y-69652750D01*
X157357843Y-69350000D01*
X157350487Y-69275311D01*
X157328701Y-69203492D01*
X157293322Y-69137304D01*
X157245711Y-69079289D01*
X157187696Y-69031678D01*
X157121508Y-68996299D01*
X157049689Y-68974513D01*
X157004082Y-68970021D01*
X157082144Y-68928296D01*
X157176149Y-68851149D01*
X157244587Y-68767756D01*
X157491343Y-68521000D01*
X158754916Y-68521000D01*
X158812784Y-68568491D01*
X159026637Y-68682798D01*
X159258682Y-68753188D01*
X159439528Y-68771000D01*
X159560472Y-68771000D01*
X159741318Y-68753188D01*
X159973363Y-68682798D01*
X160187216Y-68568491D01*
X160374660Y-68414660D01*
X160528491Y-68227216D01*
X160642798Y-68013363D01*
X160713188Y-67781318D01*
X160736956Y-67540000D01*
X160713188Y-67298682D01*
X160642798Y-67066637D01*
X160528491Y-66852784D01*
X160374660Y-66665340D01*
X160187216Y-66511509D01*
X159973363Y-66397202D01*
X159741318Y-66326812D01*
X159560472Y-66309000D01*
X159439528Y-66309000D01*
X159258682Y-66326812D01*
X159026637Y-66397202D01*
X158812784Y-66511509D01*
X158754916Y-66559000D01*
X157133186Y-66559000D01*
X157085000Y-66554254D01*
X157036813Y-66559000D01*
X156892690Y-66573195D01*
X156707771Y-66629289D01*
X156537349Y-66720382D01*
X156387972Y-66842972D01*
X156357250Y-66880407D01*
X156093657Y-67144000D01*
X155973186Y-67144000D01*
X155925000Y-67139254D01*
X155876813Y-67144000D01*
X155732690Y-67158195D01*
X155547771Y-67214289D01*
X155377349Y-67305382D01*
X155227972Y-67427972D01*
X155197254Y-67465402D01*
X153865407Y-68797250D01*
X153827972Y-68827972D01*
X153705382Y-68977349D01*
X153653020Y-69075311D01*
X153614289Y-69147772D01*
X153558195Y-69332691D01*
X153539254Y-69525000D01*
X153542758Y-69560576D01*
X153515593Y-69489961D01*
X153488315Y-69438927D01*
X153320561Y-69359044D01*
X152679605Y-70000000D01*
X153320561Y-70640956D01*
X153488315Y-70561073D01*
X153544001Y-70435759D01*
X153544001Y-70593656D01*
X153118657Y-71019000D01*
X153001183Y-71019000D01*
X153010039Y-71015593D01*
X153061073Y-70988315D01*
X153140956Y-70820561D01*
X152500000Y-70179605D01*
X151859044Y-70820561D01*
X151938927Y-70988315D01*
X152007980Y-71019000D01*
X151973183Y-71019000D01*
X151924999Y-71014254D01*
X151876815Y-71019000D01*
X151876813Y-71019000D01*
X151732690Y-71033195D01*
X151547771Y-71089289D01*
X151377349Y-71180382D01*
X151227972Y-71302972D01*
X151197250Y-71340407D01*
X149840407Y-72697250D01*
X149802972Y-72727972D01*
X149680382Y-72877349D01*
X149605653Y-73017157D01*
X149604668Y-73019000D01*
X149356000Y-73019000D01*
X149356000Y-72423186D01*
X149360746Y-72374999D01*
X149341805Y-72182690D01*
X149340966Y-72179923D01*
X149285711Y-71997771D01*
X149194618Y-71827349D01*
X149072028Y-71677972D01*
X149034593Y-71647250D01*
X147469906Y-70082563D01*
X151366530Y-70082563D01*
X151404417Y-70302106D01*
X151484407Y-70510039D01*
X151511685Y-70561073D01*
X151679439Y-70640956D01*
X152320395Y-70000000D01*
X151679439Y-69359044D01*
X151511685Y-69438927D01*
X151421215Y-69642519D01*
X151372202Y-69859848D01*
X151366530Y-70082563D01*
X147469906Y-70082563D01*
X147095008Y-69707665D01*
X147087536Y-69670100D01*
X147002279Y-69464271D01*
X146878505Y-69279030D01*
X146778914Y-69179439D01*
X151859044Y-69179439D01*
X152500000Y-69820395D01*
X153140956Y-69179439D01*
X153061073Y-69011685D01*
X152857481Y-68921215D01*
X152640152Y-68872202D01*
X152417437Y-68866530D01*
X152197894Y-68904417D01*
X151989961Y-68984407D01*
X151938927Y-69011685D01*
X151859044Y-69179439D01*
X146778914Y-69179439D01*
X146720970Y-69121495D01*
X146535729Y-68997721D01*
X146329900Y-68912464D01*
X146136296Y-68873953D01*
X145356000Y-68093657D01*
X145356000Y-65531343D01*
X145659588Y-65227754D01*
X145697028Y-65197028D01*
X145819618Y-65047651D01*
X145910711Y-64877229D01*
X145966805Y-64692310D01*
X145981000Y-64548187D01*
X145981000Y-64548185D01*
X145985746Y-64500001D01*
X145981135Y-64453190D01*
X146020711Y-64420711D01*
X146068322Y-64362696D01*
X146103701Y-64296508D01*
X146125487Y-64224689D01*
X146132843Y-64150000D01*
X146132843Y-62150000D01*
X146125487Y-62075311D01*
X146103701Y-62003492D01*
X146068322Y-61937304D01*
X146020711Y-61879289D01*
X145981000Y-61846699D01*
X145981000Y-58232843D01*
X146900000Y-58232843D01*
X146974689Y-58225487D01*
X147046508Y-58203701D01*
X147112696Y-58168322D01*
X147170711Y-58120711D01*
X147218322Y-58062696D01*
X147253701Y-57996508D01*
X147275487Y-57924689D01*
X147282843Y-57850000D01*
X147282843Y-55956000D01*
X149965536Y-55956000D01*
X149727432Y-56054626D01*
X149460298Y-56233119D01*
X149233119Y-56460298D01*
X149054626Y-56727432D01*
X148931678Y-57024255D01*
X148869000Y-57339360D01*
X148869000Y-57660640D01*
X148931678Y-57975745D01*
X149054626Y-58272568D01*
X149233119Y-58539702D01*
X149460298Y-58766881D01*
X149519001Y-58806105D01*
X149519001Y-59826804D01*
X149514254Y-59875000D01*
X149533195Y-60067309D01*
X149589289Y-60252228D01*
X149644000Y-60354585D01*
X149644001Y-61076804D01*
X149639254Y-61125000D01*
X149658195Y-61317309D01*
X149714289Y-61502228D01*
X149805382Y-61672650D01*
X149897255Y-61784598D01*
X149927973Y-61822028D01*
X149965402Y-61852745D01*
X150281657Y-62169000D01*
X148432843Y-62169000D01*
X148432843Y-62150000D01*
X148425487Y-62075311D01*
X148403701Y-62003492D01*
X148368322Y-61937304D01*
X148320711Y-61879289D01*
X148262696Y-61831678D01*
X148196508Y-61796299D01*
X148124689Y-61774513D01*
X148050000Y-61767157D01*
X146550000Y-61767157D01*
X146475311Y-61774513D01*
X146403492Y-61796299D01*
X146337304Y-61831678D01*
X146279289Y-61879289D01*
X146231678Y-61937304D01*
X146196299Y-62003492D01*
X146174513Y-62075311D01*
X146167157Y-62150000D01*
X146167157Y-64150000D01*
X146174513Y-64224689D01*
X146196299Y-64296508D01*
X146231678Y-64362696D01*
X146269000Y-64408174D01*
X146269000Y-64893657D01*
X145965403Y-65197254D01*
X145927973Y-65227972D01*
X145897256Y-65265401D01*
X145897255Y-65265402D01*
X145805382Y-65377350D01*
X145714289Y-65547772D01*
X145658195Y-65732691D01*
X145639254Y-65925000D01*
X145644000Y-65973186D01*
X145644000Y-66548186D01*
X145658195Y-66692309D01*
X145714289Y-66877228D01*
X145761602Y-66965745D01*
X145764378Y-66974895D01*
X145821704Y-67082144D01*
X145898851Y-67176149D01*
X145992856Y-67253296D01*
X146003407Y-67258936D01*
X146077349Y-67319618D01*
X146247771Y-67410711D01*
X146432690Y-67466805D01*
X146625000Y-67485746D01*
X146817309Y-67466805D01*
X147002228Y-67410711D01*
X147172651Y-67319618D01*
X147246593Y-67258936D01*
X147257144Y-67253296D01*
X147351149Y-67176149D01*
X147428296Y-67082144D01*
X147470021Y-67004082D01*
X147474513Y-67049689D01*
X147496299Y-67121508D01*
X147531678Y-67187696D01*
X147579289Y-67245711D01*
X147637304Y-67293322D01*
X147703492Y-67328701D01*
X147775311Y-67350487D01*
X147850000Y-67357843D01*
X148152750Y-67356000D01*
X148248000Y-67260750D01*
X148248000Y-66627000D01*
X148502000Y-66627000D01*
X148502000Y-67260750D01*
X148597250Y-67356000D01*
X148900000Y-67357843D01*
X148974689Y-67350487D01*
X149046508Y-67328701D01*
X149112696Y-67293322D01*
X149170711Y-67245711D01*
X149218322Y-67187696D01*
X149253701Y-67121508D01*
X149275487Y-67049689D01*
X149282843Y-66975000D01*
X149281978Y-66856342D01*
X152323263Y-66856342D01*
X152409218Y-67029207D01*
X152621358Y-67124687D01*
X152848048Y-67176945D01*
X153080578Y-67183975D01*
X153310012Y-67145505D01*
X153527532Y-67063014D01*
X153590782Y-67029207D01*
X153676737Y-66856342D01*
X153000000Y-66179605D01*
X152323263Y-66856342D01*
X149281978Y-66856342D01*
X149281000Y-66722250D01*
X149185750Y-66627000D01*
X148502000Y-66627000D01*
X148248000Y-66627000D01*
X148228000Y-66627000D01*
X148228000Y-66373000D01*
X148248000Y-66373000D01*
X148248000Y-65739250D01*
X148502000Y-65739250D01*
X148502000Y-66373000D01*
X149185750Y-66373000D01*
X149281000Y-66277750D01*
X149282437Y-66080578D01*
X151816025Y-66080578D01*
X151854495Y-66310012D01*
X151936986Y-66527532D01*
X151970793Y-66590782D01*
X152143658Y-66676737D01*
X152820395Y-66000000D01*
X153179605Y-66000000D01*
X153856342Y-66676737D01*
X154029207Y-66590782D01*
X154124687Y-66378642D01*
X154176945Y-66151952D01*
X154183975Y-65919422D01*
X154172335Y-65850000D01*
X158267157Y-65850000D01*
X158274513Y-65924689D01*
X158296299Y-65996508D01*
X158331678Y-66062696D01*
X158379289Y-66120711D01*
X158437304Y-66168322D01*
X158503492Y-66203701D01*
X158575311Y-66225487D01*
X158650000Y-66232843D01*
X159277750Y-66231000D01*
X159373000Y-66135750D01*
X159373000Y-65127000D01*
X159627000Y-65127000D01*
X159627000Y-66135750D01*
X159722250Y-66231000D01*
X160350000Y-66232843D01*
X160424689Y-66225487D01*
X160496508Y-66203701D01*
X160562696Y-66168322D01*
X160620711Y-66120711D01*
X160668322Y-66062696D01*
X160703701Y-65996508D01*
X160725487Y-65924689D01*
X160732843Y-65850000D01*
X160731000Y-65222250D01*
X160635750Y-65127000D01*
X159627000Y-65127000D01*
X159373000Y-65127000D01*
X158364250Y-65127000D01*
X158269000Y-65222250D01*
X158267157Y-65850000D01*
X154172335Y-65850000D01*
X154145505Y-65689988D01*
X154063014Y-65472468D01*
X154029207Y-65409218D01*
X153856342Y-65323263D01*
X153179605Y-66000000D01*
X152820395Y-66000000D01*
X152143658Y-65323263D01*
X151970793Y-65409218D01*
X151875313Y-65621358D01*
X151823055Y-65848048D01*
X151816025Y-66080578D01*
X149282437Y-66080578D01*
X149282843Y-66025000D01*
X149275487Y-65950311D01*
X149253701Y-65878492D01*
X149218322Y-65812304D01*
X149170711Y-65754289D01*
X149112696Y-65706678D01*
X149046508Y-65671299D01*
X148974689Y-65649513D01*
X148900000Y-65642157D01*
X148597250Y-65644000D01*
X148502000Y-65739250D01*
X148248000Y-65739250D01*
X148166592Y-65657842D01*
X148216805Y-65492310D01*
X148231000Y-65348187D01*
X148231000Y-65348185D01*
X148235746Y-65300001D01*
X148231000Y-65251817D01*
X148231000Y-65143658D01*
X152323263Y-65143658D01*
X153000000Y-65820395D01*
X153676737Y-65143658D01*
X153590782Y-64970793D01*
X153378642Y-64875313D01*
X153151952Y-64823055D01*
X152919422Y-64816025D01*
X152689988Y-64854495D01*
X152472468Y-64936986D01*
X152409218Y-64970793D01*
X152323263Y-65143658D01*
X148231000Y-65143658D01*
X148231000Y-64485264D01*
X148262696Y-64468322D01*
X148320711Y-64420711D01*
X148368322Y-64362696D01*
X148403701Y-64296508D01*
X148425487Y-64224689D01*
X148432843Y-64150000D01*
X148432843Y-64131000D01*
X151817157Y-64131000D01*
X151817157Y-64300000D01*
X151824513Y-64374689D01*
X151846299Y-64446508D01*
X151881678Y-64512696D01*
X151929289Y-64570711D01*
X151987304Y-64618322D01*
X152053492Y-64653701D01*
X152125311Y-64675487D01*
X152200000Y-64682843D01*
X153800000Y-64682843D01*
X153874689Y-64675487D01*
X153946508Y-64653701D01*
X154012696Y-64618322D01*
X154070711Y-64570711D01*
X154118322Y-64512696D01*
X154153701Y-64446508D01*
X154175487Y-64374689D01*
X154182843Y-64300000D01*
X154182843Y-64150000D01*
X158267157Y-64150000D01*
X158269000Y-64777750D01*
X158364250Y-64873000D01*
X159373000Y-64873000D01*
X159373000Y-63864250D01*
X159627000Y-63864250D01*
X159627000Y-64873000D01*
X160635750Y-64873000D01*
X160731000Y-64777750D01*
X160732843Y-64150000D01*
X160725487Y-64075311D01*
X160703701Y-64003492D01*
X160668322Y-63937304D01*
X160620711Y-63879289D01*
X160562696Y-63831678D01*
X160496508Y-63796299D01*
X160424689Y-63774513D01*
X160350000Y-63767157D01*
X159722250Y-63769000D01*
X159627000Y-63864250D01*
X159373000Y-63864250D01*
X159277750Y-63769000D01*
X158650000Y-63767157D01*
X158575311Y-63774513D01*
X158503492Y-63796299D01*
X158437304Y-63831678D01*
X158379289Y-63879289D01*
X158331678Y-63937304D01*
X158296299Y-64003492D01*
X158274513Y-64075311D01*
X158267157Y-64150000D01*
X154182843Y-64150000D01*
X154182843Y-62700000D01*
X154175487Y-62625311D01*
X154153701Y-62553492D01*
X154118322Y-62487304D01*
X154070711Y-62429289D01*
X154012696Y-62381678D01*
X153946508Y-62346299D01*
X153874689Y-62324513D01*
X153800000Y-62317157D01*
X153204500Y-62317157D01*
X151606000Y-60718657D01*
X151606000Y-60623934D01*
X151648851Y-60676149D01*
X151742856Y-60753296D01*
X151753407Y-60758936D01*
X151827349Y-60819618D01*
X151997771Y-60910711D01*
X152182690Y-60966805D01*
X152375000Y-60985746D01*
X152567309Y-60966805D01*
X152752228Y-60910711D01*
X152922651Y-60819618D01*
X152996593Y-60758936D01*
X153007144Y-60753296D01*
X153101149Y-60676149D01*
X153178296Y-60582144D01*
X153235622Y-60474895D01*
X153238397Y-60465746D01*
X153285711Y-60377229D01*
X153341805Y-60192310D01*
X153356000Y-60048187D01*
X153356000Y-60031343D01*
X153792335Y-59595008D01*
X153829900Y-59587536D01*
X153873000Y-59569683D01*
X153873000Y-61000000D01*
X153875440Y-61024776D01*
X153882667Y-61048601D01*
X153894403Y-61070557D01*
X153910197Y-61089803D01*
X155910197Y-63089803D01*
X155929443Y-63105597D01*
X155951399Y-63117333D01*
X155975224Y-63124560D01*
X156000000Y-63127000D01*
X161044001Y-63127000D01*
X161044000Y-89873000D01*
X156948658Y-89873000D01*
X157390645Y-89431013D01*
X157412817Y-89412817D01*
X157485421Y-89324348D01*
X157539371Y-89223415D01*
X157572593Y-89113896D01*
X157581000Y-89028540D01*
X157583811Y-89000000D01*
X157581000Y-88971460D01*
X157581000Y-88060657D01*
X158483571Y-87158087D01*
X158471509Y-87172784D01*
X158357202Y-87386637D01*
X158286812Y-87618682D01*
X158263044Y-87860000D01*
X158286812Y-88101318D01*
X158357202Y-88333363D01*
X158471509Y-88547216D01*
X158625340Y-88734660D01*
X158812784Y-88888491D01*
X159026637Y-89002798D01*
X159258682Y-89073188D01*
X159439528Y-89091000D01*
X159560472Y-89091000D01*
X159741318Y-89073188D01*
X159973363Y-89002798D01*
X160187216Y-88888491D01*
X160374660Y-88734660D01*
X160528491Y-88547216D01*
X160642798Y-88333363D01*
X160713188Y-88101318D01*
X160736956Y-87860000D01*
X160713188Y-87618682D01*
X160642798Y-87386637D01*
X160528491Y-87172784D01*
X160374660Y-86985340D01*
X160187216Y-86831509D01*
X159973363Y-86717202D01*
X159741318Y-86646812D01*
X159560472Y-86629000D01*
X159439528Y-86629000D01*
X159258682Y-86646812D01*
X159026637Y-86717202D01*
X158812784Y-86831509D01*
X158798087Y-86843570D01*
X159143431Y-86498227D01*
X159258682Y-86533188D01*
X159439528Y-86551000D01*
X159560472Y-86551000D01*
X159741318Y-86533188D01*
X159973363Y-86462798D01*
X160187216Y-86348491D01*
X160374660Y-86194660D01*
X160528491Y-86007216D01*
X160642798Y-85793363D01*
X160713188Y-85561318D01*
X160736956Y-85320000D01*
X160713188Y-85078682D01*
X160642798Y-84846637D01*
X160528491Y-84632784D01*
X160374660Y-84445340D01*
X160187216Y-84291509D01*
X159973363Y-84177202D01*
X159741318Y-84106812D01*
X159560472Y-84089000D01*
X159439528Y-84089000D01*
X159258682Y-84106812D01*
X159026637Y-84177202D01*
X158812784Y-84291509D01*
X158625340Y-84445340D01*
X158471509Y-84632784D01*
X158357202Y-84846637D01*
X158286812Y-85078682D01*
X158263044Y-85320000D01*
X158286812Y-85561318D01*
X158321773Y-85676569D01*
X156609360Y-87388983D01*
X156587183Y-87407183D01*
X156521530Y-87487183D01*
X156514579Y-87495653D01*
X156460629Y-87596586D01*
X156427407Y-87706105D01*
X156416189Y-87820000D01*
X156419000Y-87848540D01*
X156419001Y-88759341D01*
X149759343Y-95419000D01*
X141990658Y-95419000D01*
X141804501Y-95232843D01*
X141850000Y-95232843D01*
X141924689Y-95225487D01*
X141996508Y-95203701D01*
X142062696Y-95168322D01*
X142120711Y-95120711D01*
X142168322Y-95062696D01*
X142203701Y-94996508D01*
X142225487Y-94924689D01*
X142232843Y-94850000D01*
X142232843Y-94000000D01*
X142303044Y-94000000D01*
X142326812Y-94241318D01*
X142397202Y-94473363D01*
X142511509Y-94687216D01*
X142665340Y-94874660D01*
X142852784Y-95028491D01*
X143066637Y-95142798D01*
X143298682Y-95213188D01*
X143479528Y-95231000D01*
X143600472Y-95231000D01*
X143781318Y-95213188D01*
X144013363Y-95142798D01*
X144227216Y-95028491D01*
X144414660Y-94874660D01*
X144568491Y-94687216D01*
X144682798Y-94473363D01*
X144730235Y-94316981D01*
X144890505Y-94316981D01*
X144975201Y-94542949D01*
X145102353Y-94748052D01*
X145267076Y-94924408D01*
X145463039Y-95065239D01*
X145682712Y-95165134D01*
X145763020Y-95189489D01*
X145953000Y-95128627D01*
X145953000Y-94127000D01*
X146207000Y-94127000D01*
X146207000Y-95128627D01*
X146396980Y-95189489D01*
X146477288Y-95165134D01*
X146696961Y-95065239D01*
X146892924Y-94924408D01*
X147057647Y-94748052D01*
X147184799Y-94542949D01*
X147269495Y-94316981D01*
X147209187Y-94127000D01*
X146207000Y-94127000D01*
X145953000Y-94127000D01*
X144950813Y-94127000D01*
X144890505Y-94316981D01*
X144730235Y-94316981D01*
X144753188Y-94241318D01*
X144776956Y-94000000D01*
X144753188Y-93758682D01*
X144718227Y-93643431D01*
X145090353Y-93271305D01*
X144975201Y-93457051D01*
X144890505Y-93683019D01*
X144950813Y-93873000D01*
X145953000Y-93873000D01*
X145953000Y-93853000D01*
X146207000Y-93853000D01*
X146207000Y-93873000D01*
X147209187Y-93873000D01*
X147269495Y-93683019D01*
X147184799Y-93457051D01*
X147057647Y-93251948D01*
X146897975Y-93081000D01*
X147799369Y-93081000D01*
X147745340Y-93125340D01*
X147591509Y-93312784D01*
X147477202Y-93526637D01*
X147406812Y-93758682D01*
X147383044Y-94000000D01*
X147406812Y-94241318D01*
X147477202Y-94473363D01*
X147591509Y-94687216D01*
X147745340Y-94874660D01*
X147932784Y-95028491D01*
X148146637Y-95142798D01*
X148378682Y-95213188D01*
X148559528Y-95231000D01*
X148680472Y-95231000D01*
X148861318Y-95213188D01*
X149093363Y-95142798D01*
X149307216Y-95028491D01*
X149494660Y-94874660D01*
X149648491Y-94687216D01*
X149762798Y-94473363D01*
X149833188Y-94241318D01*
X149856956Y-94000000D01*
X149833188Y-93758682D01*
X149798227Y-93643430D01*
X155049612Y-88392046D01*
X155076901Y-88392046D01*
X155227788Y-88362033D01*
X155369921Y-88303159D01*
X155497838Y-88217688D01*
X155606621Y-88108905D01*
X155692092Y-87980988D01*
X155750966Y-87838855D01*
X155780979Y-87687968D01*
X155780979Y-87534124D01*
X155750966Y-87383237D01*
X155692092Y-87241104D01*
X155606621Y-87113187D01*
X155497838Y-87004404D01*
X155369921Y-86918933D01*
X155227788Y-86860059D01*
X155076901Y-86830046D01*
X154923057Y-86830046D01*
X154772170Y-86860059D01*
X154768747Y-86861477D01*
X154750987Y-86772191D01*
X154692113Y-86630058D01*
X154606642Y-86502141D01*
X154497859Y-86393358D01*
X154369942Y-86307887D01*
X154227809Y-86249013D01*
X154076922Y-86219000D01*
X153923078Y-86219000D01*
X153772191Y-86249013D01*
X153630058Y-86307887D01*
X153502141Y-86393358D01*
X153393358Y-86502141D01*
X153307887Y-86630058D01*
X153249013Y-86772191D01*
X153219000Y-86923078D01*
X153219000Y-86959343D01*
X153209356Y-86968987D01*
X153187185Y-86987182D01*
X153137743Y-87047428D01*
X153114580Y-87075652D01*
X153111909Y-87080650D01*
X153060630Y-87176584D01*
X153029069Y-87280629D01*
X153027408Y-87286104D01*
X153016190Y-87399999D01*
X153019001Y-87428539D01*
X153019001Y-87659340D01*
X148759343Y-91919000D01*
X145068536Y-91919000D01*
X145039999Y-91916189D01*
X145011462Y-91919000D01*
X145011460Y-91919000D01*
X144926104Y-91927407D01*
X144816585Y-91960629D01*
X144715652Y-92014579D01*
X144627183Y-92087183D01*
X144608990Y-92109352D01*
X143896569Y-92821773D01*
X143781318Y-92786812D01*
X143600472Y-92769000D01*
X143479528Y-92769000D01*
X143298682Y-92786812D01*
X143066637Y-92857202D01*
X142852784Y-92971509D01*
X142665340Y-93125340D01*
X142511509Y-93312784D01*
X142397202Y-93526637D01*
X142326812Y-93758682D01*
X142303044Y-94000000D01*
X142232843Y-94000000D01*
X142232843Y-93150000D01*
X142225487Y-93075311D01*
X142203701Y-93003492D01*
X142168322Y-92937304D01*
X142120711Y-92879289D01*
X142062696Y-92831678D01*
X141996508Y-92796299D01*
X141924689Y-92774513D01*
X141850000Y-92767157D01*
X140150000Y-92767157D01*
X140075311Y-92774513D01*
X140003492Y-92796299D01*
X139937304Y-92831678D01*
X139879289Y-92879289D01*
X139831678Y-92937304D01*
X139796299Y-93003492D01*
X139774513Y-93075311D01*
X139767157Y-93150000D01*
X139767157Y-94850000D01*
X139774513Y-94924689D01*
X139796299Y-94996508D01*
X139831678Y-95062696D01*
X139879289Y-95120711D01*
X139937304Y-95168322D01*
X140003492Y-95203701D01*
X140075311Y-95225487D01*
X140150000Y-95232843D01*
X140417879Y-95232843D01*
X140416189Y-95250000D01*
X140419000Y-95278539D01*
X140427407Y-95363895D01*
X140460629Y-95473414D01*
X140514579Y-95574347D01*
X140587183Y-95662817D01*
X140609360Y-95681017D01*
X141318987Y-96390645D01*
X141337183Y-96412817D01*
X141425652Y-96485421D01*
X141511231Y-96531164D01*
X141526585Y-96539371D01*
X141636104Y-96572593D01*
X141749999Y-96583811D01*
X141778539Y-96581000D01*
X149971460Y-96581000D01*
X150000000Y-96583811D01*
X150028540Y-96581000D01*
X150113896Y-96572593D01*
X150223415Y-96539371D01*
X150324348Y-96485421D01*
X150412817Y-96412817D01*
X150431017Y-96390640D01*
X153873000Y-92948657D01*
X153873000Y-97044000D01*
X137127000Y-97044000D01*
X137127000Y-92000000D01*
X137124560Y-91975224D01*
X137117333Y-91951399D01*
X137105597Y-91929443D01*
X137089803Y-91910197D01*
X135089803Y-89910197D01*
X135070557Y-89894403D01*
X135048601Y-89882667D01*
X135024776Y-89875440D01*
X135000000Y-89873000D01*
X129956000Y-89873000D01*
X129956000Y-87860000D01*
X130263044Y-87860000D01*
X130286812Y-88101318D01*
X130357202Y-88333363D01*
X130471509Y-88547216D01*
X130625340Y-88734660D01*
X130812784Y-88888491D01*
X131026637Y-89002798D01*
X131258682Y-89073188D01*
X131439528Y-89091000D01*
X131560472Y-89091000D01*
X131741318Y-89073188D01*
X131973363Y-89002798D01*
X132187216Y-88888491D01*
X132374660Y-88734660D01*
X132528491Y-88547216D01*
X132642798Y-88333363D01*
X132713188Y-88101318D01*
X132736956Y-87860000D01*
X132713188Y-87618682D01*
X132642798Y-87386637D01*
X132528491Y-87172784D01*
X132374660Y-86985340D01*
X132187216Y-86831509D01*
X131973363Y-86717202D01*
X131741318Y-86646812D01*
X131560472Y-86629000D01*
X131439528Y-86629000D01*
X131258682Y-86646812D01*
X131026637Y-86717202D01*
X130812784Y-86831509D01*
X130625340Y-86985340D01*
X130471509Y-87172784D01*
X130357202Y-87386637D01*
X130286812Y-87618682D01*
X130263044Y-87860000D01*
X129956000Y-87860000D01*
X129956000Y-85636980D01*
X130310511Y-85636980D01*
X130334866Y-85717288D01*
X130434761Y-85936961D01*
X130575592Y-86132924D01*
X130751948Y-86297647D01*
X130957051Y-86424799D01*
X131183019Y-86509495D01*
X131373000Y-86449187D01*
X131373000Y-85447000D01*
X131627000Y-85447000D01*
X131627000Y-86449187D01*
X131816981Y-86509495D01*
X132042949Y-86424799D01*
X132248052Y-86297647D01*
X132424408Y-86132924D01*
X132565239Y-85936961D01*
X132665134Y-85717288D01*
X132689489Y-85636980D01*
X132628627Y-85447000D01*
X131627000Y-85447000D01*
X131373000Y-85447000D01*
X130371373Y-85447000D01*
X130310511Y-85636980D01*
X129956000Y-85636980D01*
X129956000Y-85003020D01*
X130310511Y-85003020D01*
X130371373Y-85193000D01*
X131373000Y-85193000D01*
X131373000Y-84190813D01*
X131627000Y-84190813D01*
X131627000Y-85193000D01*
X132628627Y-85193000D01*
X132689489Y-85003020D01*
X132665134Y-84922712D01*
X132565239Y-84703039D01*
X132424408Y-84507076D01*
X132248052Y-84342353D01*
X132042949Y-84215201D01*
X131816981Y-84130505D01*
X131627000Y-84190813D01*
X131373000Y-84190813D01*
X131183019Y-84130505D01*
X130957051Y-84215201D01*
X130751948Y-84342353D01*
X130575592Y-84507076D01*
X130434761Y-84703039D01*
X130334866Y-84922712D01*
X130310511Y-85003020D01*
X129956000Y-85003020D01*
X129956000Y-65850000D01*
X130267157Y-65850000D01*
X130274513Y-65924689D01*
X130296299Y-65996508D01*
X130331678Y-66062696D01*
X130379289Y-66120711D01*
X130437304Y-66168322D01*
X130503492Y-66203701D01*
X130575311Y-66225487D01*
X130650000Y-66232843D01*
X131277750Y-66231000D01*
X131373000Y-66135750D01*
X131373000Y-65127000D01*
X131627000Y-65127000D01*
X131627000Y-66135750D01*
X131722250Y-66231000D01*
X132350000Y-66232843D01*
X132424689Y-66225487D01*
X132496508Y-66203701D01*
X132562696Y-66168322D01*
X132620711Y-66120711D01*
X132668322Y-66062696D01*
X132703701Y-65996508D01*
X132725487Y-65924689D01*
X132732843Y-65850000D01*
X132731000Y-65222250D01*
X132635750Y-65127000D01*
X131627000Y-65127000D01*
X131373000Y-65127000D01*
X130364250Y-65127000D01*
X130269000Y-65222250D01*
X130267157Y-65850000D01*
X129956000Y-65850000D01*
X129956000Y-64150000D01*
X130267157Y-64150000D01*
X130269000Y-64777750D01*
X130364250Y-64873000D01*
X131373000Y-64873000D01*
X131373000Y-63864250D01*
X131627000Y-63864250D01*
X131627000Y-64873000D01*
X132635750Y-64873000D01*
X132731000Y-64777750D01*
X132732237Y-64356342D01*
X136323263Y-64356342D01*
X136409218Y-64529207D01*
X136621358Y-64624687D01*
X136848048Y-64676945D01*
X137080578Y-64683975D01*
X137310012Y-64645505D01*
X137527532Y-64563014D01*
X137590782Y-64529207D01*
X137676737Y-64356342D01*
X137000000Y-63679605D01*
X136323263Y-64356342D01*
X132732237Y-64356342D01*
X132732843Y-64150000D01*
X132725487Y-64075311D01*
X132703701Y-64003492D01*
X132668322Y-63937304D01*
X132620711Y-63879289D01*
X132562696Y-63831678D01*
X132496508Y-63796299D01*
X132424689Y-63774513D01*
X132350000Y-63767157D01*
X131722250Y-63769000D01*
X131627000Y-63864250D01*
X131373000Y-63864250D01*
X131277750Y-63769000D01*
X130650000Y-63767157D01*
X130575311Y-63774513D01*
X130503492Y-63796299D01*
X130437304Y-63831678D01*
X130379289Y-63879289D01*
X130331678Y-63937304D01*
X130296299Y-64003492D01*
X130274513Y-64075311D01*
X130267157Y-64150000D01*
X129956000Y-64150000D01*
X129956000Y-63580578D01*
X135816025Y-63580578D01*
X135854495Y-63810012D01*
X135936986Y-64027532D01*
X135970793Y-64090782D01*
X136143658Y-64176737D01*
X136820395Y-63500000D01*
X137179605Y-63500000D01*
X137856342Y-64176737D01*
X137910113Y-64150000D01*
X141567157Y-64150000D01*
X141574513Y-64224689D01*
X141596299Y-64296508D01*
X141631678Y-64362696D01*
X141679289Y-64420711D01*
X141737304Y-64468322D01*
X141803492Y-64503701D01*
X141875311Y-64525487D01*
X141950000Y-64532843D01*
X142477750Y-64531000D01*
X142573000Y-64435750D01*
X142573000Y-63277000D01*
X141664250Y-63277000D01*
X141569000Y-63372250D01*
X141567157Y-64150000D01*
X137910113Y-64150000D01*
X138029207Y-64090782D01*
X138124687Y-63878642D01*
X138176945Y-63651952D01*
X138183975Y-63419422D01*
X138145505Y-63189988D01*
X138063014Y-62972468D01*
X138029207Y-62909218D01*
X137856342Y-62823263D01*
X137179605Y-63500000D01*
X136820395Y-63500000D01*
X136143658Y-62823263D01*
X135970793Y-62909218D01*
X135875313Y-63121358D01*
X135823055Y-63348048D01*
X135816025Y-63580578D01*
X129956000Y-63580578D01*
X129956000Y-63127000D01*
X135000000Y-63127000D01*
X135024776Y-63124560D01*
X135048601Y-63117333D01*
X135070557Y-63105597D01*
X135089803Y-63089803D01*
X135535948Y-62643658D01*
X136323263Y-62643658D01*
X137000000Y-63320395D01*
X137676737Y-62643658D01*
X137590782Y-62470793D01*
X137378642Y-62375313D01*
X137151952Y-62323055D01*
X136919422Y-62316025D01*
X136689988Y-62354495D01*
X136472468Y-62436986D01*
X136409218Y-62470793D01*
X136323263Y-62643658D01*
X135535948Y-62643658D01*
X136029606Y-62150000D01*
X141567157Y-62150000D01*
X141569000Y-62927750D01*
X141664250Y-63023000D01*
X142573000Y-63023000D01*
X142573000Y-61864250D01*
X142827000Y-61864250D01*
X142827000Y-63023000D01*
X143735750Y-63023000D01*
X143831000Y-62927750D01*
X143832843Y-62150000D01*
X143825487Y-62075311D01*
X143803701Y-62003492D01*
X143768322Y-61937304D01*
X143720711Y-61879289D01*
X143662696Y-61831678D01*
X143596508Y-61796299D01*
X143524689Y-61774513D01*
X143450000Y-61767157D01*
X142922250Y-61769000D01*
X142827000Y-61864250D01*
X142573000Y-61864250D01*
X142477750Y-61769000D01*
X141950000Y-61767157D01*
X141875311Y-61774513D01*
X141803492Y-61796299D01*
X141737304Y-61831678D01*
X141679289Y-61879289D01*
X141631678Y-61937304D01*
X141596299Y-62003492D01*
X141574513Y-62075311D01*
X141567157Y-62150000D01*
X136029606Y-62150000D01*
X137089803Y-61089803D01*
X137105597Y-61070557D01*
X137117333Y-61048601D01*
X137124560Y-61024776D01*
X137127000Y-61000000D01*
X137127000Y-58677622D01*
X138501983Y-58677622D01*
X138642325Y-58896554D01*
X138931259Y-59037043D01*
X139242050Y-59118465D01*
X139562753Y-59137690D01*
X139881044Y-59093980D01*
X140184693Y-58989014D01*
X140357675Y-58896554D01*
X140498017Y-58677622D01*
X139500000Y-57679605D01*
X138501983Y-58677622D01*
X137127000Y-58677622D01*
X137127000Y-57562753D01*
X137862310Y-57562753D01*
X137906020Y-57881044D01*
X138010986Y-58184693D01*
X138103446Y-58357675D01*
X138322378Y-58498017D01*
X139320395Y-57500000D01*
X139679605Y-57500000D01*
X140677622Y-58498017D01*
X140896554Y-58357675D01*
X141037043Y-58068741D01*
X141118465Y-57757950D01*
X141137690Y-57437247D01*
X141093980Y-57118956D01*
X140989014Y-56815307D01*
X140896554Y-56642325D01*
X140677622Y-56501983D01*
X139679605Y-57500000D01*
X139320395Y-57500000D01*
X138322378Y-56501983D01*
X138103446Y-56642325D01*
X137962957Y-56931259D01*
X137881535Y-57242050D01*
X137862310Y-57562753D01*
X137127000Y-57562753D01*
X137127000Y-55956000D01*
X138974372Y-55956000D01*
X138815307Y-56010986D01*
X138815307Y-56010986D01*
G37*
X138815307Y-56010986D02*
X138642325Y-56103446D01*
X138501983Y-56322378D01*
X139500000Y-57320395D01*
X140498017Y-56322378D01*
X140357675Y-56103446D01*
X140068741Y-55962957D01*
X140042186Y-55956000D01*
X142717157Y-55956000D01*
X142717157Y-57850000D01*
X142724513Y-57924689D01*
X142746299Y-57996508D01*
X142781678Y-58062696D01*
X142829289Y-58120711D01*
X142887304Y-58168322D01*
X142953492Y-58203701D01*
X143025311Y-58225487D01*
X143100000Y-58232843D01*
X144019001Y-58232843D01*
X144019000Y-61846699D01*
X143979289Y-61879289D01*
X143931678Y-61937304D01*
X143896299Y-62003492D01*
X143874513Y-62075311D01*
X143867157Y-62150000D01*
X143867157Y-64150000D01*
X143874513Y-64224689D01*
X143877645Y-64235013D01*
X143789406Y-64323251D01*
X143803701Y-64296508D01*
X143825487Y-64224689D01*
X143832843Y-64150000D01*
X143831000Y-63372250D01*
X143735750Y-63277000D01*
X142827000Y-63277000D01*
X142827000Y-64435750D01*
X142922250Y-64531000D01*
X143450000Y-64532843D01*
X143524689Y-64525487D01*
X143596508Y-64503701D01*
X143630919Y-64485308D01*
X143555382Y-64577350D01*
X143464289Y-64747772D01*
X143408195Y-64932691D01*
X143389254Y-65125000D01*
X143394001Y-65173196D01*
X143394001Y-65732369D01*
X143362696Y-65706678D01*
X143296508Y-65671299D01*
X143224689Y-65649513D01*
X143150000Y-65642157D01*
X142847250Y-65644000D01*
X142752000Y-65739250D01*
X142752000Y-66373000D01*
X142772000Y-66373000D01*
X142772000Y-66627000D01*
X142752000Y-66627000D01*
X142752000Y-67260750D01*
X142847250Y-67356000D01*
X143150000Y-67357843D01*
X143224689Y-67350487D01*
X143296508Y-67328701D01*
X143362696Y-67293322D01*
X143394001Y-67267631D01*
X143394000Y-67732368D01*
X143362696Y-67706678D01*
X143296508Y-67671299D01*
X143224689Y-67649513D01*
X143150000Y-67642157D01*
X142847250Y-67644000D01*
X142752000Y-67739250D01*
X142752000Y-68373000D01*
X142772000Y-68373000D01*
X142772000Y-68627000D01*
X142752000Y-68627000D01*
X142752000Y-69260750D01*
X142847250Y-69356000D01*
X143150000Y-69357843D01*
X143224689Y-69350487D01*
X143296508Y-69328701D01*
X143362696Y-69293322D01*
X143420711Y-69245711D01*
X143468322Y-69187696D01*
X143503701Y-69121508D01*
X143525487Y-69049689D01*
X143529979Y-69004082D01*
X143571704Y-69082144D01*
X143648851Y-69176149D01*
X143732244Y-69244587D01*
X144979573Y-70491916D01*
X144997721Y-70535729D01*
X145121495Y-70720970D01*
X145279030Y-70878505D01*
X145464271Y-71002279D01*
X145670100Y-71087536D01*
X145707665Y-71095008D01*
X147394001Y-72781344D01*
X147394000Y-73376066D01*
X147351149Y-73323851D01*
X147257144Y-73246704D01*
X147149895Y-73189378D01*
X147033523Y-73154077D01*
X146912500Y-73142157D01*
X146337500Y-73142157D01*
X146216477Y-73154077D01*
X146100105Y-73189378D01*
X145992856Y-73246704D01*
X145898851Y-73323851D01*
X145821704Y-73417856D01*
X145764378Y-73525105D01*
X145729077Y-73641477D01*
X145717157Y-73762500D01*
X145717157Y-74237500D01*
X145729077Y-74358523D01*
X145764378Y-74474895D01*
X145821704Y-74582144D01*
X145898851Y-74676149D01*
X145992856Y-74753296D01*
X146100105Y-74810622D01*
X146216477Y-74845923D01*
X146337500Y-74857843D01*
X146661185Y-74857843D01*
X147194002Y-75390661D01*
X147212193Y-75412827D01*
X147234359Y-75431018D01*
X147234361Y-75431020D01*
X147300662Y-75485431D01*
X147401595Y-75539381D01*
X147511114Y-75572603D01*
X147625010Y-75583821D01*
X147653550Y-75581010D01*
X148259353Y-75581010D01*
X148919000Y-76240658D01*
X148919000Y-76959342D01*
X148157843Y-77720500D01*
X148157843Y-77650000D01*
X148150487Y-77575311D01*
X148142809Y-77550000D01*
X148150487Y-77524689D01*
X148157843Y-77450000D01*
X148157843Y-77000000D01*
X148150487Y-76925311D01*
X148142809Y-76900000D01*
X148150487Y-76874689D01*
X148157843Y-76800000D01*
X148156000Y-76768250D01*
X148060750Y-76673000D01*
X147971461Y-76673000D01*
X147921508Y-76646299D01*
X147849689Y-76624513D01*
X147775000Y-76617157D01*
X146325000Y-76617157D01*
X146250311Y-76624513D01*
X146186071Y-76644000D01*
X144465658Y-76644000D01*
X144171658Y-76350000D01*
X145942157Y-76350000D01*
X145944000Y-76381750D01*
X146039250Y-76477000D01*
X146923000Y-76477000D01*
X146923000Y-76064250D01*
X147177000Y-76064250D01*
X147177000Y-76477000D01*
X148060750Y-76477000D01*
X148156000Y-76381750D01*
X148157843Y-76350000D01*
X148150487Y-76275311D01*
X148128701Y-76203492D01*
X148093322Y-76137304D01*
X148045711Y-76079289D01*
X147987696Y-76031678D01*
X147921508Y-75996299D01*
X147849689Y-75974513D01*
X147775000Y-75967157D01*
X147272250Y-75969000D01*
X147177000Y-76064250D01*
X146923000Y-76064250D01*
X146827750Y-75969000D01*
X146325000Y-75967157D01*
X146250311Y-75974513D01*
X146178492Y-75996299D01*
X146112304Y-76031678D01*
X146054289Y-76079289D01*
X146006678Y-76137304D01*
X145971299Y-76203492D01*
X145949513Y-76275311D01*
X145942157Y-76350000D01*
X144171658Y-76350000D01*
X144098158Y-76276500D01*
X144131000Y-76111394D01*
X144131000Y-75888606D01*
X144087536Y-75670100D01*
X144002279Y-75464271D01*
X143878505Y-75279030D01*
X143720970Y-75121495D01*
X143581000Y-75027970D01*
X143581000Y-74678907D01*
X143582144Y-74678296D01*
X143676149Y-74601149D01*
X143753296Y-74507144D01*
X143810622Y-74399895D01*
X143845923Y-74283523D01*
X143857843Y-74162500D01*
X143857843Y-73587500D01*
X143845923Y-73466477D01*
X143810622Y-73350105D01*
X143753296Y-73242856D01*
X143676149Y-73148851D01*
X143582144Y-73071704D01*
X143504082Y-73029979D01*
X143549689Y-73025487D01*
X143621508Y-73003701D01*
X143687696Y-72968322D01*
X143745711Y-72920711D01*
X143793322Y-72862696D01*
X143828701Y-72796508D01*
X143850487Y-72724689D01*
X143857843Y-72650000D01*
X143856000Y-72347250D01*
X143760750Y-72252000D01*
X143127000Y-72252000D01*
X143127000Y-72272000D01*
X142873000Y-72272000D01*
X142873000Y-72252000D01*
X142239250Y-72252000D01*
X142144000Y-72347250D01*
X142142157Y-72650000D01*
X142149513Y-72724689D01*
X142171299Y-72796508D01*
X142206678Y-72862696D01*
X142254289Y-72920711D01*
X142312304Y-72968322D01*
X142378492Y-73003701D01*
X142450311Y-73025487D01*
X142495918Y-73029979D01*
X142417856Y-73071704D01*
X142323851Y-73148851D01*
X142246704Y-73242856D01*
X142189378Y-73350105D01*
X142154077Y-73466477D01*
X142142157Y-73587500D01*
X142142157Y-74162500D01*
X142154077Y-74283523D01*
X142175368Y-74353711D01*
X141932843Y-74111186D01*
X141932843Y-73400000D01*
X141925487Y-73325311D01*
X141903701Y-73253492D01*
X141868322Y-73187304D01*
X141820711Y-73129289D01*
X141762696Y-73081678D01*
X141696508Y-73046299D01*
X141624689Y-73024513D01*
X141550000Y-73017157D01*
X139750000Y-73017157D01*
X139675311Y-73024513D01*
X139603492Y-73046299D01*
X139537304Y-73081678D01*
X139500000Y-73112292D01*
X139462696Y-73081678D01*
X139396508Y-73046299D01*
X139324689Y-73024513D01*
X139250000Y-73017157D01*
X138572250Y-73019000D01*
X138477000Y-73114250D01*
X138477000Y-74323000D01*
X138497000Y-74323000D01*
X138497000Y-74577000D01*
X138477000Y-74577000D01*
X138477000Y-75785750D01*
X138572250Y-75881000D01*
X139250000Y-75882843D01*
X139324689Y-75875487D01*
X139396508Y-75853701D01*
X139462696Y-75818322D01*
X139500000Y-75787708D01*
X139537304Y-75818322D01*
X139603492Y-75853701D01*
X139675311Y-75875487D01*
X139750000Y-75882843D01*
X141550000Y-75882843D01*
X141624689Y-75875487D01*
X141696508Y-75853701D01*
X141762696Y-75818322D01*
X141820711Y-75770711D01*
X141868322Y-75712696D01*
X141876235Y-75697892D01*
X141901842Y-75723500D01*
X141869000Y-75888606D01*
X141869000Y-76111394D01*
X141912464Y-76329900D01*
X141997721Y-76535729D01*
X142121495Y-76720970D01*
X142279030Y-76878505D01*
X142464271Y-77002279D01*
X142670100Y-77087536D01*
X142888606Y-77131000D01*
X143111394Y-77131000D01*
X143276500Y-77098158D01*
X143472342Y-77294000D01*
X138814082Y-77294000D01*
X137581000Y-76060919D01*
X137581000Y-75882487D01*
X138127750Y-75881000D01*
X138223000Y-75785750D01*
X138223000Y-74577000D01*
X138203000Y-74577000D01*
X138203000Y-74323000D01*
X138223000Y-74323000D01*
X138223000Y-73114250D01*
X138127750Y-73019000D01*
X137853403Y-73018254D01*
X137888814Y-72982843D01*
X139250000Y-72982843D01*
X139324689Y-72975487D01*
X139396508Y-72953701D01*
X139462696Y-72918322D01*
X139500000Y-72887708D01*
X139537304Y-72918322D01*
X139603492Y-72953701D01*
X139675311Y-72975487D01*
X139750000Y-72982843D01*
X140427750Y-72981000D01*
X140523000Y-72885750D01*
X140523000Y-71677000D01*
X140777000Y-71677000D01*
X140777000Y-72885750D01*
X140872250Y-72981000D01*
X141550000Y-72982843D01*
X141624689Y-72975487D01*
X141696508Y-72953701D01*
X141762696Y-72918322D01*
X141820711Y-72870711D01*
X141868322Y-72812696D01*
X141903701Y-72746508D01*
X141925487Y-72674689D01*
X141932843Y-72600000D01*
X141931000Y-71772250D01*
X141835750Y-71677000D01*
X140777000Y-71677000D01*
X140523000Y-71677000D01*
X140503000Y-71677000D01*
X140503000Y-71600000D01*
X142142157Y-71600000D01*
X142144000Y-71902750D01*
X142239250Y-71998000D01*
X142873000Y-71998000D01*
X142873000Y-71314250D01*
X143127000Y-71314250D01*
X143127000Y-71998000D01*
X143760750Y-71998000D01*
X143856000Y-71902750D01*
X143857843Y-71600000D01*
X143850487Y-71525311D01*
X143828701Y-71453492D01*
X143793322Y-71387304D01*
X143745711Y-71329289D01*
X143687696Y-71281678D01*
X143621508Y-71246299D01*
X143549689Y-71224513D01*
X143475000Y-71217157D01*
X143222250Y-71219000D01*
X143127000Y-71314250D01*
X142873000Y-71314250D01*
X142777750Y-71219000D01*
X142525000Y-71217157D01*
X142450311Y-71224513D01*
X142378492Y-71246299D01*
X142312304Y-71281678D01*
X142254289Y-71329289D01*
X142206678Y-71387304D01*
X142171299Y-71453492D01*
X142149513Y-71525311D01*
X142142157Y-71600000D01*
X140503000Y-71600000D01*
X140503000Y-71423000D01*
X140523000Y-71423000D01*
X140523000Y-70214250D01*
X140777000Y-70214250D01*
X140777000Y-71423000D01*
X141835750Y-71423000D01*
X141931000Y-71327750D01*
X141932843Y-70500000D01*
X141925487Y-70425311D01*
X141903701Y-70353492D01*
X141868322Y-70287304D01*
X141820711Y-70229289D01*
X141762696Y-70181678D01*
X141696508Y-70146299D01*
X141624689Y-70124513D01*
X141550000Y-70117157D01*
X140872250Y-70119000D01*
X140777000Y-70214250D01*
X140523000Y-70214250D01*
X140427750Y-70119000D01*
X139750000Y-70117157D01*
X139675311Y-70124513D01*
X139603492Y-70146299D01*
X139537304Y-70181678D01*
X139500000Y-70212292D01*
X139462696Y-70181678D01*
X139396508Y-70146299D01*
X139324689Y-70124513D01*
X139250000Y-70117157D01*
X137450000Y-70117157D01*
X137375311Y-70124513D01*
X137303492Y-70146299D01*
X137237304Y-70181678D01*
X137179289Y-70229289D01*
X137131678Y-70287304D01*
X137096299Y-70353492D01*
X137074513Y-70425311D01*
X137067157Y-70500000D01*
X137067157Y-72161186D01*
X136962500Y-72265843D01*
X136857843Y-72161186D01*
X136857843Y-71837500D01*
X136845923Y-71716477D01*
X136810622Y-71600105D01*
X136753296Y-71492856D01*
X136676149Y-71398851D01*
X136582144Y-71321704D01*
X136581000Y-71321093D01*
X136581000Y-70972030D01*
X136720970Y-70878505D01*
X136878505Y-70720970D01*
X137002279Y-70535729D01*
X137087536Y-70329900D01*
X137131000Y-70111394D01*
X137131000Y-69888606D01*
X137087536Y-69670100D01*
X137002279Y-69464271D01*
X136878505Y-69279030D01*
X136720970Y-69121495D01*
X136535729Y-68997721D01*
X136480876Y-68975000D01*
X141717157Y-68975000D01*
X141724513Y-69049689D01*
X141746299Y-69121508D01*
X141781678Y-69187696D01*
X141829289Y-69245711D01*
X141887304Y-69293322D01*
X141953492Y-69328701D01*
X142025311Y-69350487D01*
X142100000Y-69357843D01*
X142402750Y-69356000D01*
X142498000Y-69260750D01*
X142498000Y-68627000D01*
X141814250Y-68627000D01*
X141719000Y-68722250D01*
X141717157Y-68975000D01*
X136480876Y-68975000D01*
X136329900Y-68912464D01*
X136111394Y-68869000D01*
X135888606Y-68869000D01*
X135670100Y-68912464D01*
X135464271Y-68997721D01*
X135279030Y-69121495D01*
X135121495Y-69279030D01*
X135056465Y-69376354D01*
X135057843Y-69150000D01*
X135050487Y-69075311D01*
X135028701Y-69003492D01*
X134993322Y-68937304D01*
X134945711Y-68879289D01*
X134887696Y-68831678D01*
X134821508Y-68796299D01*
X134749689Y-68774513D01*
X134704082Y-68770021D01*
X134782144Y-68728296D01*
X134876149Y-68651149D01*
X134953296Y-68557144D01*
X135010622Y-68449895D01*
X135045923Y-68333523D01*
X135057843Y-68212500D01*
X135057843Y-68025000D01*
X141717157Y-68025000D01*
X141719000Y-68277750D01*
X141814250Y-68373000D01*
X142498000Y-68373000D01*
X142498000Y-67739250D01*
X142402750Y-67644000D01*
X142100000Y-67642157D01*
X142025311Y-67649513D01*
X141953492Y-67671299D01*
X141887304Y-67706678D01*
X141829289Y-67754289D01*
X141781678Y-67812304D01*
X141746299Y-67878492D01*
X141724513Y-67950311D01*
X141717157Y-68025000D01*
X135057843Y-68025000D01*
X135057843Y-67954500D01*
X135936069Y-67076275D01*
X135987304Y-67118322D01*
X136053492Y-67153701D01*
X136125311Y-67175487D01*
X136200000Y-67182843D01*
X137800000Y-67182843D01*
X137874689Y-67175487D01*
X137946508Y-67153701D01*
X138012696Y-67118322D01*
X138070711Y-67070711D01*
X138118322Y-67012696D01*
X138138471Y-66975000D01*
X141717157Y-66975000D01*
X141724513Y-67049689D01*
X141746299Y-67121508D01*
X141781678Y-67187696D01*
X141829289Y-67245711D01*
X141887304Y-67293322D01*
X141953492Y-67328701D01*
X142025311Y-67350487D01*
X142100000Y-67357843D01*
X142402750Y-67356000D01*
X142498000Y-67260750D01*
X142498000Y-66627000D01*
X141814250Y-66627000D01*
X141719000Y-66722250D01*
X141717157Y-66975000D01*
X138138471Y-66975000D01*
X138153701Y-66946508D01*
X138175487Y-66874689D01*
X138182843Y-66800000D01*
X138182843Y-66025000D01*
X141717157Y-66025000D01*
X141719000Y-66277750D01*
X141814250Y-66373000D01*
X142498000Y-66373000D01*
X142498000Y-65739250D01*
X142402750Y-65644000D01*
X142100000Y-65642157D01*
X142025311Y-65649513D01*
X141953492Y-65671299D01*
X141887304Y-65706678D01*
X141829289Y-65754289D01*
X141781678Y-65812304D01*
X141746299Y-65878492D01*
X141724513Y-65950311D01*
X141717157Y-66025000D01*
X138182843Y-66025000D01*
X138182843Y-65200000D01*
X138175487Y-65125311D01*
X138153701Y-65053492D01*
X138118322Y-64987304D01*
X138070711Y-64929289D01*
X138012696Y-64881678D01*
X137946508Y-64846299D01*
X137874689Y-64824513D01*
X137800000Y-64817157D01*
X136200000Y-64817157D01*
X136125311Y-64824513D01*
X136053492Y-64846299D01*
X135987304Y-64881678D01*
X135929289Y-64929289D01*
X135881678Y-64987304D01*
X135864736Y-65019000D01*
X135673186Y-65019000D01*
X135625000Y-65014254D01*
X135576813Y-65019000D01*
X135432690Y-65033195D01*
X135247771Y-65089289D01*
X135077349Y-65180382D01*
X134927972Y-65302972D01*
X134897255Y-65340401D01*
X133093657Y-67144000D01*
X132666266Y-67144000D01*
X132642798Y-67066637D01*
X132528491Y-66852784D01*
X132374660Y-66665340D01*
X132187216Y-66511509D01*
X131973363Y-66397202D01*
X131741318Y-66326812D01*
X131560472Y-66309000D01*
X131439528Y-66309000D01*
X131258682Y-66326812D01*
X131026637Y-66397202D01*
X130812784Y-66511509D01*
X130696532Y-66606914D01*
X130622772Y-66629289D01*
X130452350Y-66720382D01*
X130302973Y-66842973D01*
X130180382Y-66992350D01*
X130089289Y-67162772D01*
X130033195Y-67347691D01*
X130014254Y-67540000D01*
X130033195Y-67732309D01*
X130089289Y-67917228D01*
X130180382Y-68087650D01*
X130272255Y-68199598D01*
X130857250Y-68784593D01*
X130887972Y-68822028D01*
X131027860Y-68936831D01*
X131026637Y-68937202D01*
X130812784Y-69051509D01*
X130625340Y-69205340D01*
X130471509Y-69392784D01*
X130357202Y-69606637D01*
X130286812Y-69838682D01*
X130263044Y-70080000D01*
X130286812Y-70321318D01*
X130357202Y-70553363D01*
X130471509Y-70767216D01*
X130625340Y-70954660D01*
X130812784Y-71108491D01*
X131026637Y-71222798D01*
X131258682Y-71293188D01*
X131439528Y-71311000D01*
X131560472Y-71311000D01*
X131741318Y-71293188D01*
X131856569Y-71258227D01*
X131959355Y-71361013D01*
X132201913Y-71603570D01*
X132187216Y-71591509D01*
X131973363Y-71477202D01*
X131741318Y-71406812D01*
X131560472Y-71389000D01*
X131439528Y-71389000D01*
X131258682Y-71406812D01*
X131026637Y-71477202D01*
X130812784Y-71591509D01*
X130625340Y-71745340D01*
X130471509Y-71932784D01*
X130357202Y-72146637D01*
X130286812Y-72378682D01*
X130263044Y-72620000D01*
X130286812Y-72861318D01*
X130357202Y-73093363D01*
X130471509Y-73307216D01*
X130625340Y-73494660D01*
X130812784Y-73648491D01*
X131026637Y-73762798D01*
X131258682Y-73833188D01*
X131439528Y-73851000D01*
X131560472Y-73851000D01*
X131741318Y-73833188D01*
X131856570Y-73798227D01*
X132201913Y-74143571D01*
X132187216Y-74131509D01*
X131973363Y-74017202D01*
X131741318Y-73946812D01*
X131560472Y-73929000D01*
X131439528Y-73929000D01*
X131258682Y-73946812D01*
X131026637Y-74017202D01*
X130812784Y-74131509D01*
X130625340Y-74285340D01*
X130471509Y-74472784D01*
X130357202Y-74686637D01*
X130286812Y-74918682D01*
X130263044Y-75160000D01*
X130286812Y-75401318D01*
X130357202Y-75633363D01*
X130471509Y-75847216D01*
X130625340Y-76034660D01*
X130812784Y-76188491D01*
X131026637Y-76302798D01*
X131258682Y-76373188D01*
X131439528Y-76391000D01*
X131560472Y-76391000D01*
X131741318Y-76373188D01*
X131856570Y-76338227D01*
X132201913Y-76683570D01*
X132187216Y-76671509D01*
X131973363Y-76557202D01*
X131741318Y-76486812D01*
X131560472Y-76469000D01*
X131439528Y-76469000D01*
X131258682Y-76486812D01*
X131026637Y-76557202D01*
X130812784Y-76671509D01*
X130625340Y-76825340D01*
X130471509Y-77012784D01*
X130357202Y-77226637D01*
X130286812Y-77458682D01*
X130263044Y-77700000D01*
X130286812Y-77941318D01*
X130357202Y-78173363D01*
X130471509Y-78387216D01*
X130625340Y-78574660D01*
X130812784Y-78728491D01*
X131026637Y-78842798D01*
X131258682Y-78913188D01*
X131439528Y-78931000D01*
X131560472Y-78931000D01*
X131741318Y-78913188D01*
X131856569Y-78878227D01*
X131959350Y-78981008D01*
X131959355Y-78981012D01*
X132201912Y-79223570D01*
X132187216Y-79211509D01*
X131973363Y-79097202D01*
X131741318Y-79026812D01*
X131560472Y-79009000D01*
X131439528Y-79009000D01*
X131258682Y-79026812D01*
X131026637Y-79097202D01*
X130812784Y-79211509D01*
X130625340Y-79365340D01*
X130471509Y-79552784D01*
X130357202Y-79766637D01*
X130286812Y-79998682D01*
X130263044Y-80240000D01*
X130286812Y-80481318D01*
X130357202Y-80713363D01*
X130471509Y-80927216D01*
X130625340Y-81114660D01*
X130812784Y-81268491D01*
X131026637Y-81382798D01*
X131258682Y-81453188D01*
X131439528Y-81471000D01*
X131560472Y-81471000D01*
X131741318Y-81453188D01*
X131856570Y-81418227D01*
X132201913Y-81763570D01*
X132187216Y-81751509D01*
X131973363Y-81637202D01*
X131741318Y-81566812D01*
X131560472Y-81549000D01*
X131439528Y-81549000D01*
X131258682Y-81566812D01*
X131026637Y-81637202D01*
X130812784Y-81751509D01*
X130625340Y-81905340D01*
X130471509Y-82092784D01*
X130357202Y-82306637D01*
X130286812Y-82538682D01*
X130263044Y-82780000D01*
X130286812Y-83021318D01*
X130357202Y-83253363D01*
X130471509Y-83467216D01*
X130625340Y-83654660D01*
X130812784Y-83808491D01*
X131026637Y-83922798D01*
X131258682Y-83993188D01*
X131439528Y-84011000D01*
X131560472Y-84011000D01*
X131741318Y-83993188D01*
X131973363Y-83922798D01*
X132187216Y-83808491D01*
X132374660Y-83654660D01*
X132528491Y-83467216D01*
X132585265Y-83361000D01*
X132639341Y-83361000D01*
X132718982Y-83440641D01*
X132737182Y-83462818D01*
X132825651Y-83535422D01*
X132926584Y-83589372D01*
X133036103Y-83622594D01*
X133149998Y-83633812D01*
X133178538Y-83631001D01*
X144059344Y-83631001D01*
X144568987Y-84140645D01*
X144587183Y-84162817D01*
X144675652Y-84235421D01*
X144776585Y-84289371D01*
X144886104Y-84322593D01*
X144999999Y-84333811D01*
X145028539Y-84331000D01*
X148721460Y-84331000D01*
X148750000Y-84333811D01*
X148778540Y-84331000D01*
X148863896Y-84322593D01*
X148973415Y-84289371D01*
X149074348Y-84235421D01*
X149162817Y-84162817D01*
X149181017Y-84140640D01*
X150224677Y-83096980D01*
X158310511Y-83096980D01*
X158334866Y-83177288D01*
X158434761Y-83396961D01*
X158575592Y-83592924D01*
X158751948Y-83757647D01*
X158957051Y-83884799D01*
X159183019Y-83969495D01*
X159373000Y-83909187D01*
X159373000Y-82907000D01*
X159627000Y-82907000D01*
X159627000Y-83909187D01*
X159816981Y-83969495D01*
X160042949Y-83884799D01*
X160248052Y-83757647D01*
X160424408Y-83592924D01*
X160565239Y-83396961D01*
X160665134Y-83177288D01*
X160689489Y-83096980D01*
X160628627Y-82907000D01*
X159627000Y-82907000D01*
X159373000Y-82907000D01*
X158371373Y-82907000D01*
X158310511Y-83096980D01*
X150224677Y-83096980D01*
X150315658Y-83006000D01*
X152086071Y-83006000D01*
X152150311Y-83025487D01*
X152225000Y-83032843D01*
X153675000Y-83032843D01*
X153749689Y-83025487D01*
X153821508Y-83003701D01*
X153887696Y-82968322D01*
X153945711Y-82920711D01*
X153993322Y-82862696D01*
X154028701Y-82796508D01*
X154050487Y-82724689D01*
X154057843Y-82650000D01*
X154057843Y-82463020D01*
X158310511Y-82463020D01*
X158371373Y-82653000D01*
X159373000Y-82653000D01*
X159373000Y-81650813D01*
X159627000Y-81650813D01*
X159627000Y-82653000D01*
X160628627Y-82653000D01*
X160689489Y-82463020D01*
X160665134Y-82382712D01*
X160565239Y-82163039D01*
X160424408Y-81967076D01*
X160248052Y-81802353D01*
X160042949Y-81675201D01*
X159816981Y-81590505D01*
X159627000Y-81650813D01*
X159373000Y-81650813D01*
X159183019Y-81590505D01*
X158957051Y-81675201D01*
X158751948Y-81802353D01*
X158575592Y-81967076D01*
X158434761Y-82163039D01*
X158334866Y-82382712D01*
X158310511Y-82463020D01*
X154057843Y-82463020D01*
X154057843Y-82356000D01*
X156796460Y-82356000D01*
X156825000Y-82358811D01*
X156853540Y-82356000D01*
X156938896Y-82347593D01*
X157048415Y-82314371D01*
X157149348Y-82260421D01*
X157237817Y-82187817D01*
X157256017Y-82165640D01*
X158481846Y-80939812D01*
X158625340Y-81114660D01*
X158812784Y-81268491D01*
X159026637Y-81382798D01*
X159258682Y-81453188D01*
X159439528Y-81471000D01*
X159560472Y-81471000D01*
X159741318Y-81453188D01*
X159973363Y-81382798D01*
X160187216Y-81268491D01*
X160374660Y-81114660D01*
X160528491Y-80927216D01*
X160642798Y-80713363D01*
X160713188Y-80481318D01*
X160736956Y-80240000D01*
X160713188Y-79998682D01*
X160642798Y-79766637D01*
X160528491Y-79552784D01*
X160374660Y-79365340D01*
X160187216Y-79211509D01*
X159973363Y-79097202D01*
X159741318Y-79026812D01*
X159560472Y-79009000D01*
X159439528Y-79009000D01*
X159258682Y-79026812D01*
X159026637Y-79097202D01*
X158812784Y-79211509D01*
X158798088Y-79223570D01*
X159143431Y-78878227D01*
X159258682Y-78913188D01*
X159439528Y-78931000D01*
X159560472Y-78931000D01*
X159741318Y-78913188D01*
X159973363Y-78842798D01*
X160187216Y-78728491D01*
X160374660Y-78574660D01*
X160528491Y-78387216D01*
X160642798Y-78173363D01*
X160713188Y-77941318D01*
X160736956Y-77700000D01*
X160713188Y-77458682D01*
X160642798Y-77226637D01*
X160528491Y-77012784D01*
X160374660Y-76825340D01*
X160187216Y-76671509D01*
X159973363Y-76557202D01*
X159741318Y-76486812D01*
X159560472Y-76469000D01*
X159439528Y-76469000D01*
X159258682Y-76486812D01*
X159026637Y-76557202D01*
X158856748Y-76648010D01*
X158856748Y-76624909D01*
X159143430Y-76338227D01*
X159258682Y-76373188D01*
X159439528Y-76391000D01*
X159560472Y-76391000D01*
X159741318Y-76373188D01*
X159973363Y-76302798D01*
X160187216Y-76188491D01*
X160374660Y-76034660D01*
X160528491Y-75847216D01*
X160642798Y-75633363D01*
X160713188Y-75401318D01*
X160736956Y-75160000D01*
X160713188Y-74918682D01*
X160642798Y-74686637D01*
X160528491Y-74472784D01*
X160374660Y-74285340D01*
X160187216Y-74131509D01*
X159973363Y-74017202D01*
X159741318Y-73946812D01*
X159560472Y-73929000D01*
X159439528Y-73929000D01*
X159258682Y-73946812D01*
X159026637Y-74017202D01*
X158812784Y-74131509D01*
X158798086Y-74143571D01*
X159143431Y-73798227D01*
X159258682Y-73833188D01*
X159439528Y-73851000D01*
X159560472Y-73851000D01*
X159741318Y-73833188D01*
X159973363Y-73762798D01*
X160187216Y-73648491D01*
X160374660Y-73494660D01*
X160528491Y-73307216D01*
X160642798Y-73093363D01*
X160713188Y-72861318D01*
X160736956Y-72620000D01*
X160713188Y-72378682D01*
X160642798Y-72146637D01*
X160528491Y-71932784D01*
X160374660Y-71745340D01*
X160187216Y-71591509D01*
X159973363Y-71477202D01*
X159741318Y-71406812D01*
X159560472Y-71389000D01*
X159439528Y-71389000D01*
X159258682Y-71406812D01*
X159026637Y-71477202D01*
X158812784Y-71591509D01*
X158798087Y-71603570D01*
X159143431Y-71258227D01*
X159258682Y-71293188D01*
X159439528Y-71311000D01*
X159560472Y-71311000D01*
X159741318Y-71293188D01*
X159973363Y-71222798D01*
X160187216Y-71108491D01*
X160374660Y-70954660D01*
X160528491Y-70767216D01*
X160642798Y-70553363D01*
X160713188Y-70321318D01*
X160736956Y-70080000D01*
X160713188Y-69838682D01*
X160642798Y-69606637D01*
X160528491Y-69392784D01*
X160374660Y-69205340D01*
X160187216Y-69051509D01*
X159973363Y-68937202D01*
X159741318Y-68866812D01*
X159560472Y-68849000D01*
X159439528Y-68849000D01*
X159258682Y-68866812D01*
X159026637Y-68937202D01*
X158812784Y-69051509D01*
X158625340Y-69205340D01*
X158471509Y-69392784D01*
X158357202Y-69606637D01*
X158286812Y-69838682D01*
X158263044Y-70080000D01*
X158286812Y-70321318D01*
X158321773Y-70436569D01*
X156685085Y-72073258D01*
X156662913Y-72091454D01*
X156644720Y-72113623D01*
X156590308Y-72179924D01*
X156536358Y-72280857D01*
X156503136Y-72390376D01*
X156491918Y-72504271D01*
X156494730Y-72532821D01*
X156494729Y-75835071D01*
X155744290Y-76585510D01*
X155692092Y-76459494D01*
X155606621Y-76331577D01*
X155497838Y-76222794D01*
X155369921Y-76137323D01*
X155227788Y-76078449D01*
X155076901Y-76048436D01*
X154971736Y-76048436D01*
X155000990Y-75977812D01*
X155031003Y-75826925D01*
X155031003Y-75673081D01*
X155000990Y-75522194D01*
X154942116Y-75380061D01*
X154856645Y-75252144D01*
X154747862Y-75143361D01*
X154619945Y-75057890D01*
X154477812Y-74999016D01*
X154326925Y-74969003D01*
X154173081Y-74969003D01*
X154022194Y-74999016D01*
X153880061Y-75057890D01*
X153752144Y-75143361D01*
X153643361Y-75252144D01*
X153557890Y-75380061D01*
X153499016Y-75522194D01*
X153469003Y-75673081D01*
X153469003Y-75734339D01*
X153236186Y-75967157D01*
X152225000Y-75967157D01*
X152150311Y-75974513D01*
X152078492Y-75996299D01*
X152012304Y-76031678D01*
X151954289Y-76079289D01*
X151906678Y-76137304D01*
X151871299Y-76203492D01*
X151849513Y-76275311D01*
X151842157Y-76350000D01*
X151842157Y-76800000D01*
X151849513Y-76874689D01*
X151857191Y-76900000D01*
X151849513Y-76925311D01*
X151842157Y-77000000D01*
X151842157Y-77450000D01*
X151849513Y-77524689D01*
X151857191Y-77550000D01*
X151849513Y-77575311D01*
X151842157Y-77650000D01*
X151842157Y-78087656D01*
X151281000Y-77526500D01*
X151281000Y-74609312D01*
X151303296Y-74582144D01*
X151345021Y-74504082D01*
X151349513Y-74549689D01*
X151371299Y-74621508D01*
X151406678Y-74687696D01*
X151454289Y-74745711D01*
X151512304Y-74793322D01*
X151578492Y-74828701D01*
X151650311Y-74850487D01*
X151725000Y-74857843D01*
X152027750Y-74856000D01*
X152123000Y-74760750D01*
X152123000Y-74127000D01*
X152377000Y-74127000D01*
X152377000Y-74760750D01*
X152472250Y-74856000D01*
X152775000Y-74857843D01*
X152849689Y-74850487D01*
X152921508Y-74828701D01*
X152987696Y-74793322D01*
X153045711Y-74745711D01*
X153093322Y-74687696D01*
X153128701Y-74621508D01*
X153150487Y-74549689D01*
X153157843Y-74475000D01*
X153156000Y-74222250D01*
X153060750Y-74127000D01*
X152377000Y-74127000D01*
X152123000Y-74127000D01*
X152103000Y-74127000D01*
X152103000Y-73873000D01*
X152123000Y-73873000D01*
X152123000Y-73239250D01*
X152377000Y-73239250D01*
X152377000Y-73873000D01*
X153060750Y-73873000D01*
X153156000Y-73777750D01*
X153157843Y-73525000D01*
X153150487Y-73450311D01*
X153128701Y-73378492D01*
X153093322Y-73312304D01*
X153045711Y-73254289D01*
X152987696Y-73206678D01*
X152921508Y-73171299D01*
X152849689Y-73149513D01*
X152775000Y-73142157D01*
X152472250Y-73144000D01*
X152377000Y-73239250D01*
X152123000Y-73239250D01*
X152098047Y-73214297D01*
X152331343Y-72981000D01*
X153476814Y-72981000D01*
X153525000Y-72985746D01*
X153573186Y-72981000D01*
X153573187Y-72981000D01*
X153717310Y-72966805D01*
X153902229Y-72910711D01*
X154072651Y-72819618D01*
X154222028Y-72697028D01*
X154252750Y-72659593D01*
X155184598Y-71727746D01*
X155222028Y-71697028D01*
X155344618Y-71547651D01*
X155435711Y-71377229D01*
X155491805Y-71192310D01*
X155506000Y-71048187D01*
X155510746Y-71000000D01*
X155506000Y-70951813D01*
X155506000Y-70400000D01*
X155642157Y-70400000D01*
X155649513Y-70474689D01*
X155671299Y-70546508D01*
X155706678Y-70612696D01*
X155754289Y-70670711D01*
X155812304Y-70718322D01*
X155878492Y-70753701D01*
X155950311Y-70775487D01*
X156025000Y-70782843D01*
X156277750Y-70781000D01*
X156373000Y-70685750D01*
X156373000Y-70002000D01*
X156627000Y-70002000D01*
X156627000Y-70685750D01*
X156722250Y-70781000D01*
X156975000Y-70782843D01*
X157049689Y-70775487D01*
X157121508Y-70753701D01*
X157187696Y-70718322D01*
X157245711Y-70670711D01*
X157293322Y-70612696D01*
X157328701Y-70546508D01*
X157350487Y-70474689D01*
X157357843Y-70400000D01*
X157356000Y-70097250D01*
X157260750Y-70002000D01*
X156627000Y-70002000D01*
X156373000Y-70002000D01*
X155739250Y-70002000D01*
X155644000Y-70097250D01*
X155642157Y-70400000D01*
X155506000Y-70400000D01*
X155506000Y-69931343D01*
X155714297Y-69723047D01*
X155739250Y-69748000D01*
X156373000Y-69748000D01*
X156373000Y-69728000D01*
X156627000Y-69728000D01*
X156627000Y-69748000D01*
X157260750Y-69748000D01*
X157356000Y-69652750D01*
X157357843Y-69350000D01*
X157350487Y-69275311D01*
X157328701Y-69203492D01*
X157293322Y-69137304D01*
X157245711Y-69079289D01*
X157187696Y-69031678D01*
X157121508Y-68996299D01*
X157049689Y-68974513D01*
X157004082Y-68970021D01*
X157082144Y-68928296D01*
X157176149Y-68851149D01*
X157244587Y-68767756D01*
X157491343Y-68521000D01*
X158754916Y-68521000D01*
X158812784Y-68568491D01*
X159026637Y-68682798D01*
X159258682Y-68753188D01*
X159439528Y-68771000D01*
X159560472Y-68771000D01*
X159741318Y-68753188D01*
X159973363Y-68682798D01*
X160187216Y-68568491D01*
X160374660Y-68414660D01*
X160528491Y-68227216D01*
X160642798Y-68013363D01*
X160713188Y-67781318D01*
X160736956Y-67540000D01*
X160713188Y-67298682D01*
X160642798Y-67066637D01*
X160528491Y-66852784D01*
X160374660Y-66665340D01*
X160187216Y-66511509D01*
X159973363Y-66397202D01*
X159741318Y-66326812D01*
X159560472Y-66309000D01*
X159439528Y-66309000D01*
X159258682Y-66326812D01*
X159026637Y-66397202D01*
X158812784Y-66511509D01*
X158754916Y-66559000D01*
X157133186Y-66559000D01*
X157085000Y-66554254D01*
X157036813Y-66559000D01*
X156892690Y-66573195D01*
X156707771Y-66629289D01*
X156537349Y-66720382D01*
X156387972Y-66842972D01*
X156357250Y-66880407D01*
X156093657Y-67144000D01*
X155973186Y-67144000D01*
X155925000Y-67139254D01*
X155876813Y-67144000D01*
X155732690Y-67158195D01*
X155547771Y-67214289D01*
X155377349Y-67305382D01*
X155227972Y-67427972D01*
X155197254Y-67465402D01*
X153865407Y-68797250D01*
X153827972Y-68827972D01*
X153705382Y-68977349D01*
X153653020Y-69075311D01*
X153614289Y-69147772D01*
X153558195Y-69332691D01*
X153539254Y-69525000D01*
X153542758Y-69560576D01*
X153515593Y-69489961D01*
X153488315Y-69438927D01*
X153320561Y-69359044D01*
X152679605Y-70000000D01*
X153320561Y-70640956D01*
X153488315Y-70561073D01*
X153544001Y-70435759D01*
X153544001Y-70593656D01*
X153118657Y-71019000D01*
X153001183Y-71019000D01*
X153010039Y-71015593D01*
X153061073Y-70988315D01*
X153140956Y-70820561D01*
X152500000Y-70179605D01*
X151859044Y-70820561D01*
X151938927Y-70988315D01*
X152007980Y-71019000D01*
X151973183Y-71019000D01*
X151924999Y-71014254D01*
X151876815Y-71019000D01*
X151876813Y-71019000D01*
X151732690Y-71033195D01*
X151547771Y-71089289D01*
X151377349Y-71180382D01*
X151227972Y-71302972D01*
X151197250Y-71340407D01*
X149840407Y-72697250D01*
X149802972Y-72727972D01*
X149680382Y-72877349D01*
X149605653Y-73017157D01*
X149604668Y-73019000D01*
X149356000Y-73019000D01*
X149356000Y-72423186D01*
X149360746Y-72374999D01*
X149341805Y-72182690D01*
X149340966Y-72179923D01*
X149285711Y-71997771D01*
X149194618Y-71827349D01*
X149072028Y-71677972D01*
X149034593Y-71647250D01*
X147469906Y-70082563D01*
X151366530Y-70082563D01*
X151404417Y-70302106D01*
X151484407Y-70510039D01*
X151511685Y-70561073D01*
X151679439Y-70640956D01*
X152320395Y-70000000D01*
X151679439Y-69359044D01*
X151511685Y-69438927D01*
X151421215Y-69642519D01*
X151372202Y-69859848D01*
X151366530Y-70082563D01*
X147469906Y-70082563D01*
X147095008Y-69707665D01*
X147087536Y-69670100D01*
X147002279Y-69464271D01*
X146878505Y-69279030D01*
X146778914Y-69179439D01*
X151859044Y-69179439D01*
X152500000Y-69820395D01*
X153140956Y-69179439D01*
X153061073Y-69011685D01*
X152857481Y-68921215D01*
X152640152Y-68872202D01*
X152417437Y-68866530D01*
X152197894Y-68904417D01*
X151989961Y-68984407D01*
X151938927Y-69011685D01*
X151859044Y-69179439D01*
X146778914Y-69179439D01*
X146720970Y-69121495D01*
X146535729Y-68997721D01*
X146329900Y-68912464D01*
X146136296Y-68873953D01*
X145356000Y-68093657D01*
X145356000Y-65531343D01*
X145659588Y-65227754D01*
X145697028Y-65197028D01*
X145819618Y-65047651D01*
X145910711Y-64877229D01*
X145966805Y-64692310D01*
X145981000Y-64548187D01*
X145981000Y-64548185D01*
X145985746Y-64500001D01*
X145981135Y-64453190D01*
X146020711Y-64420711D01*
X146068322Y-64362696D01*
X146103701Y-64296508D01*
X146125487Y-64224689D01*
X146132843Y-64150000D01*
X146132843Y-62150000D01*
X146125487Y-62075311D01*
X146103701Y-62003492D01*
X146068322Y-61937304D01*
X146020711Y-61879289D01*
X145981000Y-61846699D01*
X145981000Y-58232843D01*
X146900000Y-58232843D01*
X146974689Y-58225487D01*
X147046508Y-58203701D01*
X147112696Y-58168322D01*
X147170711Y-58120711D01*
X147218322Y-58062696D01*
X147253701Y-57996508D01*
X147275487Y-57924689D01*
X147282843Y-57850000D01*
X147282843Y-55956000D01*
X149965536Y-55956000D01*
X149727432Y-56054626D01*
X149460298Y-56233119D01*
X149233119Y-56460298D01*
X149054626Y-56727432D01*
X148931678Y-57024255D01*
X148869000Y-57339360D01*
X148869000Y-57660640D01*
X148931678Y-57975745D01*
X149054626Y-58272568D01*
X149233119Y-58539702D01*
X149460298Y-58766881D01*
X149519001Y-58806105D01*
X149519001Y-59826804D01*
X149514254Y-59875000D01*
X149533195Y-60067309D01*
X149589289Y-60252228D01*
X149644000Y-60354585D01*
X149644001Y-61076804D01*
X149639254Y-61125000D01*
X149658195Y-61317309D01*
X149714289Y-61502228D01*
X149805382Y-61672650D01*
X149897255Y-61784598D01*
X149927973Y-61822028D01*
X149965402Y-61852745D01*
X150281657Y-62169000D01*
X148432843Y-62169000D01*
X148432843Y-62150000D01*
X148425487Y-62075311D01*
X148403701Y-62003492D01*
X148368322Y-61937304D01*
X148320711Y-61879289D01*
X148262696Y-61831678D01*
X148196508Y-61796299D01*
X148124689Y-61774513D01*
X148050000Y-61767157D01*
X146550000Y-61767157D01*
X146475311Y-61774513D01*
X146403492Y-61796299D01*
X146337304Y-61831678D01*
X146279289Y-61879289D01*
X146231678Y-61937304D01*
X146196299Y-62003492D01*
X146174513Y-62075311D01*
X146167157Y-62150000D01*
X146167157Y-64150000D01*
X146174513Y-64224689D01*
X146196299Y-64296508D01*
X146231678Y-64362696D01*
X146269000Y-64408174D01*
X146269000Y-64893657D01*
X145965403Y-65197254D01*
X145927973Y-65227972D01*
X145897256Y-65265401D01*
X145897255Y-65265402D01*
X145805382Y-65377350D01*
X145714289Y-65547772D01*
X145658195Y-65732691D01*
X145639254Y-65925000D01*
X145644000Y-65973186D01*
X145644000Y-66548186D01*
X145658195Y-66692309D01*
X145714289Y-66877228D01*
X145761602Y-66965745D01*
X145764378Y-66974895D01*
X145821704Y-67082144D01*
X145898851Y-67176149D01*
X145992856Y-67253296D01*
X146003407Y-67258936D01*
X146077349Y-67319618D01*
X146247771Y-67410711D01*
X146432690Y-67466805D01*
X146625000Y-67485746D01*
X146817309Y-67466805D01*
X147002228Y-67410711D01*
X147172651Y-67319618D01*
X147246593Y-67258936D01*
X147257144Y-67253296D01*
X147351149Y-67176149D01*
X147428296Y-67082144D01*
X147470021Y-67004082D01*
X147474513Y-67049689D01*
X147496299Y-67121508D01*
X147531678Y-67187696D01*
X147579289Y-67245711D01*
X147637304Y-67293322D01*
X147703492Y-67328701D01*
X147775311Y-67350487D01*
X147850000Y-67357843D01*
X148152750Y-67356000D01*
X148248000Y-67260750D01*
X148248000Y-66627000D01*
X148502000Y-66627000D01*
X148502000Y-67260750D01*
X148597250Y-67356000D01*
X148900000Y-67357843D01*
X148974689Y-67350487D01*
X149046508Y-67328701D01*
X149112696Y-67293322D01*
X149170711Y-67245711D01*
X149218322Y-67187696D01*
X149253701Y-67121508D01*
X149275487Y-67049689D01*
X149282843Y-66975000D01*
X149281978Y-66856342D01*
X152323263Y-66856342D01*
X152409218Y-67029207D01*
X152621358Y-67124687D01*
X152848048Y-67176945D01*
X153080578Y-67183975D01*
X153310012Y-67145505D01*
X153527532Y-67063014D01*
X153590782Y-67029207D01*
X153676737Y-66856342D01*
X153000000Y-66179605D01*
X152323263Y-66856342D01*
X149281978Y-66856342D01*
X149281000Y-66722250D01*
X149185750Y-66627000D01*
X148502000Y-66627000D01*
X148248000Y-66627000D01*
X148228000Y-66627000D01*
X148228000Y-66373000D01*
X148248000Y-66373000D01*
X148248000Y-65739250D01*
X148502000Y-65739250D01*
X148502000Y-66373000D01*
X149185750Y-66373000D01*
X149281000Y-66277750D01*
X149282437Y-66080578D01*
X151816025Y-66080578D01*
X151854495Y-66310012D01*
X151936986Y-66527532D01*
X151970793Y-66590782D01*
X152143658Y-66676737D01*
X152820395Y-66000000D01*
X153179605Y-66000000D01*
X153856342Y-66676737D01*
X154029207Y-66590782D01*
X154124687Y-66378642D01*
X154176945Y-66151952D01*
X154183975Y-65919422D01*
X154172335Y-65850000D01*
X158267157Y-65850000D01*
X158274513Y-65924689D01*
X158296299Y-65996508D01*
X158331678Y-66062696D01*
X158379289Y-66120711D01*
X158437304Y-66168322D01*
X158503492Y-66203701D01*
X158575311Y-66225487D01*
X158650000Y-66232843D01*
X159277750Y-66231000D01*
X159373000Y-66135750D01*
X159373000Y-65127000D01*
X159627000Y-65127000D01*
X159627000Y-66135750D01*
X159722250Y-66231000D01*
X160350000Y-66232843D01*
X160424689Y-66225487D01*
X160496508Y-66203701D01*
X160562696Y-66168322D01*
X160620711Y-66120711D01*
X160668322Y-66062696D01*
X160703701Y-65996508D01*
X160725487Y-65924689D01*
X160732843Y-65850000D01*
X160731000Y-65222250D01*
X160635750Y-65127000D01*
X159627000Y-65127000D01*
X159373000Y-65127000D01*
X158364250Y-65127000D01*
X158269000Y-65222250D01*
X158267157Y-65850000D01*
X154172335Y-65850000D01*
X154145505Y-65689988D01*
X154063014Y-65472468D01*
X154029207Y-65409218D01*
X153856342Y-65323263D01*
X153179605Y-66000000D01*
X152820395Y-66000000D01*
X152143658Y-65323263D01*
X151970793Y-65409218D01*
X151875313Y-65621358D01*
X151823055Y-65848048D01*
X151816025Y-66080578D01*
X149282437Y-66080578D01*
X149282843Y-66025000D01*
X149275487Y-65950311D01*
X149253701Y-65878492D01*
X149218322Y-65812304D01*
X149170711Y-65754289D01*
X149112696Y-65706678D01*
X149046508Y-65671299D01*
X148974689Y-65649513D01*
X148900000Y-65642157D01*
X148597250Y-65644000D01*
X148502000Y-65739250D01*
X148248000Y-65739250D01*
X148166592Y-65657842D01*
X148216805Y-65492310D01*
X148231000Y-65348187D01*
X148231000Y-65348185D01*
X148235746Y-65300001D01*
X148231000Y-65251817D01*
X148231000Y-65143658D01*
X152323263Y-65143658D01*
X153000000Y-65820395D01*
X153676737Y-65143658D01*
X153590782Y-64970793D01*
X153378642Y-64875313D01*
X153151952Y-64823055D01*
X152919422Y-64816025D01*
X152689988Y-64854495D01*
X152472468Y-64936986D01*
X152409218Y-64970793D01*
X152323263Y-65143658D01*
X148231000Y-65143658D01*
X148231000Y-64485264D01*
X148262696Y-64468322D01*
X148320711Y-64420711D01*
X148368322Y-64362696D01*
X148403701Y-64296508D01*
X148425487Y-64224689D01*
X148432843Y-64150000D01*
X148432843Y-64131000D01*
X151817157Y-64131000D01*
X151817157Y-64300000D01*
X151824513Y-64374689D01*
X151846299Y-64446508D01*
X151881678Y-64512696D01*
X151929289Y-64570711D01*
X151987304Y-64618322D01*
X152053492Y-64653701D01*
X152125311Y-64675487D01*
X152200000Y-64682843D01*
X153800000Y-64682843D01*
X153874689Y-64675487D01*
X153946508Y-64653701D01*
X154012696Y-64618322D01*
X154070711Y-64570711D01*
X154118322Y-64512696D01*
X154153701Y-64446508D01*
X154175487Y-64374689D01*
X154182843Y-64300000D01*
X154182843Y-64150000D01*
X158267157Y-64150000D01*
X158269000Y-64777750D01*
X158364250Y-64873000D01*
X159373000Y-64873000D01*
X159373000Y-63864250D01*
X159627000Y-63864250D01*
X159627000Y-64873000D01*
X160635750Y-64873000D01*
X160731000Y-64777750D01*
X160732843Y-64150000D01*
X160725487Y-64075311D01*
X160703701Y-64003492D01*
X160668322Y-63937304D01*
X160620711Y-63879289D01*
X160562696Y-63831678D01*
X160496508Y-63796299D01*
X160424689Y-63774513D01*
X160350000Y-63767157D01*
X159722250Y-63769000D01*
X159627000Y-63864250D01*
X159373000Y-63864250D01*
X159277750Y-63769000D01*
X158650000Y-63767157D01*
X158575311Y-63774513D01*
X158503492Y-63796299D01*
X158437304Y-63831678D01*
X158379289Y-63879289D01*
X158331678Y-63937304D01*
X158296299Y-64003492D01*
X158274513Y-64075311D01*
X158267157Y-64150000D01*
X154182843Y-64150000D01*
X154182843Y-62700000D01*
X154175487Y-62625311D01*
X154153701Y-62553492D01*
X154118322Y-62487304D01*
X154070711Y-62429289D01*
X154012696Y-62381678D01*
X153946508Y-62346299D01*
X153874689Y-62324513D01*
X153800000Y-62317157D01*
X153204500Y-62317157D01*
X151606000Y-60718657D01*
X151606000Y-60623934D01*
X151648851Y-60676149D01*
X151742856Y-60753296D01*
X151753407Y-60758936D01*
X151827349Y-60819618D01*
X151997771Y-60910711D01*
X152182690Y-60966805D01*
X152375000Y-60985746D01*
X152567309Y-60966805D01*
X152752228Y-60910711D01*
X152922651Y-60819618D01*
X152996593Y-60758936D01*
X153007144Y-60753296D01*
X153101149Y-60676149D01*
X153178296Y-60582144D01*
X153235622Y-60474895D01*
X153238397Y-60465746D01*
X153285711Y-60377229D01*
X153341805Y-60192310D01*
X153356000Y-60048187D01*
X153356000Y-60031343D01*
X153792335Y-59595008D01*
X153829900Y-59587536D01*
X153873000Y-59569683D01*
X153873000Y-61000000D01*
X153875440Y-61024776D01*
X153882667Y-61048601D01*
X153894403Y-61070557D01*
X153910197Y-61089803D01*
X155910197Y-63089803D01*
X155929443Y-63105597D01*
X155951399Y-63117333D01*
X155975224Y-63124560D01*
X156000000Y-63127000D01*
X161044001Y-63127000D01*
X161044000Y-89873000D01*
X156948658Y-89873000D01*
X157390645Y-89431013D01*
X157412817Y-89412817D01*
X157485421Y-89324348D01*
X157539371Y-89223415D01*
X157572593Y-89113896D01*
X157581000Y-89028540D01*
X157583811Y-89000000D01*
X157581000Y-88971460D01*
X157581000Y-88060657D01*
X158483571Y-87158087D01*
X158471509Y-87172784D01*
X158357202Y-87386637D01*
X158286812Y-87618682D01*
X158263044Y-87860000D01*
X158286812Y-88101318D01*
X158357202Y-88333363D01*
X158471509Y-88547216D01*
X158625340Y-88734660D01*
X158812784Y-88888491D01*
X159026637Y-89002798D01*
X159258682Y-89073188D01*
X159439528Y-89091000D01*
X159560472Y-89091000D01*
X159741318Y-89073188D01*
X159973363Y-89002798D01*
X160187216Y-88888491D01*
X160374660Y-88734660D01*
X160528491Y-88547216D01*
X160642798Y-88333363D01*
X160713188Y-88101318D01*
X160736956Y-87860000D01*
X160713188Y-87618682D01*
X160642798Y-87386637D01*
X160528491Y-87172784D01*
X160374660Y-86985340D01*
X160187216Y-86831509D01*
X159973363Y-86717202D01*
X159741318Y-86646812D01*
X159560472Y-86629000D01*
X159439528Y-86629000D01*
X159258682Y-86646812D01*
X159026637Y-86717202D01*
X158812784Y-86831509D01*
X158798087Y-86843570D01*
X159143431Y-86498227D01*
X159258682Y-86533188D01*
X159439528Y-86551000D01*
X159560472Y-86551000D01*
X159741318Y-86533188D01*
X159973363Y-86462798D01*
X160187216Y-86348491D01*
X160374660Y-86194660D01*
X160528491Y-86007216D01*
X160642798Y-85793363D01*
X160713188Y-85561318D01*
X160736956Y-85320000D01*
X160713188Y-85078682D01*
X160642798Y-84846637D01*
X160528491Y-84632784D01*
X160374660Y-84445340D01*
X160187216Y-84291509D01*
X159973363Y-84177202D01*
X159741318Y-84106812D01*
X159560472Y-84089000D01*
X159439528Y-84089000D01*
X159258682Y-84106812D01*
X159026637Y-84177202D01*
X158812784Y-84291509D01*
X158625340Y-84445340D01*
X158471509Y-84632784D01*
X158357202Y-84846637D01*
X158286812Y-85078682D01*
X158263044Y-85320000D01*
X158286812Y-85561318D01*
X158321773Y-85676569D01*
X156609360Y-87388983D01*
X156587183Y-87407183D01*
X156521530Y-87487183D01*
X156514579Y-87495653D01*
X156460629Y-87596586D01*
X156427407Y-87706105D01*
X156416189Y-87820000D01*
X156419000Y-87848540D01*
X156419001Y-88759341D01*
X149759343Y-95419000D01*
X141990658Y-95419000D01*
X141804501Y-95232843D01*
X141850000Y-95232843D01*
X141924689Y-95225487D01*
X141996508Y-95203701D01*
X142062696Y-95168322D01*
X142120711Y-95120711D01*
X142168322Y-95062696D01*
X142203701Y-94996508D01*
X142225487Y-94924689D01*
X142232843Y-94850000D01*
X142232843Y-94000000D01*
X142303044Y-94000000D01*
X142326812Y-94241318D01*
X142397202Y-94473363D01*
X142511509Y-94687216D01*
X142665340Y-94874660D01*
X142852784Y-95028491D01*
X143066637Y-95142798D01*
X143298682Y-95213188D01*
X143479528Y-95231000D01*
X143600472Y-95231000D01*
X143781318Y-95213188D01*
X144013363Y-95142798D01*
X144227216Y-95028491D01*
X144414660Y-94874660D01*
X144568491Y-94687216D01*
X144682798Y-94473363D01*
X144730235Y-94316981D01*
X144890505Y-94316981D01*
X144975201Y-94542949D01*
X145102353Y-94748052D01*
X145267076Y-94924408D01*
X145463039Y-95065239D01*
X145682712Y-95165134D01*
X145763020Y-95189489D01*
X145953000Y-95128627D01*
X145953000Y-94127000D01*
X146207000Y-94127000D01*
X146207000Y-95128627D01*
X146396980Y-95189489D01*
X146477288Y-95165134D01*
X146696961Y-95065239D01*
X146892924Y-94924408D01*
X147057647Y-94748052D01*
X147184799Y-94542949D01*
X147269495Y-94316981D01*
X147209187Y-94127000D01*
X146207000Y-94127000D01*
X145953000Y-94127000D01*
X144950813Y-94127000D01*
X144890505Y-94316981D01*
X144730235Y-94316981D01*
X144753188Y-94241318D01*
X144776956Y-94000000D01*
X144753188Y-93758682D01*
X144718227Y-93643431D01*
X145090353Y-93271305D01*
X144975201Y-93457051D01*
X144890505Y-93683019D01*
X144950813Y-93873000D01*
X145953000Y-93873000D01*
X145953000Y-93853000D01*
X146207000Y-93853000D01*
X146207000Y-93873000D01*
X147209187Y-93873000D01*
X147269495Y-93683019D01*
X147184799Y-93457051D01*
X147057647Y-93251948D01*
X146897975Y-93081000D01*
X147799369Y-93081000D01*
X147745340Y-93125340D01*
X147591509Y-93312784D01*
X147477202Y-93526637D01*
X147406812Y-93758682D01*
X147383044Y-94000000D01*
X147406812Y-94241318D01*
X147477202Y-94473363D01*
X147591509Y-94687216D01*
X147745340Y-94874660D01*
X147932784Y-95028491D01*
X148146637Y-95142798D01*
X148378682Y-95213188D01*
X148559528Y-95231000D01*
X148680472Y-95231000D01*
X148861318Y-95213188D01*
X149093363Y-95142798D01*
X149307216Y-95028491D01*
X149494660Y-94874660D01*
X149648491Y-94687216D01*
X149762798Y-94473363D01*
X149833188Y-94241318D01*
X149856956Y-94000000D01*
X149833188Y-93758682D01*
X149798227Y-93643430D01*
X155049612Y-88392046D01*
X155076901Y-88392046D01*
X155227788Y-88362033D01*
X155369921Y-88303159D01*
X155497838Y-88217688D01*
X155606621Y-88108905D01*
X155692092Y-87980988D01*
X155750966Y-87838855D01*
X155780979Y-87687968D01*
X155780979Y-87534124D01*
X155750966Y-87383237D01*
X155692092Y-87241104D01*
X155606621Y-87113187D01*
X155497838Y-87004404D01*
X155369921Y-86918933D01*
X155227788Y-86860059D01*
X155076901Y-86830046D01*
X154923057Y-86830046D01*
X154772170Y-86860059D01*
X154768747Y-86861477D01*
X154750987Y-86772191D01*
X154692113Y-86630058D01*
X154606642Y-86502141D01*
X154497859Y-86393358D01*
X154369942Y-86307887D01*
X154227809Y-86249013D01*
X154076922Y-86219000D01*
X153923078Y-86219000D01*
X153772191Y-86249013D01*
X153630058Y-86307887D01*
X153502141Y-86393358D01*
X153393358Y-86502141D01*
X153307887Y-86630058D01*
X153249013Y-86772191D01*
X153219000Y-86923078D01*
X153219000Y-86959343D01*
X153209356Y-86968987D01*
X153187185Y-86987182D01*
X153137743Y-87047428D01*
X153114580Y-87075652D01*
X153111909Y-87080650D01*
X153060630Y-87176584D01*
X153029069Y-87280629D01*
X153027408Y-87286104D01*
X153016190Y-87399999D01*
X153019001Y-87428539D01*
X153019001Y-87659340D01*
X148759343Y-91919000D01*
X145068536Y-91919000D01*
X145039999Y-91916189D01*
X145011462Y-91919000D01*
X145011460Y-91919000D01*
X144926104Y-91927407D01*
X144816585Y-91960629D01*
X144715652Y-92014579D01*
X144627183Y-92087183D01*
X144608990Y-92109352D01*
X143896569Y-92821773D01*
X143781318Y-92786812D01*
X143600472Y-92769000D01*
X143479528Y-92769000D01*
X143298682Y-92786812D01*
X143066637Y-92857202D01*
X142852784Y-92971509D01*
X142665340Y-93125340D01*
X142511509Y-93312784D01*
X142397202Y-93526637D01*
X142326812Y-93758682D01*
X142303044Y-94000000D01*
X142232843Y-94000000D01*
X142232843Y-93150000D01*
X142225487Y-93075311D01*
X142203701Y-93003492D01*
X142168322Y-92937304D01*
X142120711Y-92879289D01*
X142062696Y-92831678D01*
X141996508Y-92796299D01*
X141924689Y-92774513D01*
X141850000Y-92767157D01*
X140150000Y-92767157D01*
X140075311Y-92774513D01*
X140003492Y-92796299D01*
X139937304Y-92831678D01*
X139879289Y-92879289D01*
X139831678Y-92937304D01*
X139796299Y-93003492D01*
X139774513Y-93075311D01*
X139767157Y-93150000D01*
X139767157Y-94850000D01*
X139774513Y-94924689D01*
X139796299Y-94996508D01*
X139831678Y-95062696D01*
X139879289Y-95120711D01*
X139937304Y-95168322D01*
X140003492Y-95203701D01*
X140075311Y-95225487D01*
X140150000Y-95232843D01*
X140417879Y-95232843D01*
X140416189Y-95250000D01*
X140419000Y-95278539D01*
X140427407Y-95363895D01*
X140460629Y-95473414D01*
X140514579Y-95574347D01*
X140587183Y-95662817D01*
X140609360Y-95681017D01*
X141318987Y-96390645D01*
X141337183Y-96412817D01*
X141425652Y-96485421D01*
X141511231Y-96531164D01*
X141526585Y-96539371D01*
X141636104Y-96572593D01*
X141749999Y-96583811D01*
X141778539Y-96581000D01*
X149971460Y-96581000D01*
X150000000Y-96583811D01*
X150028540Y-96581000D01*
X150113896Y-96572593D01*
X150223415Y-96539371D01*
X150324348Y-96485421D01*
X150412817Y-96412817D01*
X150431017Y-96390640D01*
X153873000Y-92948657D01*
X153873000Y-97044000D01*
X137127000Y-97044000D01*
X137127000Y-92000000D01*
X137124560Y-91975224D01*
X137117333Y-91951399D01*
X137105597Y-91929443D01*
X137089803Y-91910197D01*
X135089803Y-89910197D01*
X135070557Y-89894403D01*
X135048601Y-89882667D01*
X135024776Y-89875440D01*
X135000000Y-89873000D01*
X129956000Y-89873000D01*
X129956000Y-87860000D01*
X130263044Y-87860000D01*
X130286812Y-88101318D01*
X130357202Y-88333363D01*
X130471509Y-88547216D01*
X130625340Y-88734660D01*
X130812784Y-88888491D01*
X131026637Y-89002798D01*
X131258682Y-89073188D01*
X131439528Y-89091000D01*
X131560472Y-89091000D01*
X131741318Y-89073188D01*
X131973363Y-89002798D01*
X132187216Y-88888491D01*
X132374660Y-88734660D01*
X132528491Y-88547216D01*
X132642798Y-88333363D01*
X132713188Y-88101318D01*
X132736956Y-87860000D01*
X132713188Y-87618682D01*
X132642798Y-87386637D01*
X132528491Y-87172784D01*
X132374660Y-86985340D01*
X132187216Y-86831509D01*
X131973363Y-86717202D01*
X131741318Y-86646812D01*
X131560472Y-86629000D01*
X131439528Y-86629000D01*
X131258682Y-86646812D01*
X131026637Y-86717202D01*
X130812784Y-86831509D01*
X130625340Y-86985340D01*
X130471509Y-87172784D01*
X130357202Y-87386637D01*
X130286812Y-87618682D01*
X130263044Y-87860000D01*
X129956000Y-87860000D01*
X129956000Y-85636980D01*
X130310511Y-85636980D01*
X130334866Y-85717288D01*
X130434761Y-85936961D01*
X130575592Y-86132924D01*
X130751948Y-86297647D01*
X130957051Y-86424799D01*
X131183019Y-86509495D01*
X131373000Y-86449187D01*
X131373000Y-85447000D01*
X131627000Y-85447000D01*
X131627000Y-86449187D01*
X131816981Y-86509495D01*
X132042949Y-86424799D01*
X132248052Y-86297647D01*
X132424408Y-86132924D01*
X132565239Y-85936961D01*
X132665134Y-85717288D01*
X132689489Y-85636980D01*
X132628627Y-85447000D01*
X131627000Y-85447000D01*
X131373000Y-85447000D01*
X130371373Y-85447000D01*
X130310511Y-85636980D01*
X129956000Y-85636980D01*
X129956000Y-85003020D01*
X130310511Y-85003020D01*
X130371373Y-85193000D01*
X131373000Y-85193000D01*
X131373000Y-84190813D01*
X131627000Y-84190813D01*
X131627000Y-85193000D01*
X132628627Y-85193000D01*
X132689489Y-85003020D01*
X132665134Y-84922712D01*
X132565239Y-84703039D01*
X132424408Y-84507076D01*
X132248052Y-84342353D01*
X132042949Y-84215201D01*
X131816981Y-84130505D01*
X131627000Y-84190813D01*
X131373000Y-84190813D01*
X131183019Y-84130505D01*
X130957051Y-84215201D01*
X130751948Y-84342353D01*
X130575592Y-84507076D01*
X130434761Y-84703039D01*
X130334866Y-84922712D01*
X130310511Y-85003020D01*
X129956000Y-85003020D01*
X129956000Y-65850000D01*
X130267157Y-65850000D01*
X130274513Y-65924689D01*
X130296299Y-65996508D01*
X130331678Y-66062696D01*
X130379289Y-66120711D01*
X130437304Y-66168322D01*
X130503492Y-66203701D01*
X130575311Y-66225487D01*
X130650000Y-66232843D01*
X131277750Y-66231000D01*
X131373000Y-66135750D01*
X131373000Y-65127000D01*
X131627000Y-65127000D01*
X131627000Y-66135750D01*
X131722250Y-66231000D01*
X132350000Y-66232843D01*
X132424689Y-66225487D01*
X132496508Y-66203701D01*
X132562696Y-66168322D01*
X132620711Y-66120711D01*
X132668322Y-66062696D01*
X132703701Y-65996508D01*
X132725487Y-65924689D01*
X132732843Y-65850000D01*
X132731000Y-65222250D01*
X132635750Y-65127000D01*
X131627000Y-65127000D01*
X131373000Y-65127000D01*
X130364250Y-65127000D01*
X130269000Y-65222250D01*
X130267157Y-65850000D01*
X129956000Y-65850000D01*
X129956000Y-64150000D01*
X130267157Y-64150000D01*
X130269000Y-64777750D01*
X130364250Y-64873000D01*
X131373000Y-64873000D01*
X131373000Y-63864250D01*
X131627000Y-63864250D01*
X131627000Y-64873000D01*
X132635750Y-64873000D01*
X132731000Y-64777750D01*
X132732237Y-64356342D01*
X136323263Y-64356342D01*
X136409218Y-64529207D01*
X136621358Y-64624687D01*
X136848048Y-64676945D01*
X137080578Y-64683975D01*
X137310012Y-64645505D01*
X137527532Y-64563014D01*
X137590782Y-64529207D01*
X137676737Y-64356342D01*
X137000000Y-63679605D01*
X136323263Y-64356342D01*
X132732237Y-64356342D01*
X132732843Y-64150000D01*
X132725487Y-64075311D01*
X132703701Y-64003492D01*
X132668322Y-63937304D01*
X132620711Y-63879289D01*
X132562696Y-63831678D01*
X132496508Y-63796299D01*
X132424689Y-63774513D01*
X132350000Y-63767157D01*
X131722250Y-63769000D01*
X131627000Y-63864250D01*
X131373000Y-63864250D01*
X131277750Y-63769000D01*
X130650000Y-63767157D01*
X130575311Y-63774513D01*
X130503492Y-63796299D01*
X130437304Y-63831678D01*
X130379289Y-63879289D01*
X130331678Y-63937304D01*
X130296299Y-64003492D01*
X130274513Y-64075311D01*
X130267157Y-64150000D01*
X129956000Y-64150000D01*
X129956000Y-63580578D01*
X135816025Y-63580578D01*
X135854495Y-63810012D01*
X135936986Y-64027532D01*
X135970793Y-64090782D01*
X136143658Y-64176737D01*
X136820395Y-63500000D01*
X137179605Y-63500000D01*
X137856342Y-64176737D01*
X137910113Y-64150000D01*
X141567157Y-64150000D01*
X141574513Y-64224689D01*
X141596299Y-64296508D01*
X141631678Y-64362696D01*
X141679289Y-64420711D01*
X141737304Y-64468322D01*
X141803492Y-64503701D01*
X141875311Y-64525487D01*
X141950000Y-64532843D01*
X142477750Y-64531000D01*
X142573000Y-64435750D01*
X142573000Y-63277000D01*
X141664250Y-63277000D01*
X141569000Y-63372250D01*
X141567157Y-64150000D01*
X137910113Y-64150000D01*
X138029207Y-64090782D01*
X138124687Y-63878642D01*
X138176945Y-63651952D01*
X138183975Y-63419422D01*
X138145505Y-63189988D01*
X138063014Y-62972468D01*
X138029207Y-62909218D01*
X137856342Y-62823263D01*
X137179605Y-63500000D01*
X136820395Y-63500000D01*
X136143658Y-62823263D01*
X135970793Y-62909218D01*
X135875313Y-63121358D01*
X135823055Y-63348048D01*
X135816025Y-63580578D01*
X129956000Y-63580578D01*
X129956000Y-63127000D01*
X135000000Y-63127000D01*
X135024776Y-63124560D01*
X135048601Y-63117333D01*
X135070557Y-63105597D01*
X135089803Y-63089803D01*
X135535948Y-62643658D01*
X136323263Y-62643658D01*
X137000000Y-63320395D01*
X137676737Y-62643658D01*
X137590782Y-62470793D01*
X137378642Y-62375313D01*
X137151952Y-62323055D01*
X136919422Y-62316025D01*
X136689988Y-62354495D01*
X136472468Y-62436986D01*
X136409218Y-62470793D01*
X136323263Y-62643658D01*
X135535948Y-62643658D01*
X136029606Y-62150000D01*
X141567157Y-62150000D01*
X141569000Y-62927750D01*
X141664250Y-63023000D01*
X142573000Y-63023000D01*
X142573000Y-61864250D01*
X142827000Y-61864250D01*
X142827000Y-63023000D01*
X143735750Y-63023000D01*
X143831000Y-62927750D01*
X143832843Y-62150000D01*
X143825487Y-62075311D01*
X143803701Y-62003492D01*
X143768322Y-61937304D01*
X143720711Y-61879289D01*
X143662696Y-61831678D01*
X143596508Y-61796299D01*
X143524689Y-61774513D01*
X143450000Y-61767157D01*
X142922250Y-61769000D01*
X142827000Y-61864250D01*
X142573000Y-61864250D01*
X142477750Y-61769000D01*
X141950000Y-61767157D01*
X141875311Y-61774513D01*
X141803492Y-61796299D01*
X141737304Y-61831678D01*
X141679289Y-61879289D01*
X141631678Y-61937304D01*
X141596299Y-62003492D01*
X141574513Y-62075311D01*
X141567157Y-62150000D01*
X136029606Y-62150000D01*
X137089803Y-61089803D01*
X137105597Y-61070557D01*
X137117333Y-61048601D01*
X137124560Y-61024776D01*
X137127000Y-61000000D01*
X137127000Y-58677622D01*
X138501983Y-58677622D01*
X138642325Y-58896554D01*
X138931259Y-59037043D01*
X139242050Y-59118465D01*
X139562753Y-59137690D01*
X139881044Y-59093980D01*
X140184693Y-58989014D01*
X140357675Y-58896554D01*
X140498017Y-58677622D01*
X139500000Y-57679605D01*
X138501983Y-58677622D01*
X137127000Y-58677622D01*
X137127000Y-57562753D01*
X137862310Y-57562753D01*
X137906020Y-57881044D01*
X138010986Y-58184693D01*
X138103446Y-58357675D01*
X138322378Y-58498017D01*
X139320395Y-57500000D01*
X139679605Y-57500000D01*
X140677622Y-58498017D01*
X140896554Y-58357675D01*
X141037043Y-58068741D01*
X141118465Y-57757950D01*
X141137690Y-57437247D01*
X141093980Y-57118956D01*
X140989014Y-56815307D01*
X140896554Y-56642325D01*
X140677622Y-56501983D01*
X139679605Y-57500000D01*
X139320395Y-57500000D01*
X138322378Y-56501983D01*
X138103446Y-56642325D01*
X137962957Y-56931259D01*
X137881535Y-57242050D01*
X137862310Y-57562753D01*
X137127000Y-57562753D01*
X137127000Y-55956000D01*
X138974372Y-55956000D01*
X138815307Y-56010986D01*
G36*
X151049874Y-79504375D02*
G01*
X151139001Y-79577519D01*
X151274679Y-79650040D01*
X151421897Y-79694698D01*
X151575000Y-79709778D01*
X151590193Y-79708282D01*
X151601585Y-79714371D01*
X151711104Y-79747593D01*
X151796460Y-79756000D01*
X151796462Y-79756000D01*
X151824999Y-79758811D01*
X151853536Y-79756000D01*
X152086071Y-79756000D01*
X152150311Y-79775487D01*
X152225000Y-79782843D01*
X153675000Y-79782843D01*
X153749689Y-79775487D01*
X153821508Y-79753701D01*
X153871461Y-79727000D01*
X153960750Y-79727000D01*
X154056000Y-79631750D01*
X154057843Y-79600000D01*
X154050487Y-79525311D01*
X154042809Y-79500000D01*
X154050487Y-79474689D01*
X154057843Y-79400000D01*
X154057843Y-79106000D01*
X155446460Y-79106000D01*
X155475000Y-79108811D01*
X155503540Y-79106000D01*
X155588896Y-79097593D01*
X155648974Y-79079369D01*
X154834343Y-79894000D01*
X153813929Y-79894000D01*
X153749689Y-79874513D01*
X153675000Y-79867157D01*
X152225000Y-79867157D01*
X152150311Y-79874513D01*
X152078492Y-79896299D01*
X152028539Y-79923000D01*
X151939250Y-79923000D01*
X151844000Y-80018250D01*
X151842157Y-80050000D01*
X151849513Y-80124689D01*
X151857191Y-80150000D01*
X151849513Y-80175311D01*
X151842157Y-80250000D01*
X151842157Y-80700000D01*
X151849513Y-80774689D01*
X151857191Y-80800000D01*
X151849513Y-80825311D01*
X151842157Y-80900000D01*
X151842157Y-81350000D01*
X151849513Y-81424689D01*
X151857191Y-81450000D01*
X151849513Y-81475311D01*
X151842157Y-81550000D01*
X151842157Y-81844000D01*
X150103540Y-81844000D01*
X150075000Y-81841189D01*
X150046460Y-81844000D01*
X149961104Y-81852407D01*
X149851585Y-81885629D01*
X149750652Y-81939579D01*
X149662183Y-82012183D01*
X149643990Y-82034352D01*
X148509343Y-83169000D01*
X145240658Y-83169000D01*
X145077658Y-83006000D01*
X146186071Y-83006000D01*
X146250311Y-83025487D01*
X146325000Y-83032843D01*
X147775000Y-83032843D01*
X147849689Y-83025487D01*
X147921508Y-83003701D01*
X147987696Y-82968322D01*
X148045711Y-82920711D01*
X148093322Y-82862696D01*
X148128701Y-82796508D01*
X148150487Y-82724689D01*
X148157843Y-82650000D01*
X148157843Y-82200000D01*
X148150487Y-82125311D01*
X148142809Y-82100000D01*
X148150487Y-82074689D01*
X148157843Y-82000000D01*
X148157843Y-81550000D01*
X148150487Y-81475311D01*
X148142809Y-81450000D01*
X148150487Y-81424689D01*
X148157843Y-81350000D01*
X148157843Y-80900000D01*
X148150487Y-80825311D01*
X148142809Y-80800000D01*
X148150487Y-80774689D01*
X148157843Y-80700000D01*
X148157843Y-80250000D01*
X148150487Y-80175311D01*
X148142809Y-80150000D01*
X148150487Y-80124689D01*
X148157843Y-80050000D01*
X148157843Y-79760914D01*
X148239001Y-79827519D01*
X148374680Y-79900040D01*
X148521898Y-79944698D01*
X148675000Y-79959778D01*
X148828102Y-79944698D01*
X148975320Y-79900040D01*
X149110999Y-79827519D01*
X149200125Y-79754375D01*
X150250000Y-78704501D01*
X151049874Y-79504375D01*
X151049874Y-79504375D01*
G37*
X151049874Y-79504375D02*
X151139001Y-79577519D01*
X151274679Y-79650040D01*
X151421897Y-79694698D01*
X151575000Y-79709778D01*
X151590193Y-79708282D01*
X151601585Y-79714371D01*
X151711104Y-79747593D01*
X151796460Y-79756000D01*
X151796462Y-79756000D01*
X151824999Y-79758811D01*
X151853536Y-79756000D01*
X152086071Y-79756000D01*
X152150311Y-79775487D01*
X152225000Y-79782843D01*
X153675000Y-79782843D01*
X153749689Y-79775487D01*
X153821508Y-79753701D01*
X153871461Y-79727000D01*
X153960750Y-79727000D01*
X154056000Y-79631750D01*
X154057843Y-79600000D01*
X154050487Y-79525311D01*
X154042809Y-79500000D01*
X154050487Y-79474689D01*
X154057843Y-79400000D01*
X154057843Y-79106000D01*
X155446460Y-79106000D01*
X155475000Y-79108811D01*
X155503540Y-79106000D01*
X155588896Y-79097593D01*
X155648974Y-79079369D01*
X154834343Y-79894000D01*
X153813929Y-79894000D01*
X153749689Y-79874513D01*
X153675000Y-79867157D01*
X152225000Y-79867157D01*
X152150311Y-79874513D01*
X152078492Y-79896299D01*
X152028539Y-79923000D01*
X151939250Y-79923000D01*
X151844000Y-80018250D01*
X151842157Y-80050000D01*
X151849513Y-80124689D01*
X151857191Y-80150000D01*
X151849513Y-80175311D01*
X151842157Y-80250000D01*
X151842157Y-80700000D01*
X151849513Y-80774689D01*
X151857191Y-80800000D01*
X151849513Y-80825311D01*
X151842157Y-80900000D01*
X151842157Y-81350000D01*
X151849513Y-81424689D01*
X151857191Y-81450000D01*
X151849513Y-81475311D01*
X151842157Y-81550000D01*
X151842157Y-81844000D01*
X150103540Y-81844000D01*
X150075000Y-81841189D01*
X150046460Y-81844000D01*
X149961104Y-81852407D01*
X149851585Y-81885629D01*
X149750652Y-81939579D01*
X149662183Y-82012183D01*
X149643990Y-82034352D01*
X148509343Y-83169000D01*
X145240658Y-83169000D01*
X145077658Y-83006000D01*
X146186071Y-83006000D01*
X146250311Y-83025487D01*
X146325000Y-83032843D01*
X147775000Y-83032843D01*
X147849689Y-83025487D01*
X147921508Y-83003701D01*
X147987696Y-82968322D01*
X148045711Y-82920711D01*
X148093322Y-82862696D01*
X148128701Y-82796508D01*
X148150487Y-82724689D01*
X148157843Y-82650000D01*
X148157843Y-82200000D01*
X148150487Y-82125311D01*
X148142809Y-82100000D01*
X148150487Y-82074689D01*
X148157843Y-82000000D01*
X148157843Y-81550000D01*
X148150487Y-81475311D01*
X148142809Y-81450000D01*
X148150487Y-81424689D01*
X148157843Y-81350000D01*
X148157843Y-80900000D01*
X148150487Y-80825311D01*
X148142809Y-80800000D01*
X148150487Y-80774689D01*
X148157843Y-80700000D01*
X148157843Y-80250000D01*
X148150487Y-80175311D01*
X148142809Y-80150000D01*
X148150487Y-80124689D01*
X148157843Y-80050000D01*
X148157843Y-79760914D01*
X148239001Y-79827519D01*
X148374680Y-79900040D01*
X148521898Y-79944698D01*
X148675000Y-79959778D01*
X148828102Y-79944698D01*
X148975320Y-79900040D01*
X149110999Y-79827519D01*
X149200125Y-79754375D01*
X150250000Y-78704501D01*
X151049874Y-79504375D01*
G36*
X136127000Y-73748000D02*
G01*
X136147000Y-73748000D01*
X136147000Y-74002000D01*
X136127000Y-74002000D01*
X136127000Y-74685750D01*
X136222250Y-74781000D01*
X136419000Y-74782435D01*
X136419000Y-76273036D01*
X136416189Y-76301576D01*
X136427146Y-76412817D01*
X136427407Y-76415471D01*
X136460629Y-76524990D01*
X136514579Y-76625923D01*
X136587183Y-76714393D01*
X136609360Y-76732593D01*
X138142411Y-78265645D01*
X138160607Y-78287817D01*
X138225642Y-78341189D01*
X138249076Y-78360421D01*
X138350009Y-78414371D01*
X138459528Y-78447593D01*
X138573424Y-78458811D01*
X138601964Y-78456000D01*
X145942157Y-78456000D01*
X145942157Y-78750000D01*
X145949513Y-78824689D01*
X145957191Y-78850000D01*
X145949513Y-78875311D01*
X145942157Y-78950000D01*
X145942157Y-79244000D01*
X135414199Y-79244000D01*
X135381011Y-79210812D01*
X135381011Y-74754465D01*
X135450311Y-74775487D01*
X135525000Y-74782843D01*
X135777750Y-74781000D01*
X135873000Y-74685750D01*
X135873000Y-74002000D01*
X135853000Y-74002000D01*
X135853000Y-73748000D01*
X135873000Y-73748000D01*
X135873000Y-73728000D01*
X136127000Y-73728000D01*
X136127000Y-73748000D01*
X136127000Y-73748000D01*
G37*
X136127000Y-73748000D02*
X136147000Y-73748000D01*
X136147000Y-74002000D01*
X136127000Y-74002000D01*
X136127000Y-74685750D01*
X136222250Y-74781000D01*
X136419000Y-74782435D01*
X136419000Y-76273036D01*
X136416189Y-76301576D01*
X136427146Y-76412817D01*
X136427407Y-76415471D01*
X136460629Y-76524990D01*
X136514579Y-76625923D01*
X136587183Y-76714393D01*
X136609360Y-76732593D01*
X138142411Y-78265645D01*
X138160607Y-78287817D01*
X138225642Y-78341189D01*
X138249076Y-78360421D01*
X138350009Y-78414371D01*
X138459528Y-78447593D01*
X138573424Y-78458811D01*
X138601964Y-78456000D01*
X145942157Y-78456000D01*
X145942157Y-78750000D01*
X145949513Y-78824689D01*
X145957191Y-78850000D01*
X145949513Y-78875311D01*
X145942157Y-78950000D01*
X145942157Y-79244000D01*
X135414199Y-79244000D01*
X135381011Y-79210812D01*
X135381011Y-74754465D01*
X135450311Y-74775487D01*
X135525000Y-74782843D01*
X135777750Y-74781000D01*
X135873000Y-74685750D01*
X135873000Y-74002000D01*
X135853000Y-74002000D01*
X135853000Y-73748000D01*
X135873000Y-73748000D01*
X135873000Y-73728000D01*
X136127000Y-73728000D01*
X136127000Y-73748000D01*
G36*
X133342157Y-69150000D02*
G01*
X133344000Y-69452750D01*
X133439250Y-69548000D01*
X134073000Y-69548000D01*
X134073000Y-69528000D01*
X134327000Y-69528000D01*
X134327000Y-69548000D01*
X134347000Y-69548000D01*
X134347000Y-69802000D01*
X134327000Y-69802000D01*
X134327000Y-70485750D01*
X134422250Y-70581000D01*
X134675000Y-70582843D01*
X134749689Y-70575487D01*
X134821508Y-70553701D01*
X134887696Y-70518322D01*
X134945711Y-70470711D01*
X134962378Y-70450402D01*
X134997721Y-70535729D01*
X135121495Y-70720970D01*
X135279030Y-70878505D01*
X135419000Y-70972030D01*
X135419001Y-71321092D01*
X135417856Y-71321704D01*
X135323851Y-71398851D01*
X135246704Y-71492856D01*
X135189378Y-71600105D01*
X135154077Y-71716477D01*
X135142157Y-71837500D01*
X135142157Y-72412500D01*
X135154077Y-72533523D01*
X135189378Y-72649895D01*
X135246704Y-72757144D01*
X135323851Y-72851149D01*
X135417856Y-72928296D01*
X135495918Y-72970021D01*
X135450311Y-72974513D01*
X135378492Y-72996299D01*
X135312304Y-73031678D01*
X135284485Y-73054509D01*
X135212828Y-72967194D01*
X135190656Y-72948998D01*
X132678227Y-70436569D01*
X132713188Y-70321318D01*
X132725136Y-70200000D01*
X133342157Y-70200000D01*
X133349513Y-70274689D01*
X133371299Y-70346508D01*
X133406678Y-70412696D01*
X133454289Y-70470711D01*
X133512304Y-70518322D01*
X133578492Y-70553701D01*
X133650311Y-70575487D01*
X133725000Y-70582843D01*
X133977750Y-70581000D01*
X134073000Y-70485750D01*
X134073000Y-69802000D01*
X133439250Y-69802000D01*
X133344000Y-69897250D01*
X133342157Y-70200000D01*
X132725136Y-70200000D01*
X132736956Y-70080000D01*
X132713188Y-69838682D01*
X132642798Y-69606637D01*
X132528491Y-69392784D01*
X132374660Y-69205340D01*
X132253614Y-69106000D01*
X133346490Y-69106000D01*
X133342157Y-69150000D01*
X133342157Y-69150000D01*
G37*
X133342157Y-69150000D02*
X133344000Y-69452750D01*
X133439250Y-69548000D01*
X134073000Y-69548000D01*
X134073000Y-69528000D01*
X134327000Y-69528000D01*
X134327000Y-69548000D01*
X134347000Y-69548000D01*
X134347000Y-69802000D01*
X134327000Y-69802000D01*
X134327000Y-70485750D01*
X134422250Y-70581000D01*
X134675000Y-70582843D01*
X134749689Y-70575487D01*
X134821508Y-70553701D01*
X134887696Y-70518322D01*
X134945711Y-70470711D01*
X134962378Y-70450402D01*
X134997721Y-70535729D01*
X135121495Y-70720970D01*
X135279030Y-70878505D01*
X135419000Y-70972030D01*
X135419001Y-71321092D01*
X135417856Y-71321704D01*
X135323851Y-71398851D01*
X135246704Y-71492856D01*
X135189378Y-71600105D01*
X135154077Y-71716477D01*
X135142157Y-71837500D01*
X135142157Y-72412500D01*
X135154077Y-72533523D01*
X135189378Y-72649895D01*
X135246704Y-72757144D01*
X135323851Y-72851149D01*
X135417856Y-72928296D01*
X135495918Y-72970021D01*
X135450311Y-72974513D01*
X135378492Y-72996299D01*
X135312304Y-73031678D01*
X135284485Y-73054509D01*
X135212828Y-72967194D01*
X135190656Y-72948998D01*
X132678227Y-70436569D01*
X132713188Y-70321318D01*
X132725136Y-70200000D01*
X133342157Y-70200000D01*
X133349513Y-70274689D01*
X133371299Y-70346508D01*
X133406678Y-70412696D01*
X133454289Y-70470711D01*
X133512304Y-70518322D01*
X133578492Y-70553701D01*
X133650311Y-70575487D01*
X133725000Y-70582843D01*
X133977750Y-70581000D01*
X134073000Y-70485750D01*
X134073000Y-69802000D01*
X133439250Y-69802000D01*
X133344000Y-69897250D01*
X133342157Y-70200000D01*
X132725136Y-70200000D01*
X132736956Y-70080000D01*
X132713188Y-69838682D01*
X132642798Y-69606637D01*
X132528491Y-69392784D01*
X132374660Y-69205340D01*
X132253614Y-69106000D01*
X133346490Y-69106000D01*
X133342157Y-69150000D01*
M02*
