M48
; DRILL file {KiCad 5.1.2-1.fc30} date Sun Jun  9 13:39:01 2019
; FORMAT={-:-/ absolute / inch / decimal}
; #@! TF.CreationDate,2019-06-09T13:39:01+09:00
; #@! TF.GenerationSoftware,Kicad,Pcbnew,5.1.2-1.fc30
; #@! TF.FileFunction,Plated,1,2,PTH
FMAT,2
INCH
T1C0.0157
T2C0.0236
T3C0.0315
T4C0.0394
%
G90
G05
T1
X5.748Y-2.7559
X6.063Y-3.4252
X6.0728Y-2.9823
X6.1024Y-3.0248
X6.1024Y-3.4493
T2
X5.2913Y-2.811
X5.3465Y-2.9724
X5.4626Y-3.0118
X5.5315Y-2.3917
X5.5315Y-2.4803
X5.5315Y-3.0118
X5.5413Y-2.7264
X5.6201Y-2.3917
X5.6299Y-2.7657
X5.6988Y-2.8346
X5.7185Y-2.9921
X5.8465Y-2.687
X5.9055Y-2.7559
X5.9143Y-3.1289
X5.9154Y-2.6181
X5.9547Y-3.1594
X6.0039Y-2.9724
X6.063Y-2.9134
X6.0945Y-2.874
X6.2008Y-2.5
T3
X6.0236Y-2.5
X6.0236Y-2.5984
X5.3937Y-2.5
X5.3937Y-2.5984
T4
X5.1772Y-2.5591
X5.1772Y-2.6591
X5.1772Y-2.7591
X5.1772Y-2.8591
X5.1772Y-2.9591
X5.1772Y-3.0591
X5.1772Y-3.1591
X5.1772Y-3.2591
X5.1772Y-3.3591
X5.1772Y-3.4591
X5.5512Y-3.7008
X5.6512Y-3.7008
X5.7512Y-3.7008
X5.8512Y-3.7008
X6.2795Y-2.5591
X6.2795Y-2.6591
X6.2795Y-2.7591
X6.2795Y-2.8591
X6.2795Y-2.9591
X6.2795Y-3.0591
X6.2795Y-3.1591
X6.2795Y-3.2591
X6.2795Y-3.3591
X6.2795Y-3.4591
T0
M30
