G04 #@! TF.GenerationSoftware,KiCad,Pcbnew,5.1.2-1.fc30*
G04 #@! TF.CreationDate,2019-06-09T13:39:02+09:00*
G04 #@! TF.ProjectId,driver,64726976-6572-42e6-9b69-6361645f7063,rev?*
G04 #@! TF.SameCoordinates,Original*
G04 #@! TF.FileFunction,Soldermask,Top*
G04 #@! TF.FilePolarity,Negative*
%FSLAX46Y46*%
G04 Gerber Fmt 4.6, Leading zero omitted, Abs format (unit mm)*
G04 Created by KiCad (PCBNEW 5.1.2-1.fc30) date 2019-06-09 13:39:02*
%MOMM*%
%LPD*%
G04 APERTURE LIST*
%ADD10C,0.100000*%
G04 APERTURE END LIST*
D10*
G36*
X158375256Y-92391298D02*
G01*
X158481579Y-92412447D01*
X158782042Y-92536903D01*
X159052451Y-92717585D01*
X159282415Y-92947549D01*
X159463097Y-93217958D01*
X159587553Y-93518421D01*
X159651000Y-93837391D01*
X159651000Y-94162609D01*
X159587553Y-94481579D01*
X159463097Y-94782042D01*
X159282415Y-95052451D01*
X159052451Y-95282415D01*
X158782042Y-95463097D01*
X158481579Y-95587553D01*
X158375256Y-95608702D01*
X158162611Y-95651000D01*
X157837389Y-95651000D01*
X157624744Y-95608702D01*
X157518421Y-95587553D01*
X157217958Y-95463097D01*
X156947549Y-95282415D01*
X156717585Y-95052451D01*
X156536903Y-94782042D01*
X156412447Y-94481579D01*
X156349000Y-94162609D01*
X156349000Y-93837391D01*
X156412447Y-93518421D01*
X156536903Y-93217958D01*
X156717585Y-92947549D01*
X156947549Y-92717585D01*
X157217958Y-92536903D01*
X157518421Y-92412447D01*
X157624744Y-92391298D01*
X157837389Y-92349000D01*
X158162611Y-92349000D01*
X158375256Y-92391298D01*
X158375256Y-92391298D01*
G37*
G36*
X133375256Y-92391298D02*
G01*
X133481579Y-92412447D01*
X133782042Y-92536903D01*
X134052451Y-92717585D01*
X134282415Y-92947549D01*
X134463097Y-93217958D01*
X134587553Y-93518421D01*
X134651000Y-93837391D01*
X134651000Y-94162609D01*
X134587553Y-94481579D01*
X134463097Y-94782042D01*
X134282415Y-95052451D01*
X134052451Y-95282415D01*
X133782042Y-95463097D01*
X133481579Y-95587553D01*
X133375256Y-95608702D01*
X133162611Y-95651000D01*
X132837389Y-95651000D01*
X132624744Y-95608702D01*
X132518421Y-95587553D01*
X132217958Y-95463097D01*
X131947549Y-95282415D01*
X131717585Y-95052451D01*
X131536903Y-94782042D01*
X131412447Y-94481579D01*
X131349000Y-94162609D01*
X131349000Y-93837391D01*
X131412447Y-93518421D01*
X131536903Y-93217958D01*
X131717585Y-92947549D01*
X131947549Y-92717585D01*
X132217958Y-92536903D01*
X132518421Y-92412447D01*
X132624744Y-92391298D01*
X132837389Y-92349000D01*
X133162611Y-92349000D01*
X133375256Y-92391298D01*
X133375256Y-92391298D01*
G37*
G36*
X148730442Y-93105518D02*
G01*
X148796627Y-93112037D01*
X148966466Y-93163557D01*
X149122991Y-93247222D01*
X149158729Y-93276552D01*
X149260186Y-93359814D01*
X149343448Y-93461271D01*
X149372778Y-93497009D01*
X149456443Y-93653534D01*
X149507963Y-93823373D01*
X149525359Y-94000000D01*
X149507963Y-94176627D01*
X149456443Y-94346466D01*
X149372778Y-94502991D01*
X149343448Y-94538729D01*
X149260186Y-94640186D01*
X149158729Y-94723448D01*
X149122991Y-94752778D01*
X148966466Y-94836443D01*
X148796627Y-94887963D01*
X148730443Y-94894481D01*
X148664260Y-94901000D01*
X148575740Y-94901000D01*
X148509557Y-94894481D01*
X148443373Y-94887963D01*
X148273534Y-94836443D01*
X148117009Y-94752778D01*
X148081271Y-94723448D01*
X147979814Y-94640186D01*
X147896552Y-94538729D01*
X147867222Y-94502991D01*
X147783557Y-94346466D01*
X147732037Y-94176627D01*
X147714641Y-94000000D01*
X147732037Y-93823373D01*
X147783557Y-93653534D01*
X147867222Y-93497009D01*
X147896552Y-93461271D01*
X147979814Y-93359814D01*
X148081271Y-93276552D01*
X148117009Y-93247222D01*
X148273534Y-93163557D01*
X148443373Y-93112037D01*
X148509557Y-93105519D01*
X148575740Y-93099000D01*
X148664260Y-93099000D01*
X148730442Y-93105518D01*
X148730442Y-93105518D01*
G37*
G36*
X141901000Y-94901000D02*
G01*
X140099000Y-94901000D01*
X140099000Y-93099000D01*
X141901000Y-93099000D01*
X141901000Y-94901000D01*
X141901000Y-94901000D01*
G37*
G36*
X143650442Y-93105518D02*
G01*
X143716627Y-93112037D01*
X143886466Y-93163557D01*
X144042991Y-93247222D01*
X144078729Y-93276552D01*
X144180186Y-93359814D01*
X144263448Y-93461271D01*
X144292778Y-93497009D01*
X144376443Y-93653534D01*
X144427963Y-93823373D01*
X144445359Y-94000000D01*
X144427963Y-94176627D01*
X144376443Y-94346466D01*
X144292778Y-94502991D01*
X144263448Y-94538729D01*
X144180186Y-94640186D01*
X144078729Y-94723448D01*
X144042991Y-94752778D01*
X143886466Y-94836443D01*
X143716627Y-94887963D01*
X143650443Y-94894481D01*
X143584260Y-94901000D01*
X143495740Y-94901000D01*
X143429557Y-94894481D01*
X143363373Y-94887963D01*
X143193534Y-94836443D01*
X143037009Y-94752778D01*
X143001271Y-94723448D01*
X142899814Y-94640186D01*
X142816552Y-94538729D01*
X142787222Y-94502991D01*
X142703557Y-94346466D01*
X142652037Y-94176627D01*
X142634641Y-94000000D01*
X142652037Y-93823373D01*
X142703557Y-93653534D01*
X142787222Y-93497009D01*
X142816552Y-93461271D01*
X142899814Y-93359814D01*
X143001271Y-93276552D01*
X143037009Y-93247222D01*
X143193534Y-93163557D01*
X143363373Y-93112037D01*
X143429557Y-93105519D01*
X143495740Y-93099000D01*
X143584260Y-93099000D01*
X143650442Y-93105518D01*
X143650442Y-93105518D01*
G37*
G36*
X146190442Y-93105518D02*
G01*
X146256627Y-93112037D01*
X146426466Y-93163557D01*
X146582991Y-93247222D01*
X146618729Y-93276552D01*
X146720186Y-93359814D01*
X146803448Y-93461271D01*
X146832778Y-93497009D01*
X146916443Y-93653534D01*
X146967963Y-93823373D01*
X146985359Y-94000000D01*
X146967963Y-94176627D01*
X146916443Y-94346466D01*
X146832778Y-94502991D01*
X146803448Y-94538729D01*
X146720186Y-94640186D01*
X146618729Y-94723448D01*
X146582991Y-94752778D01*
X146426466Y-94836443D01*
X146256627Y-94887963D01*
X146190443Y-94894481D01*
X146124260Y-94901000D01*
X146035740Y-94901000D01*
X145969557Y-94894481D01*
X145903373Y-94887963D01*
X145733534Y-94836443D01*
X145577009Y-94752778D01*
X145541271Y-94723448D01*
X145439814Y-94640186D01*
X145356552Y-94538729D01*
X145327222Y-94502991D01*
X145243557Y-94346466D01*
X145192037Y-94176627D01*
X145174641Y-94000000D01*
X145192037Y-93823373D01*
X145243557Y-93653534D01*
X145327222Y-93497009D01*
X145356552Y-93461271D01*
X145439814Y-93359814D01*
X145541271Y-93276552D01*
X145577009Y-93247222D01*
X145733534Y-93163557D01*
X145903373Y-93112037D01*
X145969557Y-93105519D01*
X146035740Y-93099000D01*
X146124260Y-93099000D01*
X146190442Y-93105518D01*
X146190442Y-93105518D01*
G37*
G36*
X131610442Y-86965518D02*
G01*
X131676627Y-86972037D01*
X131846466Y-87023557D01*
X132002991Y-87107222D01*
X132038729Y-87136552D01*
X132140186Y-87219814D01*
X132223448Y-87321271D01*
X132252778Y-87357009D01*
X132336443Y-87513534D01*
X132387963Y-87683373D01*
X132405359Y-87860000D01*
X132387963Y-88036627D01*
X132336443Y-88206466D01*
X132252778Y-88362991D01*
X132223448Y-88398729D01*
X132140186Y-88500186D01*
X132038729Y-88583448D01*
X132002991Y-88612778D01*
X131846466Y-88696443D01*
X131676627Y-88747963D01*
X131610443Y-88754481D01*
X131544260Y-88761000D01*
X131455740Y-88761000D01*
X131389557Y-88754481D01*
X131323373Y-88747963D01*
X131153534Y-88696443D01*
X130997009Y-88612778D01*
X130961271Y-88583448D01*
X130859814Y-88500186D01*
X130776552Y-88398729D01*
X130747222Y-88362991D01*
X130663557Y-88206466D01*
X130612037Y-88036627D01*
X130594641Y-87860000D01*
X130612037Y-87683373D01*
X130663557Y-87513534D01*
X130747222Y-87357009D01*
X130776552Y-87321271D01*
X130859814Y-87219814D01*
X130961271Y-87136552D01*
X130997009Y-87107222D01*
X131153534Y-87023557D01*
X131323373Y-86972037D01*
X131389558Y-86965518D01*
X131455740Y-86959000D01*
X131544260Y-86959000D01*
X131610442Y-86965518D01*
X131610442Y-86965518D01*
G37*
G36*
X159610442Y-86965518D02*
G01*
X159676627Y-86972037D01*
X159846466Y-87023557D01*
X160002991Y-87107222D01*
X160038729Y-87136552D01*
X160140186Y-87219814D01*
X160223448Y-87321271D01*
X160252778Y-87357009D01*
X160336443Y-87513534D01*
X160387963Y-87683373D01*
X160405359Y-87860000D01*
X160387963Y-88036627D01*
X160336443Y-88206466D01*
X160252778Y-88362991D01*
X160223448Y-88398729D01*
X160140186Y-88500186D01*
X160038729Y-88583448D01*
X160002991Y-88612778D01*
X159846466Y-88696443D01*
X159676627Y-88747963D01*
X159610443Y-88754481D01*
X159544260Y-88761000D01*
X159455740Y-88761000D01*
X159389557Y-88754481D01*
X159323373Y-88747963D01*
X159153534Y-88696443D01*
X158997009Y-88612778D01*
X158961271Y-88583448D01*
X158859814Y-88500186D01*
X158776552Y-88398729D01*
X158747222Y-88362991D01*
X158663557Y-88206466D01*
X158612037Y-88036627D01*
X158594641Y-87860000D01*
X158612037Y-87683373D01*
X158663557Y-87513534D01*
X158747222Y-87357009D01*
X158776552Y-87321271D01*
X158859814Y-87219814D01*
X158961271Y-87136552D01*
X158997009Y-87107222D01*
X159153534Y-87023557D01*
X159323373Y-86972037D01*
X159389558Y-86965518D01*
X159455740Y-86959000D01*
X159544260Y-86959000D01*
X159610442Y-86965518D01*
X159610442Y-86965518D01*
G37*
G36*
X131610443Y-84425519D02*
G01*
X131676627Y-84432037D01*
X131846466Y-84483557D01*
X132002991Y-84567222D01*
X132038729Y-84596552D01*
X132140186Y-84679814D01*
X132223448Y-84781271D01*
X132252778Y-84817009D01*
X132336443Y-84973534D01*
X132387963Y-85143373D01*
X132405359Y-85320000D01*
X132387963Y-85496627D01*
X132336443Y-85666466D01*
X132252778Y-85822991D01*
X132223448Y-85858729D01*
X132140186Y-85960186D01*
X132038729Y-86043448D01*
X132002991Y-86072778D01*
X131846466Y-86156443D01*
X131676627Y-86207963D01*
X131610442Y-86214482D01*
X131544260Y-86221000D01*
X131455740Y-86221000D01*
X131389558Y-86214482D01*
X131323373Y-86207963D01*
X131153534Y-86156443D01*
X130997009Y-86072778D01*
X130961271Y-86043448D01*
X130859814Y-85960186D01*
X130776552Y-85858729D01*
X130747222Y-85822991D01*
X130663557Y-85666466D01*
X130612037Y-85496627D01*
X130594641Y-85320000D01*
X130612037Y-85143373D01*
X130663557Y-84973534D01*
X130747222Y-84817009D01*
X130776552Y-84781271D01*
X130859814Y-84679814D01*
X130961271Y-84596552D01*
X130997009Y-84567222D01*
X131153534Y-84483557D01*
X131323373Y-84432037D01*
X131389557Y-84425519D01*
X131455740Y-84419000D01*
X131544260Y-84419000D01*
X131610443Y-84425519D01*
X131610443Y-84425519D01*
G37*
G36*
X159610443Y-84425519D02*
G01*
X159676627Y-84432037D01*
X159846466Y-84483557D01*
X160002991Y-84567222D01*
X160038729Y-84596552D01*
X160140186Y-84679814D01*
X160223448Y-84781271D01*
X160252778Y-84817009D01*
X160336443Y-84973534D01*
X160387963Y-85143373D01*
X160405359Y-85320000D01*
X160387963Y-85496627D01*
X160336443Y-85666466D01*
X160252778Y-85822991D01*
X160223448Y-85858729D01*
X160140186Y-85960186D01*
X160038729Y-86043448D01*
X160002991Y-86072778D01*
X159846466Y-86156443D01*
X159676627Y-86207963D01*
X159610442Y-86214482D01*
X159544260Y-86221000D01*
X159455740Y-86221000D01*
X159389558Y-86214482D01*
X159323373Y-86207963D01*
X159153534Y-86156443D01*
X158997009Y-86072778D01*
X158961271Y-86043448D01*
X158859814Y-85960186D01*
X158776552Y-85858729D01*
X158747222Y-85822991D01*
X158663557Y-85666466D01*
X158612037Y-85496627D01*
X158594641Y-85320000D01*
X158612037Y-85143373D01*
X158663557Y-84973534D01*
X158747222Y-84817009D01*
X158776552Y-84781271D01*
X158859814Y-84679814D01*
X158961271Y-84596552D01*
X158997009Y-84567222D01*
X159153534Y-84483557D01*
X159323373Y-84432037D01*
X159389557Y-84425519D01*
X159455740Y-84419000D01*
X159544260Y-84419000D01*
X159610443Y-84425519D01*
X159610443Y-84425519D01*
G37*
G36*
X131610442Y-81885518D02*
G01*
X131676627Y-81892037D01*
X131846466Y-81943557D01*
X132002991Y-82027222D01*
X132031964Y-82051000D01*
X132140186Y-82139814D01*
X132223448Y-82241271D01*
X132252778Y-82277009D01*
X132336443Y-82433534D01*
X132387963Y-82603373D01*
X132405359Y-82780000D01*
X132387963Y-82956627D01*
X132336443Y-83126466D01*
X132252778Y-83282991D01*
X132223448Y-83318729D01*
X132140186Y-83420186D01*
X132038729Y-83503448D01*
X132002991Y-83532778D01*
X131846466Y-83616443D01*
X131676627Y-83667963D01*
X131610442Y-83674482D01*
X131544260Y-83681000D01*
X131455740Y-83681000D01*
X131389558Y-83674482D01*
X131323373Y-83667963D01*
X131153534Y-83616443D01*
X130997009Y-83532778D01*
X130961271Y-83503448D01*
X130859814Y-83420186D01*
X130776552Y-83318729D01*
X130747222Y-83282991D01*
X130663557Y-83126466D01*
X130612037Y-82956627D01*
X130594641Y-82780000D01*
X130612037Y-82603373D01*
X130663557Y-82433534D01*
X130747222Y-82277009D01*
X130776552Y-82241271D01*
X130859814Y-82139814D01*
X130968036Y-82051000D01*
X130997009Y-82027222D01*
X131153534Y-81943557D01*
X131323373Y-81892037D01*
X131389558Y-81885518D01*
X131455740Y-81879000D01*
X131544260Y-81879000D01*
X131610442Y-81885518D01*
X131610442Y-81885518D01*
G37*
G36*
X159610442Y-81885518D02*
G01*
X159676627Y-81892037D01*
X159846466Y-81943557D01*
X160002991Y-82027222D01*
X160031964Y-82051000D01*
X160140186Y-82139814D01*
X160223448Y-82241271D01*
X160252778Y-82277009D01*
X160336443Y-82433534D01*
X160387963Y-82603373D01*
X160405359Y-82780000D01*
X160387963Y-82956627D01*
X160336443Y-83126466D01*
X160252778Y-83282991D01*
X160223448Y-83318729D01*
X160140186Y-83420186D01*
X160038729Y-83503448D01*
X160002991Y-83532778D01*
X159846466Y-83616443D01*
X159676627Y-83667963D01*
X159610442Y-83674482D01*
X159544260Y-83681000D01*
X159455740Y-83681000D01*
X159389558Y-83674482D01*
X159323373Y-83667963D01*
X159153534Y-83616443D01*
X158997009Y-83532778D01*
X158961271Y-83503448D01*
X158859814Y-83420186D01*
X158776552Y-83318729D01*
X158747222Y-83282991D01*
X158663557Y-83126466D01*
X158612037Y-82956627D01*
X158594641Y-82780000D01*
X158612037Y-82603373D01*
X158663557Y-82433534D01*
X158747222Y-82277009D01*
X158776552Y-82241271D01*
X158859814Y-82139814D01*
X158968036Y-82051000D01*
X158997009Y-82027222D01*
X159153534Y-81943557D01*
X159323373Y-81892037D01*
X159389558Y-81885518D01*
X159455740Y-81879000D01*
X159544260Y-81879000D01*
X159610442Y-81885518D01*
X159610442Y-81885518D01*
G37*
G36*
X153726000Y-82701000D02*
G01*
X152174000Y-82701000D01*
X152174000Y-76299000D01*
X153726000Y-76299000D01*
X153726000Y-82701000D01*
X153726000Y-82701000D01*
G37*
G36*
X147826000Y-82701000D02*
G01*
X146274000Y-82701000D01*
X146274000Y-76299000D01*
X147826000Y-76299000D01*
X147826000Y-82701000D01*
X147826000Y-82701000D01*
G37*
G36*
X131610442Y-79345518D02*
G01*
X131676627Y-79352037D01*
X131846466Y-79403557D01*
X132002991Y-79487222D01*
X132038729Y-79516552D01*
X132140186Y-79599814D01*
X132223448Y-79701271D01*
X132252778Y-79737009D01*
X132336443Y-79893534D01*
X132387963Y-80063373D01*
X132405359Y-80240000D01*
X132387963Y-80416627D01*
X132336443Y-80586466D01*
X132252778Y-80742991D01*
X132246205Y-80751000D01*
X132140186Y-80880186D01*
X132038729Y-80963448D01*
X132002991Y-80992778D01*
X131846466Y-81076443D01*
X131676627Y-81127963D01*
X131610442Y-81134482D01*
X131544260Y-81141000D01*
X131455740Y-81141000D01*
X131389558Y-81134482D01*
X131323373Y-81127963D01*
X131153534Y-81076443D01*
X130997009Y-80992778D01*
X130961271Y-80963448D01*
X130859814Y-80880186D01*
X130753795Y-80751000D01*
X130747222Y-80742991D01*
X130663557Y-80586466D01*
X130612037Y-80416627D01*
X130594641Y-80240000D01*
X130612037Y-80063373D01*
X130663557Y-79893534D01*
X130747222Y-79737009D01*
X130776552Y-79701271D01*
X130859814Y-79599814D01*
X130961271Y-79516552D01*
X130997009Y-79487222D01*
X131153534Y-79403557D01*
X131323373Y-79352037D01*
X131389558Y-79345518D01*
X131455740Y-79339000D01*
X131544260Y-79339000D01*
X131610442Y-79345518D01*
X131610442Y-79345518D01*
G37*
G36*
X159610442Y-79345518D02*
G01*
X159676627Y-79352037D01*
X159846466Y-79403557D01*
X160002991Y-79487222D01*
X160038729Y-79516552D01*
X160140186Y-79599814D01*
X160223448Y-79701271D01*
X160252778Y-79737009D01*
X160336443Y-79893534D01*
X160387963Y-80063373D01*
X160405359Y-80240000D01*
X160387963Y-80416627D01*
X160336443Y-80586466D01*
X160252778Y-80742991D01*
X160246205Y-80751000D01*
X160140186Y-80880186D01*
X160038729Y-80963448D01*
X160002991Y-80992778D01*
X159846466Y-81076443D01*
X159676627Y-81127963D01*
X159610442Y-81134482D01*
X159544260Y-81141000D01*
X159455740Y-81141000D01*
X159389558Y-81134482D01*
X159323373Y-81127963D01*
X159153534Y-81076443D01*
X158997009Y-80992778D01*
X158961271Y-80963448D01*
X158859814Y-80880186D01*
X158753795Y-80751000D01*
X158747222Y-80742991D01*
X158663557Y-80586466D01*
X158612037Y-80416627D01*
X158594641Y-80240000D01*
X158612037Y-80063373D01*
X158663557Y-79893534D01*
X158747222Y-79737009D01*
X158776552Y-79701271D01*
X158859814Y-79599814D01*
X158961271Y-79516552D01*
X158997009Y-79487222D01*
X159153534Y-79403557D01*
X159323373Y-79352037D01*
X159389558Y-79345518D01*
X159455740Y-79339000D01*
X159544260Y-79339000D01*
X159610442Y-79345518D01*
X159610442Y-79345518D01*
G37*
G36*
X159610442Y-76805518D02*
G01*
X159676627Y-76812037D01*
X159846466Y-76863557D01*
X160002991Y-76947222D01*
X160005157Y-76949000D01*
X160140186Y-77059814D01*
X160223448Y-77161271D01*
X160252778Y-77197009D01*
X160336443Y-77353534D01*
X160387963Y-77523373D01*
X160405359Y-77700000D01*
X160387963Y-77876627D01*
X160336443Y-78046466D01*
X160252778Y-78202991D01*
X160223448Y-78238729D01*
X160140186Y-78340186D01*
X160038729Y-78423448D01*
X160002991Y-78452778D01*
X159846466Y-78536443D01*
X159676627Y-78587963D01*
X159610443Y-78594481D01*
X159544260Y-78601000D01*
X159455740Y-78601000D01*
X159389557Y-78594481D01*
X159323373Y-78587963D01*
X159153534Y-78536443D01*
X158997009Y-78452778D01*
X158961271Y-78423448D01*
X158859814Y-78340186D01*
X158776552Y-78238729D01*
X158747222Y-78202991D01*
X158663557Y-78046466D01*
X158612037Y-77876627D01*
X158594641Y-77700000D01*
X158612037Y-77523373D01*
X158663557Y-77353534D01*
X158747222Y-77197009D01*
X158776552Y-77161271D01*
X158859814Y-77059814D01*
X158994843Y-76949000D01*
X158997009Y-76947222D01*
X159153534Y-76863557D01*
X159323373Y-76812037D01*
X159389558Y-76805518D01*
X159455740Y-76799000D01*
X159544260Y-76799000D01*
X159610442Y-76805518D01*
X159610442Y-76805518D01*
G37*
G36*
X131610442Y-76805518D02*
G01*
X131676627Y-76812037D01*
X131846466Y-76863557D01*
X132002991Y-76947222D01*
X132005157Y-76949000D01*
X132140186Y-77059814D01*
X132223448Y-77161271D01*
X132252778Y-77197009D01*
X132336443Y-77353534D01*
X132387963Y-77523373D01*
X132405359Y-77700000D01*
X132387963Y-77876627D01*
X132336443Y-78046466D01*
X132252778Y-78202991D01*
X132223448Y-78238729D01*
X132140186Y-78340186D01*
X132038729Y-78423448D01*
X132002991Y-78452778D01*
X131846466Y-78536443D01*
X131676627Y-78587963D01*
X131610443Y-78594481D01*
X131544260Y-78601000D01*
X131455740Y-78601000D01*
X131389557Y-78594481D01*
X131323373Y-78587963D01*
X131153534Y-78536443D01*
X130997009Y-78452778D01*
X130961271Y-78423448D01*
X130859814Y-78340186D01*
X130776552Y-78238729D01*
X130747222Y-78202991D01*
X130663557Y-78046466D01*
X130612037Y-77876627D01*
X130594641Y-77700000D01*
X130612037Y-77523373D01*
X130663557Y-77353534D01*
X130747222Y-77197009D01*
X130776552Y-77161271D01*
X130859814Y-77059814D01*
X130994843Y-76949000D01*
X130997009Y-76947222D01*
X131153534Y-76863557D01*
X131323373Y-76812037D01*
X131389558Y-76805518D01*
X131455740Y-76799000D01*
X131544260Y-76799000D01*
X131610442Y-76805518D01*
X131610442Y-76805518D01*
G37*
G36*
X143233642Y-75229781D02*
G01*
X143379414Y-75290162D01*
X143379416Y-75290163D01*
X143510608Y-75377822D01*
X143622178Y-75489392D01*
X143709837Y-75620584D01*
X143709838Y-75620586D01*
X143770219Y-75766358D01*
X143801000Y-75921107D01*
X143801000Y-76078893D01*
X143770219Y-76233642D01*
X143709838Y-76379414D01*
X143709837Y-76379416D01*
X143622178Y-76510608D01*
X143510608Y-76622178D01*
X143379416Y-76709837D01*
X143379415Y-76709838D01*
X143379414Y-76709838D01*
X143233642Y-76770219D01*
X143078893Y-76801000D01*
X142921107Y-76801000D01*
X142766358Y-76770219D01*
X142620586Y-76709838D01*
X142620585Y-76709838D01*
X142620584Y-76709837D01*
X142489392Y-76622178D01*
X142377822Y-76510608D01*
X142290163Y-76379416D01*
X142290162Y-76379414D01*
X142229781Y-76233642D01*
X142199000Y-76078893D01*
X142199000Y-75921107D01*
X142229781Y-75766358D01*
X142290162Y-75620586D01*
X142290163Y-75620584D01*
X142377822Y-75489392D01*
X142489392Y-75377822D01*
X142620584Y-75290163D01*
X142620586Y-75290162D01*
X142766358Y-75229781D01*
X142921107Y-75199000D01*
X143078893Y-75199000D01*
X143233642Y-75229781D01*
X143233642Y-75229781D01*
G37*
G36*
X131610443Y-74265519D02*
G01*
X131676627Y-74272037D01*
X131846466Y-74323557D01*
X131846468Y-74323558D01*
X131917553Y-74361554D01*
X132002991Y-74407222D01*
X132031940Y-74430980D01*
X132140186Y-74519814D01*
X132223448Y-74621271D01*
X132252778Y-74657009D01*
X132336443Y-74813534D01*
X132387963Y-74983373D01*
X132405359Y-75160000D01*
X132387963Y-75336627D01*
X132336443Y-75506466D01*
X132252778Y-75662991D01*
X132223448Y-75698729D01*
X132140186Y-75800186D01*
X132038729Y-75883448D01*
X132002991Y-75912778D01*
X131846466Y-75996443D01*
X131676627Y-76047963D01*
X131610442Y-76054482D01*
X131544260Y-76061000D01*
X131455740Y-76061000D01*
X131389558Y-76054482D01*
X131323373Y-76047963D01*
X131153534Y-75996443D01*
X130997009Y-75912778D01*
X130961271Y-75883448D01*
X130859814Y-75800186D01*
X130776552Y-75698729D01*
X130747222Y-75662991D01*
X130663557Y-75506466D01*
X130612037Y-75336627D01*
X130594641Y-75160000D01*
X130612037Y-74983373D01*
X130663557Y-74813534D01*
X130747222Y-74657009D01*
X130776552Y-74621271D01*
X130859814Y-74519814D01*
X130968060Y-74430980D01*
X130997009Y-74407222D01*
X131082447Y-74361554D01*
X131153532Y-74323558D01*
X131153534Y-74323557D01*
X131323373Y-74272037D01*
X131389557Y-74265519D01*
X131455740Y-74259000D01*
X131544260Y-74259000D01*
X131610443Y-74265519D01*
X131610443Y-74265519D01*
G37*
G36*
X159610443Y-74265519D02*
G01*
X159676627Y-74272037D01*
X159846466Y-74323557D01*
X159846468Y-74323558D01*
X159917553Y-74361554D01*
X160002991Y-74407222D01*
X160031940Y-74430980D01*
X160140186Y-74519814D01*
X160223448Y-74621271D01*
X160252778Y-74657009D01*
X160336443Y-74813534D01*
X160387963Y-74983373D01*
X160405359Y-75160000D01*
X160387963Y-75336627D01*
X160336443Y-75506466D01*
X160252778Y-75662991D01*
X160223448Y-75698729D01*
X160140186Y-75800186D01*
X160038729Y-75883448D01*
X160002991Y-75912778D01*
X159846466Y-75996443D01*
X159676627Y-76047963D01*
X159610442Y-76054482D01*
X159544260Y-76061000D01*
X159455740Y-76061000D01*
X159389558Y-76054482D01*
X159323373Y-76047963D01*
X159153534Y-75996443D01*
X158997009Y-75912778D01*
X158961271Y-75883448D01*
X158859814Y-75800186D01*
X158776552Y-75698729D01*
X158747222Y-75662991D01*
X158663557Y-75506466D01*
X158612037Y-75336627D01*
X158594641Y-75160000D01*
X158612037Y-74983373D01*
X158663557Y-74813534D01*
X158747222Y-74657009D01*
X158776552Y-74621271D01*
X158859814Y-74519814D01*
X158968060Y-74430980D01*
X158997009Y-74407222D01*
X159082447Y-74361554D01*
X159153532Y-74323558D01*
X159153534Y-74323557D01*
X159323373Y-74272037D01*
X159389557Y-74265519D01*
X159455740Y-74259000D01*
X159544260Y-74259000D01*
X159610443Y-74265519D01*
X159610443Y-74265519D01*
G37*
G36*
X141601000Y-75551000D02*
G01*
X139699000Y-75551000D01*
X139699000Y-73349000D01*
X141601000Y-73349000D01*
X141601000Y-75551000D01*
X141601000Y-75551000D01*
G37*
G36*
X139301000Y-75551000D02*
G01*
X137399000Y-75551000D01*
X137399000Y-73349000D01*
X139301000Y-73349000D01*
X139301000Y-75551000D01*
X139301000Y-75551000D01*
G37*
G36*
X152664499Y-73478445D02*
G01*
X152701995Y-73489820D01*
X152736554Y-73508292D01*
X152766847Y-73533153D01*
X152791708Y-73563446D01*
X152810180Y-73598005D01*
X152821555Y-73635501D01*
X152826000Y-73680638D01*
X152826000Y-74319362D01*
X152821555Y-74364499D01*
X152810180Y-74401995D01*
X152791708Y-74436554D01*
X152766847Y-74466847D01*
X152736554Y-74491708D01*
X152701995Y-74510180D01*
X152664499Y-74521555D01*
X152619362Y-74526000D01*
X151880638Y-74526000D01*
X151835501Y-74521555D01*
X151798005Y-74510180D01*
X151763446Y-74491708D01*
X151733153Y-74466847D01*
X151708292Y-74436554D01*
X151689820Y-74401995D01*
X151678445Y-74364499D01*
X151674000Y-74319362D01*
X151674000Y-73680638D01*
X151678445Y-73635501D01*
X151689820Y-73598005D01*
X151708292Y-73563446D01*
X151733153Y-73533153D01*
X151763446Y-73508292D01*
X151798005Y-73489820D01*
X151835501Y-73478445D01*
X151880638Y-73474000D01*
X152619362Y-73474000D01*
X152664499Y-73478445D01*
X152664499Y-73478445D01*
G37*
G36*
X150914499Y-73478445D02*
G01*
X150951995Y-73489820D01*
X150986554Y-73508292D01*
X151016847Y-73533153D01*
X151041708Y-73563446D01*
X151060180Y-73598005D01*
X151071555Y-73635501D01*
X151076000Y-73680638D01*
X151076000Y-74319362D01*
X151071555Y-74364499D01*
X151060180Y-74401995D01*
X151041708Y-74436554D01*
X151016847Y-74466847D01*
X150986554Y-74491708D01*
X150951995Y-74510180D01*
X150914499Y-74521555D01*
X150869362Y-74526000D01*
X150130638Y-74526000D01*
X150085501Y-74521555D01*
X150048005Y-74510180D01*
X150013446Y-74491708D01*
X149983153Y-74466847D01*
X149958292Y-74436554D01*
X149939820Y-74401995D01*
X149928445Y-74364499D01*
X149924000Y-74319362D01*
X149924000Y-73680638D01*
X149928445Y-73635501D01*
X149939820Y-73598005D01*
X149958292Y-73563446D01*
X149983153Y-73533153D01*
X150013446Y-73508292D01*
X150048005Y-73489820D01*
X150085501Y-73478445D01*
X150130638Y-73474000D01*
X150869362Y-73474000D01*
X150914499Y-73478445D01*
X150914499Y-73478445D01*
G37*
G36*
X147039499Y-73478445D02*
G01*
X147076995Y-73489820D01*
X147111554Y-73508292D01*
X147141847Y-73533153D01*
X147166708Y-73563446D01*
X147185180Y-73598005D01*
X147196555Y-73635501D01*
X147201000Y-73680638D01*
X147201000Y-74319362D01*
X147196555Y-74364499D01*
X147185180Y-74401995D01*
X147166708Y-74436554D01*
X147141847Y-74466847D01*
X147111554Y-74491708D01*
X147076995Y-74510180D01*
X147039499Y-74521555D01*
X146994362Y-74526000D01*
X146255638Y-74526000D01*
X146210501Y-74521555D01*
X146173005Y-74510180D01*
X146138446Y-74491708D01*
X146108153Y-74466847D01*
X146083292Y-74436554D01*
X146064820Y-74401995D01*
X146053445Y-74364499D01*
X146049000Y-74319362D01*
X146049000Y-73680638D01*
X146053445Y-73635501D01*
X146064820Y-73598005D01*
X146083292Y-73563446D01*
X146108153Y-73533153D01*
X146138446Y-73508292D01*
X146173005Y-73489820D01*
X146210501Y-73478445D01*
X146255638Y-73474000D01*
X146994362Y-73474000D01*
X147039499Y-73478445D01*
X147039499Y-73478445D01*
G37*
G36*
X148789499Y-73478445D02*
G01*
X148826995Y-73489820D01*
X148861554Y-73508292D01*
X148891847Y-73533153D01*
X148916708Y-73563446D01*
X148935180Y-73598005D01*
X148946555Y-73635501D01*
X148951000Y-73680638D01*
X148951000Y-74319362D01*
X148946555Y-74364499D01*
X148935180Y-74401995D01*
X148916708Y-74436554D01*
X148891847Y-74466847D01*
X148861554Y-74491708D01*
X148826995Y-74510180D01*
X148789499Y-74521555D01*
X148744362Y-74526000D01*
X148005638Y-74526000D01*
X147960501Y-74521555D01*
X147923005Y-74510180D01*
X147888446Y-74491708D01*
X147858153Y-74466847D01*
X147833292Y-74436554D01*
X147814820Y-74401995D01*
X147803445Y-74364499D01*
X147799000Y-74319362D01*
X147799000Y-73680638D01*
X147803445Y-73635501D01*
X147814820Y-73598005D01*
X147833292Y-73563446D01*
X147858153Y-73533153D01*
X147888446Y-73508292D01*
X147923005Y-73489820D01*
X147960501Y-73478445D01*
X148005638Y-73474000D01*
X148744362Y-73474000D01*
X148789499Y-73478445D01*
X148789499Y-73478445D01*
G37*
G36*
X136364499Y-73303445D02*
G01*
X136401995Y-73314820D01*
X136436554Y-73333292D01*
X136466847Y-73358153D01*
X136491708Y-73388446D01*
X136510180Y-73423005D01*
X136521555Y-73460501D01*
X136526000Y-73505638D01*
X136526000Y-74244362D01*
X136521555Y-74289499D01*
X136510180Y-74326995D01*
X136491708Y-74361554D01*
X136466847Y-74391847D01*
X136436554Y-74416708D01*
X136401995Y-74435180D01*
X136364499Y-74446555D01*
X136319362Y-74451000D01*
X135680638Y-74451000D01*
X135635501Y-74446555D01*
X135598005Y-74435180D01*
X135563446Y-74416708D01*
X135533153Y-74391847D01*
X135508292Y-74361554D01*
X135489820Y-74326995D01*
X135478445Y-74289499D01*
X135474000Y-74244362D01*
X135474000Y-73505638D01*
X135478445Y-73460501D01*
X135489820Y-73423005D01*
X135508292Y-73388446D01*
X135533153Y-73358153D01*
X135563446Y-73333292D01*
X135598005Y-73314820D01*
X135635501Y-73303445D01*
X135680638Y-73299000D01*
X136319362Y-73299000D01*
X136364499Y-73303445D01*
X136364499Y-73303445D01*
G37*
G36*
X143364499Y-73303445D02*
G01*
X143401995Y-73314820D01*
X143436554Y-73333292D01*
X143466847Y-73358153D01*
X143491708Y-73388446D01*
X143510180Y-73423005D01*
X143521555Y-73460501D01*
X143526000Y-73505638D01*
X143526000Y-74244362D01*
X143521555Y-74289499D01*
X143510180Y-74326995D01*
X143491708Y-74361554D01*
X143466847Y-74391847D01*
X143436554Y-74416708D01*
X143401995Y-74435180D01*
X143364499Y-74446555D01*
X143319362Y-74451000D01*
X142680638Y-74451000D01*
X142635501Y-74446555D01*
X142598005Y-74435180D01*
X142563446Y-74416708D01*
X142533153Y-74391847D01*
X142508292Y-74361554D01*
X142489820Y-74326995D01*
X142478445Y-74289499D01*
X142474000Y-74244362D01*
X142474000Y-73505638D01*
X142478445Y-73460501D01*
X142489820Y-73423005D01*
X142508292Y-73388446D01*
X142533153Y-73358153D01*
X142563446Y-73333292D01*
X142598005Y-73314820D01*
X142635501Y-73303445D01*
X142680638Y-73299000D01*
X143319362Y-73299000D01*
X143364499Y-73303445D01*
X143364499Y-73303445D01*
G37*
G36*
X159610442Y-71725518D02*
G01*
X159676627Y-71732037D01*
X159846466Y-71783557D01*
X160002991Y-71867222D01*
X160038729Y-71896552D01*
X160140186Y-71979814D01*
X160223448Y-72081271D01*
X160252778Y-72117009D01*
X160336443Y-72273534D01*
X160387963Y-72443373D01*
X160405359Y-72620000D01*
X160387963Y-72796627D01*
X160336443Y-72966466D01*
X160252778Y-73122991D01*
X160223448Y-73158729D01*
X160140186Y-73260186D01*
X160038882Y-73343323D01*
X160002991Y-73372778D01*
X159846466Y-73456443D01*
X159676627Y-73507963D01*
X159610443Y-73514481D01*
X159544260Y-73521000D01*
X159455740Y-73521000D01*
X159389557Y-73514481D01*
X159323373Y-73507963D01*
X159153534Y-73456443D01*
X158997009Y-73372778D01*
X158961118Y-73343323D01*
X158859814Y-73260186D01*
X158776552Y-73158729D01*
X158747222Y-73122991D01*
X158663557Y-72966466D01*
X158612037Y-72796627D01*
X158594641Y-72620000D01*
X158612037Y-72443373D01*
X158663557Y-72273534D01*
X158747222Y-72117009D01*
X158776552Y-72081271D01*
X158859814Y-71979814D01*
X158961271Y-71896552D01*
X158997009Y-71867222D01*
X159153534Y-71783557D01*
X159323373Y-71732037D01*
X159389558Y-71725518D01*
X159455740Y-71719000D01*
X159544260Y-71719000D01*
X159610442Y-71725518D01*
X159610442Y-71725518D01*
G37*
G36*
X131610442Y-71725518D02*
G01*
X131676627Y-71732037D01*
X131846466Y-71783557D01*
X132002991Y-71867222D01*
X132038729Y-71896552D01*
X132140186Y-71979814D01*
X132223448Y-72081271D01*
X132252778Y-72117009D01*
X132336443Y-72273534D01*
X132387963Y-72443373D01*
X132405359Y-72620000D01*
X132387963Y-72796627D01*
X132336443Y-72966466D01*
X132252778Y-73122991D01*
X132223448Y-73158729D01*
X132140186Y-73260186D01*
X132038882Y-73343323D01*
X132002991Y-73372778D01*
X131846466Y-73456443D01*
X131676627Y-73507963D01*
X131610443Y-73514481D01*
X131544260Y-73521000D01*
X131455740Y-73521000D01*
X131389557Y-73514481D01*
X131323373Y-73507963D01*
X131153534Y-73456443D01*
X130997009Y-73372778D01*
X130961118Y-73343323D01*
X130859814Y-73260186D01*
X130776552Y-73158729D01*
X130747222Y-73122991D01*
X130663557Y-72966466D01*
X130612037Y-72796627D01*
X130594641Y-72620000D01*
X130612037Y-72443373D01*
X130663557Y-72273534D01*
X130747222Y-72117009D01*
X130776552Y-72081271D01*
X130859814Y-71979814D01*
X130961271Y-71896552D01*
X130997009Y-71867222D01*
X131153534Y-71783557D01*
X131323373Y-71732037D01*
X131389558Y-71725518D01*
X131455740Y-71719000D01*
X131544260Y-71719000D01*
X131610442Y-71725518D01*
X131610442Y-71725518D01*
G37*
G36*
X143364499Y-71553445D02*
G01*
X143401995Y-71564820D01*
X143436554Y-71583292D01*
X143466847Y-71608153D01*
X143491708Y-71638446D01*
X143510180Y-71673005D01*
X143521555Y-71710501D01*
X143526000Y-71755638D01*
X143526000Y-72494362D01*
X143521555Y-72539499D01*
X143510180Y-72576995D01*
X143491708Y-72611554D01*
X143466847Y-72641847D01*
X143436554Y-72666708D01*
X143401995Y-72685180D01*
X143364499Y-72696555D01*
X143319362Y-72701000D01*
X142680638Y-72701000D01*
X142635501Y-72696555D01*
X142598005Y-72685180D01*
X142563446Y-72666708D01*
X142533153Y-72641847D01*
X142508292Y-72611554D01*
X142489820Y-72576995D01*
X142478445Y-72539499D01*
X142474000Y-72494362D01*
X142474000Y-71755638D01*
X142478445Y-71710501D01*
X142489820Y-71673005D01*
X142508292Y-71638446D01*
X142533153Y-71608153D01*
X142563446Y-71583292D01*
X142598005Y-71564820D01*
X142635501Y-71553445D01*
X142680638Y-71549000D01*
X143319362Y-71549000D01*
X143364499Y-71553445D01*
X143364499Y-71553445D01*
G37*
G36*
X136364499Y-71553445D02*
G01*
X136401995Y-71564820D01*
X136436554Y-71583292D01*
X136466847Y-71608153D01*
X136491708Y-71638446D01*
X136510180Y-71673005D01*
X136521555Y-71710501D01*
X136526000Y-71755638D01*
X136526000Y-72494362D01*
X136521555Y-72539499D01*
X136510180Y-72576995D01*
X136491708Y-72611554D01*
X136466847Y-72641847D01*
X136436554Y-72666708D01*
X136401995Y-72685180D01*
X136364499Y-72696555D01*
X136319362Y-72701000D01*
X135680638Y-72701000D01*
X135635501Y-72696555D01*
X135598005Y-72685180D01*
X135563446Y-72666708D01*
X135533153Y-72641847D01*
X135508292Y-72611554D01*
X135489820Y-72576995D01*
X135478445Y-72539499D01*
X135474000Y-72494362D01*
X135474000Y-71755638D01*
X135478445Y-71710501D01*
X135489820Y-71673005D01*
X135508292Y-71638446D01*
X135533153Y-71608153D01*
X135563446Y-71583292D01*
X135598005Y-71564820D01*
X135635501Y-71553445D01*
X135680638Y-71549000D01*
X136319362Y-71549000D01*
X136364499Y-71553445D01*
X136364499Y-71553445D01*
G37*
G36*
X139301000Y-72651000D02*
G01*
X137399000Y-72651000D01*
X137399000Y-70449000D01*
X139301000Y-70449000D01*
X139301000Y-72651000D01*
X139301000Y-72651000D01*
G37*
G36*
X141601000Y-72651000D02*
G01*
X139699000Y-72651000D01*
X139699000Y-70449000D01*
X141601000Y-70449000D01*
X141601000Y-72651000D01*
X141601000Y-72651000D01*
G37*
G36*
X131610442Y-69185518D02*
G01*
X131676627Y-69192037D01*
X131846466Y-69243557D01*
X132002991Y-69327222D01*
X132010387Y-69333292D01*
X132140186Y-69439814D01*
X132198352Y-69510691D01*
X132252778Y-69577009D01*
X132336443Y-69733534D01*
X132387963Y-69903373D01*
X132405359Y-70080000D01*
X132387963Y-70256627D01*
X132336443Y-70426466D01*
X132252778Y-70582991D01*
X132223448Y-70618729D01*
X132140186Y-70720186D01*
X132041712Y-70801000D01*
X132002991Y-70832778D01*
X131846466Y-70916443D01*
X131676627Y-70967963D01*
X131610442Y-70974482D01*
X131544260Y-70981000D01*
X131455740Y-70981000D01*
X131389558Y-70974482D01*
X131323373Y-70967963D01*
X131153534Y-70916443D01*
X130997009Y-70832778D01*
X130958288Y-70801000D01*
X130859814Y-70720186D01*
X130776552Y-70618729D01*
X130747222Y-70582991D01*
X130663557Y-70426466D01*
X130612037Y-70256627D01*
X130594641Y-70080000D01*
X130612037Y-69903373D01*
X130663557Y-69733534D01*
X130747222Y-69577009D01*
X130801648Y-69510691D01*
X130859814Y-69439814D01*
X130989613Y-69333292D01*
X130997009Y-69327222D01*
X131153534Y-69243557D01*
X131323373Y-69192037D01*
X131389558Y-69185518D01*
X131455740Y-69179000D01*
X131544260Y-69179000D01*
X131610442Y-69185518D01*
X131610442Y-69185518D01*
G37*
G36*
X159610442Y-69185518D02*
G01*
X159676627Y-69192037D01*
X159846466Y-69243557D01*
X160002991Y-69327222D01*
X160010387Y-69333292D01*
X160140186Y-69439814D01*
X160198352Y-69510691D01*
X160252778Y-69577009D01*
X160336443Y-69733534D01*
X160387963Y-69903373D01*
X160405359Y-70080000D01*
X160387963Y-70256627D01*
X160336443Y-70426466D01*
X160252778Y-70582991D01*
X160223448Y-70618729D01*
X160140186Y-70720186D01*
X160041712Y-70801000D01*
X160002991Y-70832778D01*
X159846466Y-70916443D01*
X159676627Y-70967963D01*
X159610442Y-70974482D01*
X159544260Y-70981000D01*
X159455740Y-70981000D01*
X159389558Y-70974482D01*
X159323373Y-70967963D01*
X159153534Y-70916443D01*
X158997009Y-70832778D01*
X158958288Y-70801000D01*
X158859814Y-70720186D01*
X158776552Y-70618729D01*
X158747222Y-70582991D01*
X158663557Y-70426466D01*
X158612037Y-70256627D01*
X158594641Y-70080000D01*
X158612037Y-69903373D01*
X158663557Y-69733534D01*
X158747222Y-69577009D01*
X158801648Y-69510691D01*
X158859814Y-69439814D01*
X158989613Y-69333292D01*
X158997009Y-69327222D01*
X159153534Y-69243557D01*
X159323373Y-69192037D01*
X159389558Y-69185518D01*
X159455740Y-69179000D01*
X159544260Y-69179000D01*
X159610442Y-69185518D01*
X159610442Y-69185518D01*
G37*
G36*
X146233642Y-69229781D02*
G01*
X146379414Y-69290162D01*
X146379416Y-69290163D01*
X146510608Y-69377822D01*
X146622178Y-69489392D01*
X146709837Y-69620584D01*
X146709838Y-69620586D01*
X146770219Y-69766358D01*
X146801000Y-69921107D01*
X146801000Y-70078893D01*
X146770219Y-70233642D01*
X146717236Y-70361554D01*
X146709837Y-70379416D01*
X146622178Y-70510608D01*
X146510608Y-70622178D01*
X146379416Y-70709837D01*
X146379415Y-70709838D01*
X146379414Y-70709838D01*
X146233642Y-70770219D01*
X146078893Y-70801000D01*
X145921107Y-70801000D01*
X145766358Y-70770219D01*
X145620586Y-70709838D01*
X145620585Y-70709838D01*
X145620584Y-70709837D01*
X145489392Y-70622178D01*
X145377822Y-70510608D01*
X145290163Y-70379416D01*
X145282764Y-70361554D01*
X145229781Y-70233642D01*
X145199000Y-70078893D01*
X145199000Y-69921107D01*
X145229781Y-69766358D01*
X145290162Y-69620586D01*
X145290163Y-69620584D01*
X145377822Y-69489392D01*
X145489392Y-69377822D01*
X145620584Y-69290163D01*
X145620586Y-69290162D01*
X145766358Y-69229781D01*
X145921107Y-69199000D01*
X146078893Y-69199000D01*
X146233642Y-69229781D01*
X146233642Y-69229781D01*
G37*
G36*
X136233642Y-69229781D02*
G01*
X136379414Y-69290162D01*
X136379416Y-69290163D01*
X136510608Y-69377822D01*
X136622178Y-69489392D01*
X136709837Y-69620584D01*
X136709838Y-69620586D01*
X136770219Y-69766358D01*
X136801000Y-69921107D01*
X136801000Y-70078893D01*
X136770219Y-70233642D01*
X136717236Y-70361554D01*
X136709837Y-70379416D01*
X136622178Y-70510608D01*
X136510608Y-70622178D01*
X136379416Y-70709837D01*
X136379415Y-70709838D01*
X136379414Y-70709838D01*
X136233642Y-70770219D01*
X136078893Y-70801000D01*
X135921107Y-70801000D01*
X135766358Y-70770219D01*
X135620586Y-70709838D01*
X135620585Y-70709838D01*
X135620584Y-70709837D01*
X135489392Y-70622178D01*
X135377822Y-70510608D01*
X135290163Y-70379416D01*
X135282764Y-70361554D01*
X135229781Y-70233642D01*
X135199000Y-70078893D01*
X135199000Y-69921107D01*
X135229781Y-69766358D01*
X135290162Y-69620586D01*
X135290163Y-69620584D01*
X135377822Y-69489392D01*
X135489392Y-69377822D01*
X135620584Y-69290163D01*
X135620586Y-69290162D01*
X135766358Y-69229781D01*
X135921107Y-69199000D01*
X136078893Y-69199000D01*
X136233642Y-69229781D01*
X136233642Y-69229781D01*
G37*
G36*
X152733642Y-69229781D02*
G01*
X152879414Y-69290162D01*
X152879416Y-69290163D01*
X153010608Y-69377822D01*
X153122178Y-69489392D01*
X153209837Y-69620584D01*
X153209838Y-69620586D01*
X153270219Y-69766358D01*
X153301000Y-69921107D01*
X153301000Y-70078893D01*
X153270219Y-70233642D01*
X153217236Y-70361554D01*
X153209837Y-70379416D01*
X153122178Y-70510608D01*
X153010608Y-70622178D01*
X152879416Y-70709837D01*
X152879415Y-70709838D01*
X152879414Y-70709838D01*
X152733642Y-70770219D01*
X152578893Y-70801000D01*
X152421107Y-70801000D01*
X152266358Y-70770219D01*
X152120586Y-70709838D01*
X152120585Y-70709838D01*
X152120584Y-70709837D01*
X151989392Y-70622178D01*
X151877822Y-70510608D01*
X151790163Y-70379416D01*
X151782764Y-70361554D01*
X151729781Y-70233642D01*
X151699000Y-70078893D01*
X151699000Y-69921107D01*
X151729781Y-69766358D01*
X151790162Y-69620586D01*
X151790163Y-69620584D01*
X151877822Y-69489392D01*
X151989392Y-69377822D01*
X152120584Y-69290163D01*
X152120586Y-69290162D01*
X152266358Y-69229781D01*
X152421107Y-69199000D01*
X152578893Y-69199000D01*
X152733642Y-69229781D01*
X152733642Y-69229781D01*
G37*
G36*
X156864499Y-69303445D02*
G01*
X156901995Y-69314820D01*
X156936554Y-69333292D01*
X156966847Y-69358153D01*
X156991708Y-69388446D01*
X157010180Y-69423005D01*
X157021555Y-69460501D01*
X157026000Y-69505638D01*
X157026000Y-70244362D01*
X157021555Y-70289499D01*
X157010180Y-70326995D01*
X156991708Y-70361554D01*
X156966847Y-70391847D01*
X156936554Y-70416708D01*
X156901995Y-70435180D01*
X156864499Y-70446555D01*
X156819362Y-70451000D01*
X156180638Y-70451000D01*
X156135501Y-70446555D01*
X156098005Y-70435180D01*
X156063446Y-70416708D01*
X156033153Y-70391847D01*
X156008292Y-70361554D01*
X155989820Y-70326995D01*
X155978445Y-70289499D01*
X155974000Y-70244362D01*
X155974000Y-69505638D01*
X155978445Y-69460501D01*
X155989820Y-69423005D01*
X156008292Y-69388446D01*
X156033153Y-69358153D01*
X156063446Y-69333292D01*
X156098005Y-69314820D01*
X156135501Y-69303445D01*
X156180638Y-69299000D01*
X156819362Y-69299000D01*
X156864499Y-69303445D01*
X156864499Y-69303445D01*
G37*
G36*
X134564499Y-69103445D02*
G01*
X134601995Y-69114820D01*
X134636554Y-69133292D01*
X134666847Y-69158153D01*
X134691708Y-69188446D01*
X134710180Y-69223005D01*
X134721555Y-69260501D01*
X134726000Y-69305638D01*
X134726000Y-70044362D01*
X134721555Y-70089499D01*
X134710180Y-70126995D01*
X134691708Y-70161554D01*
X134666847Y-70191847D01*
X134636554Y-70216708D01*
X134601995Y-70235180D01*
X134564499Y-70246555D01*
X134519362Y-70251000D01*
X133880638Y-70251000D01*
X133835501Y-70246555D01*
X133798005Y-70235180D01*
X133763446Y-70216708D01*
X133733153Y-70191847D01*
X133708292Y-70161554D01*
X133689820Y-70126995D01*
X133678445Y-70089499D01*
X133674000Y-70044362D01*
X133674000Y-69305638D01*
X133678445Y-69260501D01*
X133689820Y-69223005D01*
X133708292Y-69188446D01*
X133733153Y-69158153D01*
X133763446Y-69133292D01*
X133798005Y-69114820D01*
X133835501Y-69103445D01*
X133880638Y-69099000D01*
X134519362Y-69099000D01*
X134564499Y-69103445D01*
X134564499Y-69103445D01*
G37*
G36*
X144789499Y-67978445D02*
G01*
X144826995Y-67989820D01*
X144861554Y-68008292D01*
X144891847Y-68033153D01*
X144916708Y-68063446D01*
X144935180Y-68098005D01*
X144946555Y-68135501D01*
X144951000Y-68180638D01*
X144951000Y-68819362D01*
X144946555Y-68864499D01*
X144935180Y-68901995D01*
X144916708Y-68936554D01*
X144891847Y-68966847D01*
X144861554Y-68991708D01*
X144826995Y-69010180D01*
X144789499Y-69021555D01*
X144744362Y-69026000D01*
X144005638Y-69026000D01*
X143960501Y-69021555D01*
X143923005Y-69010180D01*
X143888446Y-68991708D01*
X143858153Y-68966847D01*
X143833292Y-68936554D01*
X143814820Y-68901995D01*
X143803445Y-68864499D01*
X143799000Y-68819362D01*
X143799000Y-68180638D01*
X143803445Y-68135501D01*
X143814820Y-68098005D01*
X143833292Y-68063446D01*
X143858153Y-68033153D01*
X143888446Y-68008292D01*
X143923005Y-67989820D01*
X143960501Y-67978445D01*
X144005638Y-67974000D01*
X144744362Y-67974000D01*
X144789499Y-67978445D01*
X144789499Y-67978445D01*
G37*
G36*
X143039499Y-67978445D02*
G01*
X143076995Y-67989820D01*
X143111554Y-68008292D01*
X143141847Y-68033153D01*
X143166708Y-68063446D01*
X143185180Y-68098005D01*
X143196555Y-68135501D01*
X143201000Y-68180638D01*
X143201000Y-68819362D01*
X143196555Y-68864499D01*
X143185180Y-68901995D01*
X143166708Y-68936554D01*
X143141847Y-68966847D01*
X143111554Y-68991708D01*
X143076995Y-69010180D01*
X143039499Y-69021555D01*
X142994362Y-69026000D01*
X142255638Y-69026000D01*
X142210501Y-69021555D01*
X142173005Y-69010180D01*
X142138446Y-68991708D01*
X142108153Y-68966847D01*
X142083292Y-68936554D01*
X142064820Y-68901995D01*
X142053445Y-68864499D01*
X142049000Y-68819362D01*
X142049000Y-68180638D01*
X142053445Y-68135501D01*
X142064820Y-68098005D01*
X142083292Y-68063446D01*
X142108153Y-68033153D01*
X142138446Y-68008292D01*
X142173005Y-67989820D01*
X142210501Y-67978445D01*
X142255638Y-67974000D01*
X142994362Y-67974000D01*
X143039499Y-67978445D01*
X143039499Y-67978445D01*
G37*
G36*
X156864499Y-67553445D02*
G01*
X156901995Y-67564820D01*
X156936554Y-67583292D01*
X156966847Y-67608153D01*
X156991708Y-67638446D01*
X157010180Y-67673005D01*
X157021555Y-67710501D01*
X157026000Y-67755638D01*
X157026000Y-68494362D01*
X157021555Y-68539499D01*
X157010180Y-68576995D01*
X156991708Y-68611554D01*
X156966847Y-68641847D01*
X156936554Y-68666708D01*
X156901995Y-68685180D01*
X156864499Y-68696555D01*
X156819362Y-68701000D01*
X156180638Y-68701000D01*
X156135501Y-68696555D01*
X156098005Y-68685180D01*
X156063446Y-68666708D01*
X156033153Y-68641847D01*
X156008292Y-68611554D01*
X155989820Y-68576995D01*
X155978445Y-68539499D01*
X155974000Y-68494362D01*
X155974000Y-67755638D01*
X155978445Y-67710501D01*
X155989820Y-67673005D01*
X156008292Y-67638446D01*
X156033153Y-67608153D01*
X156063446Y-67583292D01*
X156098005Y-67564820D01*
X156135501Y-67553445D01*
X156180638Y-67549000D01*
X156819362Y-67549000D01*
X156864499Y-67553445D01*
X156864499Y-67553445D01*
G37*
G36*
X134564499Y-67353445D02*
G01*
X134601995Y-67364820D01*
X134636554Y-67383292D01*
X134666847Y-67408153D01*
X134691708Y-67438446D01*
X134710180Y-67473005D01*
X134721555Y-67510501D01*
X134726000Y-67555638D01*
X134726000Y-68294362D01*
X134721555Y-68339499D01*
X134710180Y-68376995D01*
X134691708Y-68411554D01*
X134666847Y-68441847D01*
X134636554Y-68466708D01*
X134601995Y-68485180D01*
X134564499Y-68496555D01*
X134519362Y-68501000D01*
X133880638Y-68501000D01*
X133835501Y-68496555D01*
X133798005Y-68485180D01*
X133763446Y-68466708D01*
X133733153Y-68441847D01*
X133708292Y-68411554D01*
X133689820Y-68376995D01*
X133678445Y-68339499D01*
X133674000Y-68294362D01*
X133674000Y-67555638D01*
X133678445Y-67510501D01*
X133689820Y-67473005D01*
X133708292Y-67438446D01*
X133733153Y-67408153D01*
X133763446Y-67383292D01*
X133798005Y-67364820D01*
X133835501Y-67353445D01*
X133880638Y-67349000D01*
X134519362Y-67349000D01*
X134564499Y-67353445D01*
X134564499Y-67353445D01*
G37*
G36*
X131610443Y-66645519D02*
G01*
X131676627Y-66652037D01*
X131846466Y-66703557D01*
X132002991Y-66787222D01*
X132035996Y-66814309D01*
X132140186Y-66899814D01*
X132207368Y-66981677D01*
X132252778Y-67037009D01*
X132336443Y-67193534D01*
X132387963Y-67363373D01*
X132405359Y-67540000D01*
X132387963Y-67716627D01*
X132336443Y-67886466D01*
X132252778Y-68042991D01*
X132235991Y-68063446D01*
X132140186Y-68180186D01*
X132069738Y-68238000D01*
X132002991Y-68292778D01*
X131846466Y-68376443D01*
X131676627Y-68427963D01*
X131610443Y-68434481D01*
X131544260Y-68441000D01*
X131455740Y-68441000D01*
X131389557Y-68434481D01*
X131323373Y-68427963D01*
X131153534Y-68376443D01*
X130997009Y-68292778D01*
X130930262Y-68238000D01*
X130859814Y-68180186D01*
X130764009Y-68063446D01*
X130747222Y-68042991D01*
X130663557Y-67886466D01*
X130612037Y-67716627D01*
X130594641Y-67540000D01*
X130612037Y-67363373D01*
X130663557Y-67193534D01*
X130747222Y-67037009D01*
X130792632Y-66981677D01*
X130859814Y-66899814D01*
X130964004Y-66814309D01*
X130997009Y-66787222D01*
X131153534Y-66703557D01*
X131323373Y-66652037D01*
X131389557Y-66645519D01*
X131455740Y-66639000D01*
X131544260Y-66639000D01*
X131610443Y-66645519D01*
X131610443Y-66645519D01*
G37*
G36*
X159610443Y-66645519D02*
G01*
X159676627Y-66652037D01*
X159846466Y-66703557D01*
X160002991Y-66787222D01*
X160035996Y-66814309D01*
X160140186Y-66899814D01*
X160207368Y-66981677D01*
X160252778Y-67037009D01*
X160336443Y-67193534D01*
X160387963Y-67363373D01*
X160405359Y-67540000D01*
X160387963Y-67716627D01*
X160336443Y-67886466D01*
X160252778Y-68042991D01*
X160235991Y-68063446D01*
X160140186Y-68180186D01*
X160069738Y-68238000D01*
X160002991Y-68292778D01*
X159846466Y-68376443D01*
X159676627Y-68427963D01*
X159610443Y-68434481D01*
X159544260Y-68441000D01*
X159455740Y-68441000D01*
X159389557Y-68434481D01*
X159323373Y-68427963D01*
X159153534Y-68376443D01*
X158997009Y-68292778D01*
X158930262Y-68238000D01*
X158859814Y-68180186D01*
X158764009Y-68063446D01*
X158747222Y-68042991D01*
X158663557Y-67886466D01*
X158612037Y-67716627D01*
X158594641Y-67540000D01*
X158612037Y-67363373D01*
X158663557Y-67193534D01*
X158747222Y-67037009D01*
X158792632Y-66981677D01*
X158859814Y-66899814D01*
X158964004Y-66814309D01*
X158997009Y-66787222D01*
X159153534Y-66703557D01*
X159323373Y-66652037D01*
X159389557Y-66645519D01*
X159455740Y-66639000D01*
X159544260Y-66639000D01*
X159610443Y-66645519D01*
X159610443Y-66645519D01*
G37*
G36*
X143039499Y-65978445D02*
G01*
X143076995Y-65989820D01*
X143111554Y-66008292D01*
X143141847Y-66033153D01*
X143166708Y-66063446D01*
X143185180Y-66098005D01*
X143196555Y-66135501D01*
X143201000Y-66180638D01*
X143201000Y-66819362D01*
X143196555Y-66864499D01*
X143185180Y-66901995D01*
X143166708Y-66936554D01*
X143141847Y-66966847D01*
X143111554Y-66991708D01*
X143076995Y-67010180D01*
X143039499Y-67021555D01*
X142994362Y-67026000D01*
X142255638Y-67026000D01*
X142210501Y-67021555D01*
X142173005Y-67010180D01*
X142138446Y-66991708D01*
X142108153Y-66966847D01*
X142083292Y-66936554D01*
X142064820Y-66901995D01*
X142053445Y-66864499D01*
X142049000Y-66819362D01*
X142049000Y-66180638D01*
X142053445Y-66135501D01*
X142064820Y-66098005D01*
X142083292Y-66063446D01*
X142108153Y-66033153D01*
X142138446Y-66008292D01*
X142173005Y-65989820D01*
X142210501Y-65978445D01*
X142255638Y-65974000D01*
X142994362Y-65974000D01*
X143039499Y-65978445D01*
X143039499Y-65978445D01*
G37*
G36*
X147039499Y-65978445D02*
G01*
X147076995Y-65989820D01*
X147111554Y-66008292D01*
X147141847Y-66033153D01*
X147166708Y-66063446D01*
X147185180Y-66098005D01*
X147196555Y-66135501D01*
X147201000Y-66180638D01*
X147201000Y-66819362D01*
X147196555Y-66864499D01*
X147185180Y-66901995D01*
X147166708Y-66936554D01*
X147141847Y-66966847D01*
X147111554Y-66991708D01*
X147076995Y-67010180D01*
X147039499Y-67021555D01*
X146994362Y-67026000D01*
X146255638Y-67026000D01*
X146210501Y-67021555D01*
X146173005Y-67010180D01*
X146138446Y-66991708D01*
X146108153Y-66966847D01*
X146083292Y-66936554D01*
X146064820Y-66901995D01*
X146053445Y-66864499D01*
X146049000Y-66819362D01*
X146049000Y-66180638D01*
X146053445Y-66135501D01*
X146064820Y-66098005D01*
X146083292Y-66063446D01*
X146108153Y-66033153D01*
X146138446Y-66008292D01*
X146173005Y-65989820D01*
X146210501Y-65978445D01*
X146255638Y-65974000D01*
X146994362Y-65974000D01*
X147039499Y-65978445D01*
X147039499Y-65978445D01*
G37*
G36*
X144789499Y-65978445D02*
G01*
X144826995Y-65989820D01*
X144861554Y-66008292D01*
X144891847Y-66033153D01*
X144916708Y-66063446D01*
X144935180Y-66098005D01*
X144946555Y-66135501D01*
X144951000Y-66180638D01*
X144951000Y-66819362D01*
X144946555Y-66864499D01*
X144935180Y-66901995D01*
X144916708Y-66936554D01*
X144891847Y-66966847D01*
X144861554Y-66991708D01*
X144826995Y-67010180D01*
X144789499Y-67021555D01*
X144744362Y-67026000D01*
X144005638Y-67026000D01*
X143960501Y-67021555D01*
X143923005Y-67010180D01*
X143888446Y-66991708D01*
X143858153Y-66966847D01*
X143833292Y-66936554D01*
X143814820Y-66901995D01*
X143803445Y-66864499D01*
X143799000Y-66819362D01*
X143799000Y-66180638D01*
X143803445Y-66135501D01*
X143814820Y-66098005D01*
X143833292Y-66063446D01*
X143858153Y-66033153D01*
X143888446Y-66008292D01*
X143923005Y-65989820D01*
X143960501Y-65978445D01*
X144005638Y-65974000D01*
X144744362Y-65974000D01*
X144789499Y-65978445D01*
X144789499Y-65978445D01*
G37*
G36*
X148789499Y-65978445D02*
G01*
X148826995Y-65989820D01*
X148861554Y-66008292D01*
X148891847Y-66033153D01*
X148916708Y-66063446D01*
X148935180Y-66098005D01*
X148946555Y-66135501D01*
X148951000Y-66180638D01*
X148951000Y-66819362D01*
X148946555Y-66864499D01*
X148935180Y-66901995D01*
X148916708Y-66936554D01*
X148891847Y-66966847D01*
X148861554Y-66991708D01*
X148826995Y-67010180D01*
X148789499Y-67021555D01*
X148744362Y-67026000D01*
X148005638Y-67026000D01*
X147960501Y-67021555D01*
X147923005Y-67010180D01*
X147888446Y-66991708D01*
X147858153Y-66966847D01*
X147833292Y-66936554D01*
X147814820Y-66901995D01*
X147803445Y-66864499D01*
X147799000Y-66819362D01*
X147799000Y-66180638D01*
X147803445Y-66135501D01*
X147814820Y-66098005D01*
X147833292Y-66063446D01*
X147858153Y-66033153D01*
X147888446Y-66008292D01*
X147923005Y-65989820D01*
X147960501Y-65978445D01*
X148005638Y-65974000D01*
X148744362Y-65974000D01*
X148789499Y-65978445D01*
X148789499Y-65978445D01*
G37*
G36*
X153248228Y-65181703D02*
G01*
X153403100Y-65245853D01*
X153542481Y-65338985D01*
X153661015Y-65457519D01*
X153754147Y-65596900D01*
X153818297Y-65751772D01*
X153851000Y-65916184D01*
X153851000Y-66083816D01*
X153818297Y-66248228D01*
X153754147Y-66403100D01*
X153661015Y-66542481D01*
X153542481Y-66661015D01*
X153403100Y-66754147D01*
X153248228Y-66818297D01*
X153083816Y-66851000D01*
X152916184Y-66851000D01*
X152751772Y-66818297D01*
X152596900Y-66754147D01*
X152457519Y-66661015D01*
X152338985Y-66542481D01*
X152245853Y-66403100D01*
X152181703Y-66248228D01*
X152149000Y-66083816D01*
X152149000Y-65916184D01*
X152181703Y-65751772D01*
X152245853Y-65596900D01*
X152338985Y-65457519D01*
X152457519Y-65338985D01*
X152596900Y-65245853D01*
X152751772Y-65181703D01*
X152916184Y-65149000D01*
X153083816Y-65149000D01*
X153248228Y-65181703D01*
X153248228Y-65181703D01*
G37*
G36*
X137851000Y-66851000D02*
G01*
X136149000Y-66851000D01*
X136149000Y-65149000D01*
X137851000Y-65149000D01*
X137851000Y-66851000D01*
X137851000Y-66851000D01*
G37*
G36*
X160401000Y-65901000D02*
G01*
X158599000Y-65901000D01*
X158599000Y-64099000D01*
X160401000Y-64099000D01*
X160401000Y-65901000D01*
X160401000Y-65901000D01*
G37*
G36*
X132401000Y-65901000D02*
G01*
X130599000Y-65901000D01*
X130599000Y-64099000D01*
X132401000Y-64099000D01*
X132401000Y-65901000D01*
X132401000Y-65901000D01*
G37*
G36*
X137248228Y-62681703D02*
G01*
X137403100Y-62745853D01*
X137542481Y-62838985D01*
X137661015Y-62957519D01*
X137754147Y-63096900D01*
X137818297Y-63251772D01*
X137851000Y-63416184D01*
X137851000Y-63583816D01*
X137818297Y-63748228D01*
X137754147Y-63903100D01*
X137661015Y-64042481D01*
X137542481Y-64161015D01*
X137403100Y-64254147D01*
X137248228Y-64318297D01*
X137083816Y-64351000D01*
X136916184Y-64351000D01*
X136751772Y-64318297D01*
X136596900Y-64254147D01*
X136457519Y-64161015D01*
X136338985Y-64042481D01*
X136245853Y-63903100D01*
X136181703Y-63748228D01*
X136149000Y-63583816D01*
X136149000Y-63416184D01*
X136181703Y-63251772D01*
X136245853Y-63096900D01*
X136338985Y-62957519D01*
X136457519Y-62838985D01*
X136596900Y-62745853D01*
X136751772Y-62681703D01*
X136916184Y-62649000D01*
X137083816Y-62649000D01*
X137248228Y-62681703D01*
X137248228Y-62681703D01*
G37*
G36*
X153851000Y-64351000D02*
G01*
X152149000Y-64351000D01*
X152149000Y-62649000D01*
X153851000Y-62649000D01*
X153851000Y-64351000D01*
X153851000Y-64351000D01*
G37*
G36*
X143501000Y-64201000D02*
G01*
X141899000Y-64201000D01*
X141899000Y-62099000D01*
X143501000Y-62099000D01*
X143501000Y-64201000D01*
X143501000Y-64201000D01*
G37*
G36*
X148101000Y-64201000D02*
G01*
X146499000Y-64201000D01*
X146499000Y-62099000D01*
X148101000Y-62099000D01*
X148101000Y-64201000D01*
X148101000Y-64201000D01*
G37*
G36*
X145801000Y-64201000D02*
G01*
X144199000Y-64201000D01*
X144199000Y-62099000D01*
X145801000Y-62099000D01*
X145801000Y-64201000D01*
X145801000Y-64201000D01*
G37*
G36*
X158375256Y-57391298D02*
G01*
X158481579Y-57412447D01*
X158782042Y-57536903D01*
X159052451Y-57717585D01*
X159282415Y-57947549D01*
X159463097Y-58217958D01*
X159547245Y-58421108D01*
X159587553Y-58518422D01*
X159643762Y-58801000D01*
X159651000Y-58837391D01*
X159651000Y-59162609D01*
X159587553Y-59481579D01*
X159463097Y-59782042D01*
X159282415Y-60052451D01*
X159052451Y-60282415D01*
X158782042Y-60463097D01*
X158481579Y-60587553D01*
X158375256Y-60608702D01*
X158162611Y-60651000D01*
X157837389Y-60651000D01*
X157624744Y-60608702D01*
X157518421Y-60587553D01*
X157217958Y-60463097D01*
X156947549Y-60282415D01*
X156717585Y-60052451D01*
X156536903Y-59782042D01*
X156412447Y-59481579D01*
X156349000Y-59162609D01*
X156349000Y-58837391D01*
X156356239Y-58801000D01*
X156412447Y-58518422D01*
X156452756Y-58421108D01*
X156536903Y-58217958D01*
X156717585Y-57947549D01*
X156947549Y-57717585D01*
X157217958Y-57536903D01*
X157518421Y-57412447D01*
X157624744Y-57391298D01*
X157837389Y-57349000D01*
X158162611Y-57349000D01*
X158375256Y-57391298D01*
X158375256Y-57391298D01*
G37*
G36*
X133375256Y-57391298D02*
G01*
X133481579Y-57412447D01*
X133782042Y-57536903D01*
X134052451Y-57717585D01*
X134282415Y-57947549D01*
X134463097Y-58217958D01*
X134547245Y-58421108D01*
X134587553Y-58518422D01*
X134643762Y-58801000D01*
X134651000Y-58837391D01*
X134651000Y-59162609D01*
X134587553Y-59481579D01*
X134463097Y-59782042D01*
X134282415Y-60052451D01*
X134052451Y-60282415D01*
X133782042Y-60463097D01*
X133481579Y-60587553D01*
X133375256Y-60608702D01*
X133162611Y-60651000D01*
X132837389Y-60651000D01*
X132624744Y-60608702D01*
X132518421Y-60587553D01*
X132217958Y-60463097D01*
X131947549Y-60282415D01*
X131717585Y-60052451D01*
X131536903Y-59782042D01*
X131412447Y-59481579D01*
X131349000Y-59162609D01*
X131349000Y-58837391D01*
X131356239Y-58801000D01*
X131412447Y-58518422D01*
X131452756Y-58421108D01*
X131536903Y-58217958D01*
X131717585Y-57947549D01*
X131947549Y-57717585D01*
X132217958Y-57536903D01*
X132518421Y-57412447D01*
X132624744Y-57391298D01*
X132837389Y-57349000D01*
X133162611Y-57349000D01*
X133375256Y-57391298D01*
X133375256Y-57391298D01*
G37*
G36*
X152789499Y-59478445D02*
G01*
X152826995Y-59489820D01*
X152861554Y-59508292D01*
X152891847Y-59533153D01*
X152916708Y-59563446D01*
X152935180Y-59598005D01*
X152946555Y-59635501D01*
X152951000Y-59680638D01*
X152951000Y-60319362D01*
X152946555Y-60364499D01*
X152935180Y-60401995D01*
X152916708Y-60436554D01*
X152891847Y-60466847D01*
X152861554Y-60491708D01*
X152826995Y-60510180D01*
X152789499Y-60521555D01*
X152744362Y-60526000D01*
X152005638Y-60526000D01*
X151960501Y-60521555D01*
X151923005Y-60510180D01*
X151888446Y-60491708D01*
X151858153Y-60466847D01*
X151833292Y-60436554D01*
X151814820Y-60401995D01*
X151803445Y-60364499D01*
X151799000Y-60319362D01*
X151799000Y-59680638D01*
X151803445Y-59635501D01*
X151814820Y-59598005D01*
X151833292Y-59563446D01*
X151858153Y-59533153D01*
X151888446Y-59508292D01*
X151923005Y-59489820D01*
X151960501Y-59478445D01*
X152005638Y-59474000D01*
X152744362Y-59474000D01*
X152789499Y-59478445D01*
X152789499Y-59478445D01*
G37*
G36*
X151039499Y-59478445D02*
G01*
X151076995Y-59489820D01*
X151111554Y-59508292D01*
X151141847Y-59533153D01*
X151166708Y-59563446D01*
X151185180Y-59598005D01*
X151196555Y-59635501D01*
X151201000Y-59680638D01*
X151201000Y-60319362D01*
X151196555Y-60364499D01*
X151185180Y-60401995D01*
X151166708Y-60436554D01*
X151141847Y-60466847D01*
X151111554Y-60491708D01*
X151076995Y-60510180D01*
X151039499Y-60521555D01*
X150994362Y-60526000D01*
X150255638Y-60526000D01*
X150210501Y-60521555D01*
X150173005Y-60510180D01*
X150138446Y-60491708D01*
X150108153Y-60466847D01*
X150083292Y-60436554D01*
X150064820Y-60401995D01*
X150053445Y-60364499D01*
X150049000Y-60319362D01*
X150049000Y-59680638D01*
X150053445Y-59635501D01*
X150064820Y-59598005D01*
X150083292Y-59563446D01*
X150108153Y-59533153D01*
X150138446Y-59508292D01*
X150173005Y-59489820D01*
X150210501Y-59478445D01*
X150255638Y-59474000D01*
X150994362Y-59474000D01*
X151039499Y-59478445D01*
X151039499Y-59478445D01*
G37*
G36*
X153733642Y-57729781D02*
G01*
X153879414Y-57790162D01*
X153879416Y-57790163D01*
X154010608Y-57877822D01*
X154122178Y-57989392D01*
X154206943Y-58116253D01*
X154209838Y-58120586D01*
X154270219Y-58266358D01*
X154301000Y-58421107D01*
X154301000Y-58578893D01*
X154270219Y-58733642D01*
X154209838Y-58879414D01*
X154209837Y-58879416D01*
X154122178Y-59010608D01*
X154010608Y-59122178D01*
X153879416Y-59209837D01*
X153879415Y-59209838D01*
X153879414Y-59209838D01*
X153733642Y-59270219D01*
X153578893Y-59301000D01*
X153421107Y-59301000D01*
X153266358Y-59270219D01*
X153120586Y-59209838D01*
X153120585Y-59209838D01*
X153120584Y-59209837D01*
X152989392Y-59122178D01*
X152877822Y-59010608D01*
X152790163Y-58879416D01*
X152790162Y-58879414D01*
X152729781Y-58733642D01*
X152699000Y-58578893D01*
X152699000Y-58421107D01*
X152729781Y-58266358D01*
X152790162Y-58120586D01*
X152793057Y-58116253D01*
X152877822Y-57989392D01*
X152989392Y-57877822D01*
X153120584Y-57790163D01*
X153120586Y-57790162D01*
X153266358Y-57729781D01*
X153421107Y-57699000D01*
X153578893Y-57699000D01*
X153733642Y-57729781D01*
X153733642Y-57729781D01*
G37*
G36*
X139879487Y-56248996D02*
G01*
X140116253Y-56347068D01*
X140116255Y-56347069D01*
X140329339Y-56489447D01*
X140510553Y-56670661D01*
X140652932Y-56883747D01*
X140751004Y-57120513D01*
X140801000Y-57371861D01*
X140801000Y-57628139D01*
X140751004Y-57879487D01*
X140705479Y-57989393D01*
X140652931Y-58116255D01*
X140510553Y-58329339D01*
X140329339Y-58510553D01*
X140116255Y-58652931D01*
X140116254Y-58652932D01*
X140116253Y-58652932D01*
X139879487Y-58751004D01*
X139628139Y-58801000D01*
X139371861Y-58801000D01*
X139120513Y-58751004D01*
X138883747Y-58652932D01*
X138883746Y-58652932D01*
X138883745Y-58652931D01*
X138670661Y-58510553D01*
X138489447Y-58329339D01*
X138347069Y-58116255D01*
X138294521Y-57989393D01*
X138248996Y-57879487D01*
X138199000Y-57628139D01*
X138199000Y-57371861D01*
X138248996Y-57120513D01*
X138347068Y-56883747D01*
X138489447Y-56670661D01*
X138670661Y-56489447D01*
X138883745Y-56347069D01*
X138883747Y-56347068D01*
X139120513Y-56248996D01*
X139371861Y-56199000D01*
X139628139Y-56199000D01*
X139879487Y-56248996D01*
X139879487Y-56248996D01*
G37*
G36*
X150879487Y-56248996D02*
G01*
X151116253Y-56347068D01*
X151116255Y-56347069D01*
X151329339Y-56489447D01*
X151510553Y-56670661D01*
X151652932Y-56883747D01*
X151751004Y-57120513D01*
X151801000Y-57371861D01*
X151801000Y-57628139D01*
X151751004Y-57879487D01*
X151705479Y-57989393D01*
X151652931Y-58116255D01*
X151510553Y-58329339D01*
X151329339Y-58510553D01*
X151116255Y-58652931D01*
X151116254Y-58652932D01*
X151116253Y-58652932D01*
X150879487Y-58751004D01*
X150628139Y-58801000D01*
X150371861Y-58801000D01*
X150120513Y-58751004D01*
X149883747Y-58652932D01*
X149883746Y-58652932D01*
X149883745Y-58652931D01*
X149670661Y-58510553D01*
X149489447Y-58329339D01*
X149347069Y-58116255D01*
X149294521Y-57989393D01*
X149248996Y-57879487D01*
X149199000Y-57628139D01*
X149199000Y-57371861D01*
X149248996Y-57120513D01*
X149347068Y-56883747D01*
X149489447Y-56670661D01*
X149670661Y-56489447D01*
X149883745Y-56347069D01*
X149883747Y-56347068D01*
X150120513Y-56248996D01*
X150371861Y-56199000D01*
X150628139Y-56199000D01*
X150879487Y-56248996D01*
X150879487Y-56248996D01*
G37*
G36*
X146951000Y-57901000D02*
G01*
X143049000Y-57901000D01*
X143049000Y-55799000D01*
X146951000Y-55799000D01*
X146951000Y-57901000D01*
X146951000Y-57901000D01*
G37*
M02*
